M48
;Layer_Color=9474304
;FILE_FORMAT=2:4
INCH,TZ
;TYPE=PLATED
T01F00S00C0.0100
T03F00S00C0.0280
T04F00S00C0.0327
T05F00S00C0.0354
T06F00S00C0.0380
T07F00S00C0.0400
%
T01
X21000Y10500
X21750
X22500
X23250
X24000
X24750
X25500
X26250
X27000
X27750
X28500
X28875Y11250
X28125
X27375
X26625
X25875
X25125
X24375
X22875
X22125
X21375
X20625
X21000Y12000
X21750
X22125Y12750
X21375
X20625
X19875
X20250Y13500
X21000
X21750
X22125Y14250
X22875
X23625
X24000Y15000
X24750
X25500
X27000
X27750
X28500
X29250
X29625Y14250
X30375
X31125
X30750Y15000
Y13500
X31125Y12750
X30375
X30750Y12000
X31125Y11250
X30000Y10500
X29250Y12000
X28500
X27750
X27000
X26250
X25500
X24750Y13500
X24000
X23250
Y15000
X22500
X21750
X21000
X20250
X19500
X19875Y14250
X20625
X21375
X19500Y13500
Y12000
X20250
X27375Y12750
X28125
X28875
X29250Y13500
X28500
X27750
X28125Y14250
X28875
X27375
X31875
X32625
X33375
X33000Y15000
X32250
X31500
X32625Y12750
X33000Y12000
X32250
X32625Y11250
X33000Y10500
X32250
X31500
X31875Y15750
X32250Y16500
X33000
X33375Y17250
X33000Y18000
X33375Y18750
X32625
X31875
X32250Y19500
X33000
X33375Y20250
Y21750
X32250Y22500
X31500
X31875Y23250
X32625
X33000Y24000
X32250
X31500
X31875Y24750
X32625
X32250Y25500
X31500
Y27000
X31875Y27750
X32625
X33000Y27000
X32250Y28500
X31500
X31875Y29250
X32625
X33375
X32250Y30000
X31500
X31875Y30750
X32250Y21000
X31500
Y19500
Y18000
Y16500
X33375Y15750
X31125
X30375
X30750Y16500
X30000
X29250
X28500
X27750
X27000
X27375Y15750
X28125
X28875
X28125Y17250
X28500Y18000
X29250
X28875Y18750
X28125
X27375
X26625
X25875
X25125
X24375
X23625
X22875
X22500Y19500
X21750
X21000
X20250
X19500
X19875Y18750
X20625
X21000Y18000
X21750
X22500
X22125Y17250
Y15750
X22875
X23625
X24000Y16500
X24750
X25500
X25125Y17250
X25500Y18000
X24750
X24000
Y19500
X24750
X25500
X25125Y20250
X24375
X25500Y21000
X25125Y21750
X24750Y22500
X24000
X24375Y23250
X25125
X24750Y24000
X24375Y24750
X23625
X24000Y25500
X24750
X25500
X26250
X27000
X27750
X28125Y26250
X28875
X29250Y27000
X30000
X30750
X31125Y27750
X30375
X30750Y28500
X30000
X29250
X28875Y29250
X28125
X27375
X27750Y30000
X27000
X26250
X25500
X24750
X24000
X23250
X23625Y29250
X24375
X25125
X25875
X26250Y28500
X27000
X27750
X28125Y27750
X28875
X27375
X26625
X25875
X25125
X24375
X23625
X24000Y28500
X24750
X25500
Y27000
X26250
X27000
X27750
X27375Y26250
X26625
X25875
X25125
X24375
X23625
X24000Y27000
X24750
X23250
X22500
X21750
X22125Y26250
X21375
X19875
X20250Y27000
X19500
X19875Y27750
X20250Y28500
X21000
X21375Y29250
X21000Y30000
X20250
X19500
X19875Y30750
Y29250
X19500Y28500
Y25500
X19875Y24750
X20625
X21000Y24000
X20250
X19500
X19875Y23250
X20250Y22500
X21000
X21375Y21750
X21750Y21000
X21000
X20250
X19500
Y22500
X22875Y23250
X23250Y24000
Y25500
Y28500
X22875Y29250
X24375Y30750
X25125
X25875
X28125
X30375
X31125
X30750Y30000
X30000
X30375Y29250
X31125
X30375Y26250
X30000Y25500
X29250
X28125Y24750
X27375
X26625
X27000Y24000
X27750
Y22500
X27000
X27375Y21750
X27750Y21000
X28500
X29250
X27000
X27375Y20250
X27750Y19500
Y18000
X27000
X26625Y15750
X25125
X21375
X20625
X19875
X20250Y16500
X21000
X19500
Y18000
X20250
X21375Y20250
X22125
X26625Y23250
X31125
X30750Y24000
X31125Y24750
X30750Y22500
X31125Y20250
X30750Y19500
X31125Y18750
X30375
X30750Y18000
X31125Y17250
T03
X25900Y11750
X26700Y13350
X28900Y10550
X30900Y10500
X31550Y19000
X31900Y22200
X31950Y24350
X32075Y26397
X32095Y27383
X29554Y29762
X28567Y29753
X26500Y29600
X20650Y29550
X21600Y23250
X21400Y18950
X27300Y19550
X28235Y19570
X29500Y19500
X30250Y19550
X27614Y23073
X25500Y15950
T04
X31700Y17450
X32700
Y20550
X31700
X30700
X29700
X28700
X27700
X26700
X25700
X24700
X23700
X22700
X21700
X20700
X19700
Y17450
X20700
X21700
X22700
X23700
X24700
X25700
X26700
X27700
X28700
X29700
X30700
T05
X20900Y27600
X21900
X22900
T06
X33300Y23400
X26550Y31000
X20500
T07
X33300Y24400
Y25400
Y26400
Y27400
Y28400
X29550Y31000
X28550
X27550
X23500
X22500
X21500
M30
