G04*
G04 #@! TF.GenerationSoftware,Altium Limited,Altium Designer,25.3.3 (18)*
G04*
G04 Layer_Color=2752767*
%FSLAX25Y25*%
%MOIN*%
G70*
G04*
G04 #@! TF.SameCoordinates,2E22F27B-A00B-49EA-A22F-E70647FCC6C8*
G04*
G04*
G04 #@! TF.FilePolarity,Positive*
G04*
G01*
G75*
%ADD14C,0.00500*%
%ADD51C,0.00667*%
D14*
X333000Y272000D02*
X331000Y276000D01*
X335000D01*
X333000Y272000D01*
Y262000D02*
X331000Y266000D01*
X335000D01*
X333000Y262000D01*
Y252000D02*
X331000Y256000D01*
X335000D01*
X333000Y252000D01*
Y242000D02*
X331000Y246000D01*
X335000D01*
X333000Y242000D01*
Y232000D02*
X334000Y233000D01*
X335000D01*
X334000Y234000D01*
X335000Y235000D01*
X334000D01*
X333000Y236000D01*
X332000Y235000D01*
X331000D01*
X332000Y234000D01*
X331000Y233000D01*
X332000D01*
X333000Y232000D01*
Y282000D02*
X331000Y286000D01*
X335000D01*
X333000Y282000D01*
X325000Y203500D02*
Y207500D01*
X329000D01*
Y203500D01*
X325000D01*
X315000D02*
Y207500D01*
X319000D01*
Y203500D01*
X315000D01*
X305000D02*
Y207500D01*
X309000D01*
Y203500D01*
X305000D01*
X295000D02*
Y207500D01*
X299000D01*
Y203500D01*
X295000D01*
X285000D02*
Y207500D01*
X289000D01*
Y203500D01*
X285000D01*
X275000D02*
Y207500D01*
X279000D01*
Y203500D01*
X275000D01*
X265000D02*
Y207500D01*
X269000D01*
Y203500D01*
X265000D01*
X255000D02*
Y207500D01*
X259000D01*
Y203500D01*
X255000D01*
X245000D02*
Y207500D01*
X249000D01*
Y203500D01*
X245000D01*
X235000D02*
Y207500D01*
X239000D01*
Y203500D01*
X235000D01*
X225000D02*
Y207500D01*
X229000D01*
Y203500D01*
X225000D01*
X215000D02*
Y207500D01*
X219000D01*
Y203500D01*
X215000D01*
X205000D02*
Y207500D01*
X209000D01*
Y203500D01*
X205000D01*
X195000D02*
Y207500D01*
X199000D01*
Y203500D01*
X195000D01*
Y172500D02*
Y176500D01*
X199000D01*
Y172500D01*
X195000D01*
X205000D02*
Y176500D01*
X209000D01*
Y172500D01*
X205000D01*
X215000D02*
Y176500D01*
X219000D01*
Y172500D01*
X215000D01*
X225000D02*
Y176500D01*
X229000D01*
Y172500D01*
X225000D01*
X235000D02*
Y176500D01*
X239000D01*
Y172500D01*
X235000D01*
X245000D02*
Y176500D01*
X249000D01*
Y172500D01*
X245000D01*
X255000D02*
Y176500D01*
X259000D01*
Y172500D01*
X255000D01*
X265000D02*
Y176500D01*
X269000D01*
Y172500D01*
X265000D01*
X275000D02*
Y176500D01*
X279000D01*
Y172500D01*
X275000D01*
X285000D02*
Y176500D01*
X289000D01*
Y172500D01*
X285000D01*
X295000D02*
Y176500D01*
X299000D01*
Y172500D01*
X295000D01*
X305000D02*
Y176500D01*
X309000D01*
Y172500D01*
X305000D01*
X315000D02*
Y176500D01*
X319000D01*
Y172500D01*
X315000D01*
X325000D02*
Y176500D01*
X329000D01*
Y172500D01*
X325000D01*
X295500Y308000D02*
X293500Y312000D01*
X297500D01*
X295500Y308000D01*
X285500D02*
X283500Y312000D01*
X287500D01*
X285500Y308000D01*
X275500D02*
X273500Y312000D01*
X277500D01*
X275500Y308000D01*
X265500D02*
X266500Y309000D01*
X267500D01*
X266500Y310000D01*
X267500Y311000D01*
X266500D01*
X265500Y312000D01*
X264500Y311000D01*
X263500D01*
X264500Y310000D01*
X263500Y309000D01*
X264500D01*
X265500Y308000D01*
X235000D02*
X233000Y312000D01*
X237000D01*
X235000Y308000D01*
X225000D02*
X223000Y312000D01*
X227000D01*
X225000Y308000D01*
X215000D02*
X213000Y312000D01*
X217000D01*
X215000Y308000D01*
X205000D02*
X206000Y309000D01*
X207000D01*
X206000Y310000D01*
X207000Y311000D01*
X206000D01*
X205000Y312000D01*
X204000Y311000D01*
X203000D01*
X204000Y310000D01*
X203000Y309000D01*
X204000D01*
X205000Y308000D01*
X268008Y108653D02*
X269008Y110653D01*
X268008Y112654D01*
X270008Y111653D01*
X272008Y112654D01*
X271008Y110653D01*
X272008Y108653D01*
X270008Y109653D01*
X268008Y108653D01*
X233992D02*
X234992Y110653D01*
X233992Y112654D01*
X235992Y111653D01*
X237992Y112654D01*
X236992Y110653D01*
X237992Y108653D01*
X235992Y109653D01*
X233992Y108653D01*
X268008Y123614D02*
X269008Y125614D01*
X268008Y127614D01*
X270008Y126614D01*
X272008Y127614D01*
X271008Y125614D01*
X272008Y123614D01*
X270008Y124614D01*
X268008Y123614D01*
X233992D02*
X234992Y125614D01*
X233992Y127614D01*
X235992Y126614D01*
X237992Y127614D01*
X236992Y125614D01*
X237992Y123614D01*
X235992Y124614D01*
X233992Y123614D01*
X331750Y290500D02*
X332750D01*
X333750Y291500D01*
X334750Y290500D01*
X335750D01*
Y291500D01*
X334750Y292500D01*
X335750Y293500D01*
Y294500D01*
X334750D01*
X333750Y293500D01*
X332750Y294500D01*
X331750D01*
Y293500D01*
X332750Y292500D01*
X331750Y291500D01*
Y290500D01*
X328000Y268000D02*
X329000D01*
X330000Y269000D01*
X331000Y268000D01*
X332000D01*
Y269000D01*
X331000Y270000D01*
X332000Y271000D01*
Y272000D01*
X331000D01*
X330000Y271000D01*
X329000Y272000D01*
X328000D01*
Y271000D01*
X329000Y270000D01*
X328000Y269000D01*
Y268000D01*
Y238000D02*
X329000D01*
X330000Y239000D01*
X331000Y238000D01*
X332000D01*
Y239000D01*
X331000Y240000D01*
X332000Y241000D01*
Y242000D01*
X331000D01*
X330000Y241000D01*
X329000Y242000D01*
X328000D01*
Y241000D01*
X329000Y240000D01*
X328000Y239000D01*
Y238000D01*
X331750Y215500D02*
X332750D01*
X333750Y216500D01*
X334750Y215500D01*
X335750D01*
Y216500D01*
X334750Y217500D01*
X335750Y218500D01*
Y219500D01*
X334750D01*
X333750Y218500D01*
X332750Y219500D01*
X331750D01*
Y218500D01*
X332750Y217500D01*
X331750Y216500D01*
Y215500D01*
Y200500D02*
X332750D01*
X333750Y201500D01*
X334750Y200500D01*
X335750D01*
Y201500D01*
X334750Y202500D01*
X335750Y203500D01*
Y204500D01*
X334750D01*
X333750Y203500D01*
X332750Y204500D01*
X331750D01*
Y203500D01*
X332750Y202500D01*
X331750Y201500D01*
Y200500D01*
X328000Y193000D02*
X329000D01*
X330000Y194000D01*
X331000Y193000D01*
X332000D01*
Y194000D01*
X331000Y195000D01*
X332000Y196000D01*
Y197000D01*
X331000D01*
X330000Y196000D01*
X329000Y197000D01*
X328000D01*
Y196000D01*
X329000Y195000D01*
X328000Y194000D01*
Y193000D01*
X331750Y185500D02*
X332750D01*
X333750Y186500D01*
X334750Y185500D01*
X335750D01*
Y186500D01*
X334750Y187500D01*
X335750Y188500D01*
Y189500D01*
X334750D01*
X333750Y188500D01*
X332750Y189500D01*
X331750D01*
Y188500D01*
X332750Y187500D01*
X331750Y186500D01*
Y185500D01*
X328000Y178000D02*
X329000D01*
X330000Y179000D01*
X331000Y178000D01*
X332000D01*
Y179000D01*
X331000Y180000D01*
X332000Y181000D01*
Y182000D01*
X331000D01*
X330000Y181000D01*
X329000Y182000D01*
X328000D01*
Y181000D01*
X329000Y180000D01*
X328000Y179000D01*
Y178000D01*
X331750Y170500D02*
X332750D01*
X333750Y171500D01*
X334750Y170500D01*
X335750D01*
Y171500D01*
X334750Y172500D01*
X335750Y173500D01*
Y174500D01*
X334750D01*
X333750Y173500D01*
X332750Y174500D01*
X331750D01*
Y173500D01*
X332750Y172500D01*
X331750Y171500D01*
Y170500D01*
X328000Y163000D02*
X329000D01*
X330000Y164000D01*
X331000Y163000D01*
X332000D01*
Y164000D01*
X331000Y165000D01*
X332000Y166000D01*
Y167000D01*
X331000D01*
X330000Y166000D01*
X329000Y167000D01*
X328000D01*
Y166000D01*
X329000Y165000D01*
X328000Y164000D01*
Y163000D01*
X331750Y155500D02*
X332750D01*
X333750Y156500D01*
X334750Y155500D01*
X335750D01*
Y156500D01*
X334750Y157500D01*
X335750Y158500D01*
Y159500D01*
X334750D01*
X333750Y158500D01*
X332750Y159500D01*
X331750D01*
Y158500D01*
X332750Y157500D01*
X331750Y156500D01*
Y155500D01*
X328000Y148000D02*
X329000D01*
X330000Y149000D01*
X331000Y148000D01*
X332000D01*
Y149000D01*
X331000Y150000D01*
X332000Y151000D01*
Y152000D01*
X331000D01*
X330000Y151000D01*
X329000Y152000D01*
X328000D01*
Y151000D01*
X329000Y150000D01*
X328000Y149000D01*
Y148000D01*
X331750Y140500D02*
X332750D01*
X333750Y141500D01*
X334750Y140500D01*
X335750D01*
Y141500D01*
X334750Y142500D01*
X335750Y143500D01*
Y144500D01*
X334750D01*
X333750Y143500D01*
X332750Y144500D01*
X331750D01*
Y143500D01*
X332750Y142500D01*
X331750Y141500D01*
Y140500D01*
X328000Y118000D02*
X329000D01*
X330000Y119000D01*
X331000Y118000D01*
X332000D01*
Y119000D01*
X331000Y120000D01*
X332000Y121000D01*
Y122000D01*
X331000D01*
X330000Y121000D01*
X329000Y122000D01*
X328000D01*
Y121000D01*
X329000Y120000D01*
X328000Y119000D01*
Y118000D01*
Y103000D02*
X329000D01*
X330000Y104000D01*
X331000Y103000D01*
X332000D01*
Y104000D01*
X331000Y105000D01*
X332000Y106000D01*
Y107000D01*
X331000D01*
X330000Y106000D01*
X329000Y107000D01*
X328000D01*
Y106000D01*
X329000Y105000D01*
X328000Y104000D01*
Y103000D01*
X320500Y298000D02*
X321500D01*
X322500Y299000D01*
X323500Y298000D01*
X324500D01*
Y299000D01*
X323500Y300000D01*
X324500Y301000D01*
Y302000D01*
X323500D01*
X322500Y301000D01*
X321500Y302000D01*
X320500D01*
Y301000D01*
X321500Y300000D01*
X320500Y299000D01*
Y298000D01*
X324250Y290500D02*
X325250D01*
X326250Y291500D01*
X327250Y290500D01*
X328250D01*
Y291500D01*
X327250Y292500D01*
X328250Y293500D01*
Y294500D01*
X327250D01*
X326250Y293500D01*
X325250Y294500D01*
X324250D01*
Y293500D01*
X325250Y292500D01*
X324250Y291500D01*
Y290500D01*
X320500Y283000D02*
X321500D01*
X322500Y284000D01*
X323500Y283000D01*
X324500D01*
Y284000D01*
X323500Y285000D01*
X324500Y286000D01*
Y287000D01*
X323500D01*
X322500Y286000D01*
X321500Y287000D01*
X320500D01*
Y286000D01*
X321500Y285000D01*
X320500Y284000D01*
Y283000D01*
X324250Y275500D02*
X325250D01*
X326250Y276500D01*
X327250Y275500D01*
X328250D01*
Y276500D01*
X327250Y277500D01*
X328250Y278500D01*
Y279500D01*
X327250D01*
X326250Y278500D01*
X325250Y279500D01*
X324250D01*
Y278500D01*
X325250Y277500D01*
X324250Y276500D01*
Y275500D01*
X320500Y253000D02*
X321500D01*
X322500Y254000D01*
X323500Y253000D01*
X324500D01*
Y254000D01*
X323500Y255000D01*
X324500Y256000D01*
Y257000D01*
X323500D01*
X322500Y256000D01*
X321500Y257000D01*
X320500D01*
Y256000D01*
X321500Y255000D01*
X320500Y254000D01*
Y253000D01*
X324250Y245500D02*
X325250D01*
X326250Y246500D01*
X327250Y245500D01*
X328250D01*
Y246500D01*
X327250Y247500D01*
X328250Y248500D01*
Y249500D01*
X327250D01*
X326250Y248500D01*
X325250Y249500D01*
X324250D01*
Y248500D01*
X325250Y247500D01*
X324250Y246500D01*
Y245500D01*
X320500Y238000D02*
X321500D01*
X322500Y239000D01*
X323500Y238000D01*
X324500D01*
Y239000D01*
X323500Y240000D01*
X324500Y241000D01*
Y242000D01*
X323500D01*
X322500Y241000D01*
X321500Y242000D01*
X320500D01*
Y241000D01*
X321500Y240000D01*
X320500Y239000D01*
Y238000D01*
X324250Y230500D02*
X325250D01*
X326250Y231500D01*
X327250Y230500D01*
X328250D01*
Y231500D01*
X327250Y232500D01*
X328250Y233500D01*
Y234500D01*
X327250D01*
X326250Y233500D01*
X325250Y234500D01*
X324250D01*
Y233500D01*
X325250Y232500D01*
X324250Y231500D01*
Y230500D01*
X320500Y223000D02*
X321500D01*
X322500Y224000D01*
X323500Y223000D01*
X324500D01*
Y224000D01*
X323500Y225000D01*
X324500Y226000D01*
Y227000D01*
X323500D01*
X322500Y226000D01*
X321500Y227000D01*
X320500D01*
Y226000D01*
X321500Y225000D01*
X320500Y224000D01*
Y223000D01*
Y208000D02*
X321500D01*
X322500Y209000D01*
X323500Y208000D01*
X324500D01*
Y209000D01*
X323500Y210000D01*
X324500Y211000D01*
Y212000D01*
X323500D01*
X322500Y211000D01*
X321500Y212000D01*
X320500D01*
Y211000D01*
X321500Y210000D01*
X320500Y209000D01*
Y208000D01*
Y193000D02*
X321500D01*
X322500Y194000D01*
X323500Y193000D01*
X324500D01*
Y194000D01*
X323500Y195000D01*
X324500Y196000D01*
Y197000D01*
X323500D01*
X322500Y196000D01*
X321500Y197000D01*
X320500D01*
Y196000D01*
X321500Y195000D01*
X320500Y194000D01*
Y193000D01*
X324250Y185500D02*
X325250D01*
X326250Y186500D01*
X327250Y185500D01*
X328250D01*
Y186500D01*
X327250Y187500D01*
X328250Y188500D01*
Y189500D01*
X327250D01*
X326250Y188500D01*
X325250Y189500D01*
X324250D01*
Y188500D01*
X325250Y187500D01*
X324250Y186500D01*
Y185500D01*
X320500Y163000D02*
X321500D01*
X322500Y164000D01*
X323500Y163000D01*
X324500D01*
Y164000D01*
X323500Y165000D01*
X324500Y166000D01*
Y167000D01*
X323500D01*
X322500Y166000D01*
X321500Y167000D01*
X320500D01*
Y166000D01*
X321500Y165000D01*
X320500Y164000D01*
Y163000D01*
Y148000D02*
X321500D01*
X322500Y149000D01*
X323500Y148000D01*
X324500D01*
Y149000D01*
X323500Y150000D01*
X324500Y151000D01*
Y152000D01*
X323500D01*
X322500Y151000D01*
X321500Y152000D01*
X320500D01*
Y151000D01*
X321500Y150000D01*
X320500Y149000D01*
Y148000D01*
X324250Y140500D02*
X325250D01*
X326250Y141500D01*
X327250Y140500D01*
X328250D01*
Y141500D01*
X327250Y142500D01*
X328250Y143500D01*
Y144500D01*
X327250D01*
X326250Y143500D01*
X325250Y144500D01*
X324250D01*
Y143500D01*
X325250Y142500D01*
X324250Y141500D01*
Y140500D01*
Y125500D02*
X325250D01*
X326250Y126500D01*
X327250Y125500D01*
X328250D01*
Y126500D01*
X327250Y127500D01*
X328250Y128500D01*
Y129500D01*
X327250D01*
X326250Y128500D01*
X325250Y129500D01*
X324250D01*
Y128500D01*
X325250Y127500D01*
X324250Y126500D01*
Y125500D01*
X320500Y118000D02*
X321500D01*
X322500Y119000D01*
X323500Y118000D01*
X324500D01*
Y119000D01*
X323500Y120000D01*
X324500Y121000D01*
Y122000D01*
X323500D01*
X322500Y121000D01*
X321500Y122000D01*
X320500D01*
Y121000D01*
X321500Y120000D01*
X320500Y119000D01*
Y118000D01*
X324250Y110500D02*
X325250D01*
X326250Y111500D01*
X327250Y110500D01*
X328250D01*
Y111500D01*
X327250Y112500D01*
X328250Y113500D01*
Y114500D01*
X327250D01*
X326250Y113500D01*
X325250Y114500D01*
X324250D01*
Y113500D01*
X325250Y112500D01*
X324250Y111500D01*
Y110500D01*
X320500Y103000D02*
X321500D01*
X322500Y104000D01*
X323500Y103000D01*
X324500D01*
Y104000D01*
X323500Y105000D01*
X324500Y106000D01*
Y107000D01*
X323500D01*
X322500Y106000D01*
X321500Y107000D01*
X320500D01*
Y106000D01*
X321500Y105000D01*
X320500Y104000D01*
Y103000D01*
X316750Y305500D02*
X317750D01*
X318750Y306500D01*
X319750Y305500D01*
X320750D01*
Y306500D01*
X319750Y307500D01*
X320750Y308500D01*
Y309500D01*
X319750D01*
X318750Y308500D01*
X317750Y309500D01*
X316750D01*
Y308500D01*
X317750Y307500D01*
X316750Y306500D01*
Y305500D01*
X313000Y298000D02*
X314000D01*
X315000Y299000D01*
X316000Y298000D01*
X317000D01*
Y299000D01*
X316000Y300000D01*
X317000Y301000D01*
Y302000D01*
X316000D01*
X315000Y301000D01*
X314000Y302000D01*
X313000D01*
Y301000D01*
X314000Y300000D01*
X313000Y299000D01*
Y298000D01*
X316750Y290500D02*
X317750D01*
X318750Y291500D01*
X319750Y290500D01*
X320750D01*
Y291500D01*
X319750Y292500D01*
X320750Y293500D01*
Y294500D01*
X319750D01*
X318750Y293500D01*
X317750Y294500D01*
X316750D01*
Y293500D01*
X317750Y292500D01*
X316750Y291500D01*
Y290500D01*
X313000Y283000D02*
X314000D01*
X315000Y284000D01*
X316000Y283000D01*
X317000D01*
Y284000D01*
X316000Y285000D01*
X317000Y286000D01*
Y287000D01*
X316000D01*
X315000Y286000D01*
X314000Y287000D01*
X313000D01*
Y286000D01*
X314000Y285000D01*
X313000Y284000D01*
Y283000D01*
X316750Y275500D02*
X317750D01*
X318750Y276500D01*
X319750Y275500D01*
X320750D01*
Y276500D01*
X319750Y277500D01*
X320750Y278500D01*
Y279500D01*
X319750D01*
X318750Y278500D01*
X317750Y279500D01*
X316750D01*
Y278500D01*
X317750Y277500D01*
X316750Y276500D01*
Y275500D01*
X313000Y268000D02*
X314000D01*
X315000Y269000D01*
X316000Y268000D01*
X317000D01*
Y269000D01*
X316000Y270000D01*
X317000Y271000D01*
Y272000D01*
X316000D01*
X315000Y271000D01*
X314000Y272000D01*
X313000D01*
Y271000D01*
X314000Y270000D01*
X313000Y269000D01*
Y268000D01*
Y253000D02*
X314000D01*
X315000Y254000D01*
X316000Y253000D01*
X317000D01*
Y254000D01*
X316000Y255000D01*
X317000Y256000D01*
Y257000D01*
X316000D01*
X315000Y256000D01*
X314000Y257000D01*
X313000D01*
Y256000D01*
X314000Y255000D01*
X313000Y254000D01*
Y253000D01*
X316750Y245500D02*
X317750D01*
X318750Y246500D01*
X319750Y245500D01*
X320750D01*
Y246500D01*
X319750Y247500D01*
X320750Y248500D01*
Y249500D01*
X319750D01*
X318750Y248500D01*
X317750Y249500D01*
X316750D01*
Y248500D01*
X317750Y247500D01*
X316750Y246500D01*
Y245500D01*
X313000Y238000D02*
X314000D01*
X315000Y239000D01*
X316000Y238000D01*
X317000D01*
Y239000D01*
X316000Y240000D01*
X317000Y241000D01*
Y242000D01*
X316000D01*
X315000Y241000D01*
X314000Y242000D01*
X313000D01*
Y241000D01*
X314000Y240000D01*
X313000Y239000D01*
Y238000D01*
X316750Y230500D02*
X317750D01*
X318750Y231500D01*
X319750Y230500D01*
X320750D01*
Y231500D01*
X319750Y232500D01*
X320750Y233500D01*
Y234500D01*
X319750D01*
X318750Y233500D01*
X317750Y234500D01*
X316750D01*
Y233500D01*
X317750Y232500D01*
X316750Y231500D01*
Y230500D01*
X313000Y223000D02*
X314000D01*
X315000Y224000D01*
X316000Y223000D01*
X317000D01*
Y224000D01*
X316000Y225000D01*
X317000Y226000D01*
Y227000D01*
X316000D01*
X315000Y226000D01*
X314000Y227000D01*
X313000D01*
Y226000D01*
X314000Y225000D01*
X313000Y224000D01*
Y223000D01*
Y208000D02*
X314000D01*
X315000Y209000D01*
X316000Y208000D01*
X317000D01*
Y209000D01*
X316000Y210000D01*
X317000Y211000D01*
Y212000D01*
X316000D01*
X315000Y211000D01*
X314000Y212000D01*
X313000D01*
Y211000D01*
X314000Y210000D01*
X313000Y209000D01*
Y208000D01*
Y193000D02*
X314000D01*
X315000Y194000D01*
X316000Y193000D01*
X317000D01*
Y194000D01*
X316000Y195000D01*
X317000Y196000D01*
Y197000D01*
X316000D01*
X315000Y196000D01*
X314000Y197000D01*
X313000D01*
Y196000D01*
X314000Y195000D01*
X313000Y194000D01*
Y193000D01*
X316750Y185500D02*
X317750D01*
X318750Y186500D01*
X319750Y185500D01*
X320750D01*
Y186500D01*
X319750Y187500D01*
X320750Y188500D01*
Y189500D01*
X319750D01*
X318750Y188500D01*
X317750Y189500D01*
X316750D01*
Y188500D01*
X317750Y187500D01*
X316750Y186500D01*
Y185500D01*
X313000Y178000D02*
X314000D01*
X315000Y179000D01*
X316000Y178000D01*
X317000D01*
Y179000D01*
X316000Y180000D01*
X317000Y181000D01*
Y182000D01*
X316000D01*
X315000Y181000D01*
X314000Y182000D01*
X313000D01*
Y181000D01*
X314000Y180000D01*
X313000Y179000D01*
Y178000D01*
Y163000D02*
X314000D01*
X315000Y164000D01*
X316000Y163000D01*
X317000D01*
Y164000D01*
X316000Y165000D01*
X317000Y166000D01*
Y167000D01*
X316000D01*
X315000Y166000D01*
X314000Y167000D01*
X313000D01*
Y166000D01*
X314000Y165000D01*
X313000Y164000D01*
Y163000D01*
X316750Y155500D02*
X317750D01*
X318750Y156500D01*
X319750Y155500D01*
X320750D01*
Y156500D01*
X319750Y157500D01*
X320750Y158500D01*
Y159500D01*
X319750D01*
X318750Y158500D01*
X317750Y159500D01*
X316750D01*
Y158500D01*
X317750Y157500D01*
X316750Y156500D01*
Y155500D01*
X313000Y148000D02*
X314000D01*
X315000Y149000D01*
X316000Y148000D01*
X317000D01*
Y149000D01*
X316000Y150000D01*
X317000Y151000D01*
Y152000D01*
X316000D01*
X315000Y151000D01*
X314000Y152000D01*
X313000D01*
Y151000D01*
X314000Y150000D01*
X313000Y149000D01*
Y148000D01*
X316750Y140500D02*
X317750D01*
X318750Y141500D01*
X319750Y140500D01*
X320750D01*
Y141500D01*
X319750Y142500D01*
X320750Y143500D01*
Y144500D01*
X319750D01*
X318750Y143500D01*
X317750Y144500D01*
X316750D01*
Y143500D01*
X317750Y142500D01*
X316750Y141500D01*
Y140500D01*
X313000Y103000D02*
X314000D01*
X315000Y104000D01*
X316000Y103000D01*
X317000D01*
Y104000D01*
X316000Y105000D01*
X317000Y106000D01*
Y107000D01*
X316000D01*
X315000Y106000D01*
X314000Y107000D01*
X313000D01*
Y106000D01*
X314000Y105000D01*
X313000Y104000D01*
Y103000D01*
X309250Y305500D02*
X310250D01*
X311250Y306500D01*
X312250Y305500D01*
X313250D01*
Y306500D01*
X312250Y307500D01*
X313250Y308500D01*
Y309500D01*
X312250D01*
X311250Y308500D01*
X310250Y309500D01*
X309250D01*
Y308500D01*
X310250Y307500D01*
X309250Y306500D01*
Y305500D01*
X305500Y298000D02*
X306500D01*
X307500Y299000D01*
X308500Y298000D01*
X309500D01*
Y299000D01*
X308500Y300000D01*
X309500Y301000D01*
Y302000D01*
X308500D01*
X307500Y301000D01*
X306500Y302000D01*
X305500D01*
Y301000D01*
X306500Y300000D01*
X305500Y299000D01*
Y298000D01*
X309250Y290500D02*
X310250D01*
X311250Y291500D01*
X312250Y290500D01*
X313250D01*
Y291500D01*
X312250Y292500D01*
X313250Y293500D01*
Y294500D01*
X312250D01*
X311250Y293500D01*
X310250Y294500D01*
X309250D01*
Y293500D01*
X310250Y292500D01*
X309250Y291500D01*
Y290500D01*
X305500Y283000D02*
X306500D01*
X307500Y284000D01*
X308500Y283000D01*
X309500D01*
Y284000D01*
X308500Y285000D01*
X309500Y286000D01*
Y287000D01*
X308500D01*
X307500Y286000D01*
X306500Y287000D01*
X305500D01*
Y286000D01*
X306500Y285000D01*
X305500Y284000D01*
Y283000D01*
X309250Y275500D02*
X310250D01*
X311250Y276500D01*
X312250Y275500D01*
X313250D01*
Y276500D01*
X312250Y277500D01*
X313250Y278500D01*
Y279500D01*
X312250D01*
X311250Y278500D01*
X310250Y279500D01*
X309250D01*
Y278500D01*
X310250Y277500D01*
X309250Y276500D01*
Y275500D01*
X305500Y268000D02*
X306500D01*
X307500Y269000D01*
X308500Y268000D01*
X309500D01*
Y269000D01*
X308500Y270000D01*
X309500Y271000D01*
Y272000D01*
X308500D01*
X307500Y271000D01*
X306500Y272000D01*
X305500D01*
Y271000D01*
X306500Y270000D01*
X305500Y269000D01*
Y268000D01*
X309250Y245500D02*
X310250D01*
X311250Y246500D01*
X312250Y245500D01*
X313250D01*
Y246500D01*
X312250Y247500D01*
X313250Y248500D01*
Y249500D01*
X312250D01*
X311250Y248500D01*
X310250Y249500D01*
X309250D01*
Y248500D01*
X310250Y247500D01*
X309250Y246500D01*
Y245500D01*
X305500Y238000D02*
X306500D01*
X307500Y239000D01*
X308500Y238000D01*
X309500D01*
Y239000D01*
X308500Y240000D01*
X309500Y241000D01*
Y242000D01*
X308500D01*
X307500Y241000D01*
X306500Y242000D01*
X305500D01*
Y241000D01*
X306500Y240000D01*
X305500Y239000D01*
Y238000D01*
X309250Y230500D02*
X310250D01*
X311250Y231500D01*
X312250Y230500D01*
X313250D01*
Y231500D01*
X312250Y232500D01*
X313250Y233500D01*
Y234500D01*
X312250D01*
X311250Y233500D01*
X310250Y234500D01*
X309250D01*
Y233500D01*
X310250Y232500D01*
X309250Y231500D01*
Y230500D01*
X305500Y223000D02*
X306500D01*
X307500Y224000D01*
X308500Y223000D01*
X309500D01*
Y224000D01*
X308500Y225000D01*
X309500Y226000D01*
Y227000D01*
X308500D01*
X307500Y226000D01*
X306500Y227000D01*
X305500D01*
Y226000D01*
X306500Y225000D01*
X305500Y224000D01*
Y223000D01*
X309250Y200500D02*
X310250D01*
X311250Y201500D01*
X312250Y200500D01*
X313250D01*
Y201500D01*
X312250Y202500D01*
X313250Y203500D01*
Y204500D01*
X312250D01*
X311250Y203500D01*
X310250Y204500D01*
X309250D01*
Y203500D01*
X310250Y202500D01*
X309250Y201500D01*
Y200500D01*
X305500Y193000D02*
X306500D01*
X307500Y194000D01*
X308500Y193000D01*
X309500D01*
Y194000D01*
X308500Y195000D01*
X309500Y196000D01*
Y197000D01*
X308500D01*
X307500Y196000D01*
X306500Y197000D01*
X305500D01*
Y196000D01*
X306500Y195000D01*
X305500Y194000D01*
Y193000D01*
X309250Y185500D02*
X310250D01*
X311250Y186500D01*
X312250Y185500D01*
X313250D01*
Y186500D01*
X312250Y187500D01*
X313250Y188500D01*
Y189500D01*
X312250D01*
X311250Y188500D01*
X310250Y189500D01*
X309250D01*
Y188500D01*
X310250Y187500D01*
X309250Y186500D01*
Y185500D01*
X305500Y178000D02*
X306500D01*
X307500Y179000D01*
X308500Y178000D01*
X309500D01*
Y179000D01*
X308500Y180000D01*
X309500Y181000D01*
Y182000D01*
X308500D01*
X307500Y181000D01*
X306500Y182000D01*
X305500D01*
Y181000D01*
X306500Y180000D01*
X305500Y179000D01*
Y178000D01*
X309250Y170500D02*
X310250D01*
X311250Y171500D01*
X312250Y170500D01*
X313250D01*
Y171500D01*
X312250Y172500D01*
X313250Y173500D01*
Y174500D01*
X312250D01*
X311250Y173500D01*
X310250Y174500D01*
X309250D01*
Y173500D01*
X310250Y172500D01*
X309250Y171500D01*
Y170500D01*
X305500Y163000D02*
X306500D01*
X307500Y164000D01*
X308500Y163000D01*
X309500D01*
Y164000D01*
X308500Y165000D01*
X309500Y166000D01*
Y167000D01*
X308500D01*
X307500Y166000D01*
X306500Y167000D01*
X305500D01*
Y166000D01*
X306500Y165000D01*
X305500Y164000D01*
Y163000D01*
X309250Y155500D02*
X310250D01*
X311250Y156500D01*
X312250Y155500D01*
X313250D01*
Y156500D01*
X312250Y157500D01*
X313250Y158500D01*
Y159500D01*
X312250D01*
X311250Y158500D01*
X310250Y159500D01*
X309250D01*
Y158500D01*
X310250Y157500D01*
X309250Y156500D01*
Y155500D01*
X305500Y148000D02*
X306500D01*
X307500Y149000D01*
X308500Y148000D01*
X309500D01*
Y149000D01*
X308500Y150000D01*
X309500Y151000D01*
Y152000D01*
X308500D01*
X307500Y151000D01*
X306500Y152000D01*
X305500D01*
Y151000D01*
X306500Y150000D01*
X305500Y149000D01*
Y148000D01*
X309250Y140500D02*
X310250D01*
X311250Y141500D01*
X312250Y140500D01*
X313250D01*
Y141500D01*
X312250Y142500D01*
X313250Y143500D01*
Y144500D01*
X312250D01*
X311250Y143500D01*
X310250Y144500D01*
X309250D01*
Y143500D01*
X310250Y142500D01*
X309250Y141500D01*
Y140500D01*
X305500Y133000D02*
X306500D01*
X307500Y134000D01*
X308500Y133000D01*
X309500D01*
Y134000D01*
X308500Y135000D01*
X309500Y136000D01*
Y137000D01*
X308500D01*
X307500Y136000D01*
X306500Y137000D01*
X305500D01*
Y136000D01*
X306500Y135000D01*
X305500Y134000D01*
Y133000D01*
X309250Y125500D02*
X310250D01*
X311250Y126500D01*
X312250Y125500D01*
X313250D01*
Y126500D01*
X312250Y127500D01*
X313250Y128500D01*
Y129500D01*
X312250D01*
X311250Y128500D01*
X310250Y129500D01*
X309250D01*
Y128500D01*
X310250Y127500D01*
X309250Y126500D01*
Y125500D01*
X305500Y118000D02*
X306500D01*
X307500Y119000D01*
X308500Y118000D01*
X309500D01*
Y119000D01*
X308500Y120000D01*
X309500Y121000D01*
Y122000D01*
X308500D01*
X307500Y121000D01*
X306500Y122000D01*
X305500D01*
Y121000D01*
X306500Y120000D01*
X305500Y119000D01*
Y118000D01*
X309250Y110500D02*
X310250D01*
X311250Y111500D01*
X312250Y110500D01*
X313250D01*
Y111500D01*
X312250Y112500D01*
X313250Y113500D01*
Y114500D01*
X312250D01*
X311250Y113500D01*
X310250Y114500D01*
X309250D01*
Y113500D01*
X310250Y112500D01*
X309250Y111500D01*
Y110500D01*
X301750Y305500D02*
X302750D01*
X303750Y306500D01*
X304750Y305500D01*
X305750D01*
Y306500D01*
X304750Y307500D01*
X305750Y308500D01*
Y309500D01*
X304750D01*
X303750Y308500D01*
X302750Y309500D01*
X301750D01*
Y308500D01*
X302750Y307500D01*
X301750Y306500D01*
Y305500D01*
X298000Y298000D02*
X299000D01*
X300000Y299000D01*
X301000Y298000D01*
X302000D01*
Y299000D01*
X301000Y300000D01*
X302000Y301000D01*
Y302000D01*
X301000D01*
X300000Y301000D01*
X299000Y302000D01*
X298000D01*
Y301000D01*
X299000Y300000D01*
X298000Y299000D01*
Y298000D01*
X301750Y290500D02*
X302750D01*
X303750Y291500D01*
X304750Y290500D01*
X305750D01*
Y291500D01*
X304750Y292500D01*
X305750Y293500D01*
Y294500D01*
X304750D01*
X303750Y293500D01*
X302750Y294500D01*
X301750D01*
Y293500D01*
X302750Y292500D01*
X301750Y291500D01*
Y290500D01*
X298000Y283000D02*
X299000D01*
X300000Y284000D01*
X301000Y283000D01*
X302000D01*
Y284000D01*
X301000Y285000D01*
X302000Y286000D01*
Y287000D01*
X301000D01*
X300000Y286000D01*
X299000Y287000D01*
X298000D01*
Y286000D01*
X299000Y285000D01*
X298000Y284000D01*
Y283000D01*
X301750Y275500D02*
X302750D01*
X303750Y276500D01*
X304750Y275500D01*
X305750D01*
Y276500D01*
X304750Y277500D01*
X305750Y278500D01*
Y279500D01*
X304750D01*
X303750Y278500D01*
X302750Y279500D01*
X301750D01*
Y278500D01*
X302750Y277500D01*
X301750Y276500D01*
Y275500D01*
X298000Y268000D02*
X299000D01*
X300000Y269000D01*
X301000Y268000D01*
X302000D01*
Y269000D01*
X301000Y270000D01*
X302000Y271000D01*
Y272000D01*
X301000D01*
X300000Y271000D01*
X299000Y272000D01*
X298000D01*
Y271000D01*
X299000Y270000D01*
X298000Y269000D01*
Y268000D01*
X301750Y260500D02*
X302750D01*
X303750Y261500D01*
X304750Y260500D01*
X305750D01*
Y261500D01*
X304750Y262500D01*
X305750Y263500D01*
Y264500D01*
X304750D01*
X303750Y263500D01*
X302750Y264500D01*
X301750D01*
Y263500D01*
X302750Y262500D01*
X301750Y261500D01*
Y260500D01*
X298000Y253000D02*
X299000D01*
X300000Y254000D01*
X301000Y253000D01*
X302000D01*
Y254000D01*
X301000Y255000D01*
X302000Y256000D01*
Y257000D01*
X301000D01*
X300000Y256000D01*
X299000Y257000D01*
X298000D01*
Y256000D01*
X299000Y255000D01*
X298000Y254000D01*
Y253000D01*
X301750Y185500D02*
X302750D01*
X303750Y186500D01*
X304750Y185500D01*
X305750D01*
Y186500D01*
X304750Y187500D01*
X305750Y188500D01*
Y189500D01*
X304750D01*
X303750Y188500D01*
X302750Y189500D01*
X301750D01*
Y188500D01*
X302750Y187500D01*
X301750Y186500D01*
Y185500D01*
X298000Y163000D02*
X299000D01*
X300000Y164000D01*
X301000Y163000D01*
X302000D01*
Y164000D01*
X301000Y165000D01*
X302000Y166000D01*
Y167000D01*
X301000D01*
X300000Y166000D01*
X299000Y167000D01*
X298000D01*
Y166000D01*
X299000Y165000D01*
X298000Y164000D01*
Y163000D01*
X301750Y155500D02*
X302750D01*
X303750Y156500D01*
X304750Y155500D01*
X305750D01*
Y156500D01*
X304750Y157500D01*
X305750Y158500D01*
Y159500D01*
X304750D01*
X303750Y158500D01*
X302750Y159500D01*
X301750D01*
Y158500D01*
X302750Y157500D01*
X301750Y156500D01*
Y155500D01*
Y140500D02*
X302750D01*
X303750Y141500D01*
X304750Y140500D01*
X305750D01*
Y141500D01*
X304750Y142500D01*
X305750Y143500D01*
Y144500D01*
X304750D01*
X303750Y143500D01*
X302750Y144500D01*
X301750D01*
Y143500D01*
X302750Y142500D01*
X301750Y141500D01*
Y140500D01*
Y125500D02*
X302750D01*
X303750Y126500D01*
X304750Y125500D01*
X305750D01*
Y126500D01*
X304750Y127500D01*
X305750Y128500D01*
Y129500D01*
X304750D01*
X303750Y128500D01*
X302750Y129500D01*
X301750D01*
Y128500D01*
X302750Y127500D01*
X301750Y126500D01*
Y125500D01*
X298000Y103000D02*
X299000D01*
X300000Y104000D01*
X301000Y103000D01*
X302000D01*
Y104000D01*
X301000Y105000D01*
X302000Y106000D01*
Y107000D01*
X301000D01*
X300000Y106000D01*
X299000Y107000D01*
X298000D01*
Y106000D01*
X299000Y105000D01*
X298000Y104000D01*
Y103000D01*
X290500Y283000D02*
X291500D01*
X292500Y284000D01*
X293500Y283000D01*
X294500D01*
Y284000D01*
X293500Y285000D01*
X294500Y286000D01*
Y287000D01*
X293500D01*
X292500Y286000D01*
X291500Y287000D01*
X290500D01*
Y286000D01*
X291500Y285000D01*
X290500Y284000D01*
Y283000D01*
Y268000D02*
X291500D01*
X292500Y269000D01*
X293500Y268000D01*
X294500D01*
Y269000D01*
X293500Y270000D01*
X294500Y271000D01*
Y272000D01*
X293500D01*
X292500Y271000D01*
X291500Y272000D01*
X290500D01*
Y271000D01*
X291500Y270000D01*
X290500Y269000D01*
Y268000D01*
Y253000D02*
X291500D01*
X292500Y254000D01*
X293500Y253000D01*
X294500D01*
Y254000D01*
X293500Y255000D01*
X294500Y256000D01*
Y257000D01*
X293500D01*
X292500Y256000D01*
X291500Y257000D01*
X290500D01*
Y256000D01*
X291500Y255000D01*
X290500Y254000D01*
Y253000D01*
Y208000D02*
X291500D01*
X292500Y209000D01*
X293500Y208000D01*
X294500D01*
Y209000D01*
X293500Y210000D01*
X294500Y211000D01*
Y212000D01*
X293500D01*
X292500Y211000D01*
X291500Y212000D01*
X290500D01*
Y211000D01*
X291500Y210000D01*
X290500Y209000D01*
Y208000D01*
Y178000D02*
X291500D01*
X292500Y179000D01*
X293500Y178000D01*
X294500D01*
Y179000D01*
X293500Y180000D01*
X294500Y181000D01*
Y182000D01*
X293500D01*
X292500Y181000D01*
X291500Y182000D01*
X290500D01*
Y181000D01*
X291500Y180000D01*
X290500Y179000D01*
Y178000D01*
Y163000D02*
X291500D01*
X292500Y164000D01*
X293500Y163000D01*
X294500D01*
Y164000D01*
X293500Y165000D01*
X294500Y166000D01*
Y167000D01*
X293500D01*
X292500Y166000D01*
X291500Y167000D01*
X290500D01*
Y166000D01*
X291500Y165000D01*
X290500Y164000D01*
Y163000D01*
Y148000D02*
X291500D01*
X292500Y149000D01*
X293500Y148000D01*
X294500D01*
Y149000D01*
X293500Y150000D01*
X294500Y151000D01*
Y152000D01*
X293500D01*
X292500Y151000D01*
X291500Y152000D01*
X290500D01*
Y151000D01*
X291500Y150000D01*
X290500Y149000D01*
Y148000D01*
X294250Y140500D02*
X295250D01*
X296250Y141500D01*
X297250Y140500D01*
X298250D01*
Y141500D01*
X297250Y142500D01*
X298250Y143500D01*
Y144500D01*
X297250D01*
X296250Y143500D01*
X295250Y144500D01*
X294250D01*
Y143500D01*
X295250Y142500D01*
X294250Y141500D01*
Y140500D01*
X290500Y133000D02*
X291500D01*
X292500Y134000D01*
X293500Y133000D01*
X294500D01*
Y134000D01*
X293500Y135000D01*
X294500Y136000D01*
Y137000D01*
X293500D01*
X292500Y136000D01*
X291500Y137000D01*
X290500D01*
Y136000D01*
X291500Y135000D01*
X290500Y134000D01*
Y133000D01*
Y118000D02*
X291500D01*
X292500Y119000D01*
X293500Y118000D01*
X294500D01*
Y119000D01*
X293500Y120000D01*
X294500Y121000D01*
Y122000D01*
X293500D01*
X292500Y121000D01*
X291500Y122000D01*
X290500D01*
Y121000D01*
X291500Y120000D01*
X290500Y119000D01*
Y118000D01*
X286750Y290500D02*
X287750D01*
X288750Y291500D01*
X289750Y290500D01*
X290750D01*
Y291500D01*
X289750Y292500D01*
X290750Y293500D01*
Y294500D01*
X289750D01*
X288750Y293500D01*
X287750Y294500D01*
X286750D01*
Y293500D01*
X287750Y292500D01*
X286750Y291500D01*
Y290500D01*
Y275500D02*
X287750D01*
X288750Y276500D01*
X289750Y275500D01*
X290750D01*
Y276500D01*
X289750Y277500D01*
X290750Y278500D01*
Y279500D01*
X289750D01*
X288750Y278500D01*
X287750Y279500D01*
X286750D01*
Y278500D01*
X287750Y277500D01*
X286750Y276500D01*
Y275500D01*
Y260500D02*
X287750D01*
X288750Y261500D01*
X289750Y260500D01*
X290750D01*
Y261500D01*
X289750Y262500D01*
X290750Y263500D01*
Y264500D01*
X289750D01*
X288750Y263500D01*
X287750Y264500D01*
X286750D01*
Y263500D01*
X287750Y262500D01*
X286750Y261500D01*
Y260500D01*
X283000Y208000D02*
X284000D01*
X285000Y209000D01*
X286000Y208000D01*
X287000D01*
Y209000D01*
X286000Y210000D01*
X287000Y211000D01*
Y212000D01*
X286000D01*
X285000Y211000D01*
X284000Y212000D01*
X283000D01*
Y211000D01*
X284000Y210000D01*
X283000Y209000D01*
Y208000D01*
X286750Y185500D02*
X287750D01*
X288750Y186500D01*
X289750Y185500D01*
X290750D01*
Y186500D01*
X289750Y187500D01*
X290750Y188500D01*
Y189500D01*
X289750D01*
X288750Y188500D01*
X287750Y189500D01*
X286750D01*
Y188500D01*
X287750Y187500D01*
X286750Y186500D01*
Y185500D01*
X283000Y178000D02*
X284000D01*
X285000Y179000D01*
X286000Y178000D01*
X287000D01*
Y179000D01*
X286000Y180000D01*
X287000Y181000D01*
Y182000D01*
X286000D01*
X285000Y181000D01*
X284000Y182000D01*
X283000D01*
Y181000D01*
X284000Y180000D01*
X283000Y179000D01*
Y178000D01*
Y163000D02*
X284000D01*
X285000Y164000D01*
X286000Y163000D01*
X287000D01*
Y164000D01*
X286000Y165000D01*
X287000Y166000D01*
Y167000D01*
X286000D01*
X285000Y166000D01*
X284000Y167000D01*
X283000D01*
Y166000D01*
X284000Y165000D01*
X283000Y164000D01*
Y163000D01*
X286750Y155500D02*
X287750D01*
X288750Y156500D01*
X289750Y155500D01*
X290750D01*
Y156500D01*
X289750Y157500D01*
X290750Y158500D01*
Y159500D01*
X289750D01*
X288750Y158500D01*
X287750Y159500D01*
X286750D01*
Y158500D01*
X287750Y157500D01*
X286750Y156500D01*
Y155500D01*
X283000Y148000D02*
X284000D01*
X285000Y149000D01*
X286000Y148000D01*
X287000D01*
Y149000D01*
X286000Y150000D01*
X287000Y151000D01*
Y152000D01*
X286000D01*
X285000Y151000D01*
X284000Y152000D01*
X283000D01*
Y151000D01*
X284000Y150000D01*
X283000Y149000D01*
Y148000D01*
X286750Y140500D02*
X287750D01*
X288750Y141500D01*
X289750Y140500D01*
X290750D01*
Y141500D01*
X289750Y142500D01*
X290750Y143500D01*
Y144500D01*
X289750D01*
X288750Y143500D01*
X287750Y144500D01*
X286750D01*
Y143500D01*
X287750Y142500D01*
X286750Y141500D01*
Y140500D01*
X283000Y133000D02*
X284000D01*
X285000Y134000D01*
X286000Y133000D01*
X287000D01*
Y134000D01*
X286000Y135000D01*
X287000Y136000D01*
Y137000D01*
X286000D01*
X285000Y136000D01*
X284000Y137000D01*
X283000D01*
Y136000D01*
X284000Y135000D01*
X283000Y134000D01*
Y133000D01*
X286750Y125500D02*
X287750D01*
X288750Y126500D01*
X289750Y125500D01*
X290750D01*
Y126500D01*
X289750Y127500D01*
X290750Y128500D01*
Y129500D01*
X289750D01*
X288750Y128500D01*
X287750Y129500D01*
X286750D01*
Y128500D01*
X287750Y127500D01*
X286750Y126500D01*
Y125500D01*
X283000Y118000D02*
X284000D01*
X285000Y119000D01*
X286000Y118000D01*
X287000D01*
Y119000D01*
X286000Y120000D01*
X287000Y121000D01*
Y122000D01*
X286000D01*
X285000Y121000D01*
X284000Y122000D01*
X283000D01*
Y121000D01*
X284000Y120000D01*
X283000Y119000D01*
Y118000D01*
X286750Y110500D02*
X287750D01*
X288750Y111500D01*
X289750Y110500D01*
X290750D01*
Y111500D01*
X289750Y112500D01*
X290750Y113500D01*
Y114500D01*
X289750D01*
X288750Y113500D01*
X287750Y114500D01*
X286750D01*
Y113500D01*
X287750Y112500D01*
X286750Y111500D01*
Y110500D01*
X283000Y103000D02*
X284000D01*
X285000Y104000D01*
X286000Y103000D01*
X287000D01*
Y104000D01*
X286000Y105000D01*
X287000Y106000D01*
Y107000D01*
X286000D01*
X285000Y106000D01*
X284000Y107000D01*
X283000D01*
Y106000D01*
X284000Y105000D01*
X283000Y104000D01*
Y103000D01*
X279250Y305500D02*
X280250D01*
X281250Y306500D01*
X282250Y305500D01*
X283250D01*
Y306500D01*
X282250Y307500D01*
X283250Y308500D01*
Y309500D01*
X282250D01*
X281250Y308500D01*
X280250Y309500D01*
X279250D01*
Y308500D01*
X280250Y307500D01*
X279250Y306500D01*
Y305500D01*
X275500Y298000D02*
X276500D01*
X277500Y299000D01*
X278500Y298000D01*
X279500D01*
Y299000D01*
X278500Y300000D01*
X279500Y301000D01*
Y302000D01*
X278500D01*
X277500Y301000D01*
X276500Y302000D01*
X275500D01*
Y301000D01*
X276500Y300000D01*
X275500Y299000D01*
Y298000D01*
X279250Y290500D02*
X280250D01*
X281250Y291500D01*
X282250Y290500D01*
X283250D01*
Y291500D01*
X282250Y292500D01*
X283250Y293500D01*
Y294500D01*
X282250D01*
X281250Y293500D01*
X280250Y294500D01*
X279250D01*
Y293500D01*
X280250Y292500D01*
X279250Y291500D01*
Y290500D01*
X275500Y283000D02*
X276500D01*
X277500Y284000D01*
X278500Y283000D01*
X279500D01*
Y284000D01*
X278500Y285000D01*
X279500Y286000D01*
Y287000D01*
X278500D01*
X277500Y286000D01*
X276500Y287000D01*
X275500D01*
Y286000D01*
X276500Y285000D01*
X275500Y284000D01*
Y283000D01*
X279250Y275500D02*
X280250D01*
X281250Y276500D01*
X282250Y275500D01*
X283250D01*
Y276500D01*
X282250Y277500D01*
X283250Y278500D01*
Y279500D01*
X282250D01*
X281250Y278500D01*
X280250Y279500D01*
X279250D01*
Y278500D01*
X280250Y277500D01*
X279250Y276500D01*
Y275500D01*
X275500Y268000D02*
X276500D01*
X277500Y269000D01*
X278500Y268000D01*
X279500D01*
Y269000D01*
X278500Y270000D01*
X279500Y271000D01*
Y272000D01*
X278500D01*
X277500Y271000D01*
X276500Y272000D01*
X275500D01*
Y271000D01*
X276500Y270000D01*
X275500Y269000D01*
Y268000D01*
X279250Y260500D02*
X280250D01*
X281250Y261500D01*
X282250Y260500D01*
X283250D01*
Y261500D01*
X282250Y262500D01*
X283250Y263500D01*
Y264500D01*
X282250D01*
X281250Y263500D01*
X280250Y264500D01*
X279250D01*
Y263500D01*
X280250Y262500D01*
X279250Y261500D01*
Y260500D01*
X275500Y253000D02*
X276500D01*
X277500Y254000D01*
X278500Y253000D01*
X279500D01*
Y254000D01*
X278500Y255000D01*
X279500Y256000D01*
Y257000D01*
X278500D01*
X277500Y256000D01*
X276500Y257000D01*
X275500D01*
Y256000D01*
X276500Y255000D01*
X275500Y254000D01*
Y253000D01*
X279250Y245500D02*
X280250D01*
X281250Y246500D01*
X282250Y245500D01*
X283250D01*
Y246500D01*
X282250Y247500D01*
X283250Y248500D01*
Y249500D01*
X282250D01*
X281250Y248500D01*
X280250Y249500D01*
X279250D01*
Y248500D01*
X280250Y247500D01*
X279250Y246500D01*
Y245500D01*
X275500Y238000D02*
X276500D01*
X277500Y239000D01*
X278500Y238000D01*
X279500D01*
Y239000D01*
X278500Y240000D01*
X279500Y241000D01*
Y242000D01*
X278500D01*
X277500Y241000D01*
X276500Y242000D01*
X275500D01*
Y241000D01*
X276500Y240000D01*
X275500Y239000D01*
Y238000D01*
Y223000D02*
X276500D01*
X277500Y224000D01*
X278500Y223000D01*
X279500D01*
Y224000D01*
X278500Y225000D01*
X279500Y226000D01*
Y227000D01*
X278500D01*
X277500Y226000D01*
X276500Y227000D01*
X275500D01*
Y226000D01*
X276500Y225000D01*
X275500Y224000D01*
Y223000D01*
Y208000D02*
X276500D01*
X277500Y209000D01*
X278500Y208000D01*
X279500D01*
Y209000D01*
X278500Y210000D01*
X279500Y211000D01*
Y212000D01*
X278500D01*
X277500Y211000D01*
X276500Y212000D01*
X275500D01*
Y211000D01*
X276500Y210000D01*
X275500Y209000D01*
Y208000D01*
Y193000D02*
X276500D01*
X277500Y194000D01*
X278500Y193000D01*
X279500D01*
Y194000D01*
X278500Y195000D01*
X279500Y196000D01*
Y197000D01*
X278500D01*
X277500Y196000D01*
X276500Y197000D01*
X275500D01*
Y196000D01*
X276500Y195000D01*
X275500Y194000D01*
Y193000D01*
X279250Y185500D02*
X280250D01*
X281250Y186500D01*
X282250Y185500D01*
X283250D01*
Y186500D01*
X282250Y187500D01*
X283250Y188500D01*
Y189500D01*
X282250D01*
X281250Y188500D01*
X280250Y189500D01*
X279250D01*
Y188500D01*
X280250Y187500D01*
X279250Y186500D01*
Y185500D01*
X275500Y178000D02*
X276500D01*
X277500Y179000D01*
X278500Y178000D01*
X279500D01*
Y179000D01*
X278500Y180000D01*
X279500Y181000D01*
Y182000D01*
X278500D01*
X277500Y181000D01*
X276500Y182000D01*
X275500D01*
Y181000D01*
X276500Y180000D01*
X275500Y179000D01*
Y178000D01*
X279250Y170500D02*
X280250D01*
X281250Y171500D01*
X282250Y170500D01*
X283250D01*
Y171500D01*
X282250Y172500D01*
X283250Y173500D01*
Y174500D01*
X282250D01*
X281250Y173500D01*
X280250Y174500D01*
X279250D01*
Y173500D01*
X280250Y172500D01*
X279250Y171500D01*
Y170500D01*
X275500Y163000D02*
X276500D01*
X277500Y164000D01*
X278500Y163000D01*
X279500D01*
Y164000D01*
X278500Y165000D01*
X279500Y166000D01*
Y167000D01*
X278500D01*
X277500Y166000D01*
X276500Y167000D01*
X275500D01*
Y166000D01*
X276500Y165000D01*
X275500Y164000D01*
Y163000D01*
X279250Y155500D02*
X280250D01*
X281250Y156500D01*
X282250Y155500D01*
X283250D01*
Y156500D01*
X282250Y157500D01*
X283250Y158500D01*
Y159500D01*
X282250D01*
X281250Y158500D01*
X280250Y159500D01*
X279250D01*
Y158500D01*
X280250Y157500D01*
X279250Y156500D01*
Y155500D01*
X275500Y148000D02*
X276500D01*
X277500Y149000D01*
X278500Y148000D01*
X279500D01*
Y149000D01*
X278500Y150000D01*
X279500Y151000D01*
Y152000D01*
X278500D01*
X277500Y151000D01*
X276500Y152000D01*
X275500D01*
Y151000D01*
X276500Y150000D01*
X275500Y149000D01*
Y148000D01*
X279250Y140500D02*
X280250D01*
X281250Y141500D01*
X282250Y140500D01*
X283250D01*
Y141500D01*
X282250Y142500D01*
X283250Y143500D01*
Y144500D01*
X282250D01*
X281250Y143500D01*
X280250Y144500D01*
X279250D01*
Y143500D01*
X280250Y142500D01*
X279250Y141500D01*
Y140500D01*
X275500Y133000D02*
X276500D01*
X277500Y134000D01*
X278500Y133000D01*
X279500D01*
Y134000D01*
X278500Y135000D01*
X279500Y136000D01*
Y137000D01*
X278500D01*
X277500Y136000D01*
X276500Y137000D01*
X275500D01*
Y136000D01*
X276500Y135000D01*
X275500Y134000D01*
Y133000D01*
X279250Y125500D02*
X280250D01*
X281250Y126500D01*
X282250Y125500D01*
X283250D01*
Y126500D01*
X282250Y127500D01*
X283250Y128500D01*
Y129500D01*
X282250D01*
X281250Y128500D01*
X280250Y129500D01*
X279250D01*
Y128500D01*
X280250Y127500D01*
X279250Y126500D01*
Y125500D01*
X275500Y118000D02*
X276500D01*
X277500Y119000D01*
X278500Y118000D01*
X279500D01*
Y119000D01*
X278500Y120000D01*
X279500Y121000D01*
Y122000D01*
X278500D01*
X277500Y121000D01*
X276500Y122000D01*
X275500D01*
Y121000D01*
X276500Y120000D01*
X275500Y119000D01*
Y118000D01*
X279250Y110500D02*
X280250D01*
X281250Y111500D01*
X282250Y110500D01*
X283250D01*
Y111500D01*
X282250Y112500D01*
X283250Y113500D01*
Y114500D01*
X282250D01*
X281250Y113500D01*
X280250Y114500D01*
X279250D01*
Y113500D01*
X280250Y112500D01*
X279250Y111500D01*
Y110500D01*
X275500Y103000D02*
X276500D01*
X277500Y104000D01*
X278500Y103000D01*
X279500D01*
Y104000D01*
X278500Y105000D01*
X279500Y106000D01*
Y107000D01*
X278500D01*
X277500Y106000D01*
X276500Y107000D01*
X275500D01*
Y106000D01*
X276500Y105000D01*
X275500Y104000D01*
Y103000D01*
X268000Y298000D02*
X269000D01*
X270000Y299000D01*
X271000Y298000D01*
X272000D01*
Y299000D01*
X271000Y300000D01*
X272000Y301000D01*
Y302000D01*
X271000D01*
X270000Y301000D01*
X269000Y302000D01*
X268000D01*
Y301000D01*
X269000Y300000D01*
X268000Y299000D01*
Y298000D01*
X271750Y290500D02*
X272750D01*
X273750Y291500D01*
X274750Y290500D01*
X275750D01*
Y291500D01*
X274750Y292500D01*
X275750Y293500D01*
Y294500D01*
X274750D01*
X273750Y293500D01*
X272750Y294500D01*
X271750D01*
Y293500D01*
X272750Y292500D01*
X271750Y291500D01*
Y290500D01*
X268000Y283000D02*
X269000D01*
X270000Y284000D01*
X271000Y283000D01*
X272000D01*
Y284000D01*
X271000Y285000D01*
X272000Y286000D01*
Y287000D01*
X271000D01*
X270000Y286000D01*
X269000Y287000D01*
X268000D01*
Y286000D01*
X269000Y285000D01*
X268000Y284000D01*
Y283000D01*
X271750Y275500D02*
X272750D01*
X273750Y276500D01*
X274750Y275500D01*
X275750D01*
Y276500D01*
X274750Y277500D01*
X275750Y278500D01*
Y279500D01*
X274750D01*
X273750Y278500D01*
X272750Y279500D01*
X271750D01*
Y278500D01*
X272750Y277500D01*
X271750Y276500D01*
Y275500D01*
X268000Y268000D02*
X269000D01*
X270000Y269000D01*
X271000Y268000D01*
X272000D01*
Y269000D01*
X271000Y270000D01*
X272000Y271000D01*
Y272000D01*
X271000D01*
X270000Y271000D01*
X269000Y272000D01*
X268000D01*
Y271000D01*
X269000Y270000D01*
X268000Y269000D01*
Y268000D01*
X271750Y260500D02*
X272750D01*
X273750Y261500D01*
X274750Y260500D01*
X275750D01*
Y261500D01*
X274750Y262500D01*
X275750Y263500D01*
Y264500D01*
X274750D01*
X273750Y263500D01*
X272750Y264500D01*
X271750D01*
Y263500D01*
X272750Y262500D01*
X271750Y261500D01*
Y260500D01*
X268000Y253000D02*
X269000D01*
X270000Y254000D01*
X271000Y253000D01*
X272000D01*
Y254000D01*
X271000Y255000D01*
X272000Y256000D01*
Y257000D01*
X271000D01*
X270000Y256000D01*
X269000Y257000D01*
X268000D01*
Y256000D01*
X269000Y255000D01*
X268000Y254000D01*
Y253000D01*
X271750Y245500D02*
X272750D01*
X273750Y246500D01*
X274750Y245500D01*
X275750D01*
Y246500D01*
X274750Y247500D01*
X275750Y248500D01*
Y249500D01*
X274750D01*
X273750Y248500D01*
X272750Y249500D01*
X271750D01*
Y248500D01*
X272750Y247500D01*
X271750Y246500D01*
Y245500D01*
X268000Y238000D02*
X269000D01*
X270000Y239000D01*
X271000Y238000D01*
X272000D01*
Y239000D01*
X271000Y240000D01*
X272000Y241000D01*
Y242000D01*
X271000D01*
X270000Y241000D01*
X269000Y242000D01*
X268000D01*
Y241000D01*
X269000Y240000D01*
X268000Y239000D01*
Y238000D01*
Y223000D02*
X269000D01*
X270000Y224000D01*
X271000Y223000D01*
X272000D01*
Y224000D01*
X271000Y225000D01*
X272000Y226000D01*
Y227000D01*
X271000D01*
X270000Y226000D01*
X269000Y227000D01*
X268000D01*
Y226000D01*
X269000Y225000D01*
X268000Y224000D01*
Y223000D01*
X271750Y215500D02*
X272750D01*
X273750Y216500D01*
X274750Y215500D01*
X275750D01*
Y216500D01*
X274750Y217500D01*
X275750Y218500D01*
Y219500D01*
X274750D01*
X273750Y218500D01*
X272750Y219500D01*
X271750D01*
Y218500D01*
X272750Y217500D01*
X271750Y216500D01*
Y215500D01*
X268000Y208000D02*
X269000D01*
X270000Y209000D01*
X271000Y208000D01*
X272000D01*
Y209000D01*
X271000Y210000D01*
X272000Y211000D01*
Y212000D01*
X271000D01*
X270000Y211000D01*
X269000Y212000D01*
X268000D01*
Y211000D01*
X269000Y210000D01*
X268000Y209000D01*
Y208000D01*
X271750Y200500D02*
X272750D01*
X273750Y201500D01*
X274750Y200500D01*
X275750D01*
Y201500D01*
X274750Y202500D01*
X275750Y203500D01*
Y204500D01*
X274750D01*
X273750Y203500D01*
X272750Y204500D01*
X271750D01*
Y203500D01*
X272750Y202500D01*
X271750Y201500D01*
Y200500D01*
Y185500D02*
X272750D01*
X273750Y186500D01*
X274750Y185500D01*
X275750D01*
Y186500D01*
X274750Y187500D01*
X275750Y188500D01*
Y189500D01*
X274750D01*
X273750Y188500D01*
X272750Y189500D01*
X271750D01*
Y188500D01*
X272750Y187500D01*
X271750Y186500D01*
Y185500D01*
X268000Y178000D02*
X269000D01*
X270000Y179000D01*
X271000Y178000D01*
X272000D01*
Y179000D01*
X271000Y180000D01*
X272000Y181000D01*
Y182000D01*
X271000D01*
X270000Y181000D01*
X269000Y182000D01*
X268000D01*
Y181000D01*
X269000Y180000D01*
X268000Y179000D01*
Y178000D01*
Y163000D02*
X269000D01*
X270000Y164000D01*
X271000Y163000D01*
X272000D01*
Y164000D01*
X271000Y165000D01*
X272000Y166000D01*
Y167000D01*
X271000D01*
X270000Y166000D01*
X269000Y167000D01*
X268000D01*
Y166000D01*
X269000Y165000D01*
X268000Y164000D01*
Y163000D01*
X271750Y155500D02*
X272750D01*
X273750Y156500D01*
X274750Y155500D01*
X275750D01*
Y156500D01*
X274750Y157500D01*
X275750Y158500D01*
Y159500D01*
X274750D01*
X273750Y158500D01*
X272750Y159500D01*
X271750D01*
Y158500D01*
X272750Y157500D01*
X271750Y156500D01*
Y155500D01*
X268000Y148000D02*
X269000D01*
X270000Y149000D01*
X271000Y148000D01*
X272000D01*
Y149000D01*
X271000Y150000D01*
X272000Y151000D01*
Y152000D01*
X271000D01*
X270000Y151000D01*
X269000Y152000D01*
X268000D01*
Y151000D01*
X269000Y150000D01*
X268000Y149000D01*
Y148000D01*
X271750Y140500D02*
X272750D01*
X273750Y141500D01*
X274750Y140500D01*
X275750D01*
Y141500D01*
X274750Y142500D01*
X275750Y143500D01*
Y144500D01*
X274750D01*
X273750Y143500D01*
X272750Y144500D01*
X271750D01*
Y143500D01*
X272750Y142500D01*
X271750Y141500D01*
Y140500D01*
Y125500D02*
X272750D01*
X273750Y126500D01*
X274750Y125500D01*
X275750D01*
Y126500D01*
X274750Y127500D01*
X275750Y128500D01*
Y129500D01*
X274750D01*
X273750Y128500D01*
X272750Y129500D01*
X271750D01*
Y128500D01*
X272750Y127500D01*
X271750Y126500D01*
Y125500D01*
X268000Y118000D02*
X269000D01*
X270000Y119000D01*
X271000Y118000D01*
X272000D01*
Y119000D01*
X271000Y120000D01*
X272000Y121000D01*
Y122000D01*
X271000D01*
X270000Y121000D01*
X269000Y122000D01*
X268000D01*
Y121000D01*
X269000Y120000D01*
X268000Y119000D01*
Y118000D01*
X271750Y110500D02*
X272750D01*
X273750Y111500D01*
X274750Y110500D01*
X275750D01*
Y111500D01*
X274750Y112500D01*
X275750Y113500D01*
Y114500D01*
X274750D01*
X273750Y113500D01*
X272750Y114500D01*
X271750D01*
Y113500D01*
X272750Y112500D01*
X271750Y111500D01*
Y110500D01*
X268000Y103000D02*
X269000D01*
X270000Y104000D01*
X271000Y103000D01*
X272000D01*
Y104000D01*
X271000Y105000D01*
X272000Y106000D01*
Y107000D01*
X271000D01*
X270000Y106000D01*
X269000Y107000D01*
X268000D01*
Y106000D01*
X269000Y105000D01*
X268000Y104000D01*
Y103000D01*
X260500Y298000D02*
X261500D01*
X262500Y299000D01*
X263500Y298000D01*
X264500D01*
Y299000D01*
X263500Y300000D01*
X264500Y301000D01*
Y302000D01*
X263500D01*
X262500Y301000D01*
X261500Y302000D01*
X260500D01*
Y301000D01*
X261500Y300000D01*
X260500Y299000D01*
Y298000D01*
Y283000D02*
X261500D01*
X262500Y284000D01*
X263500Y283000D01*
X264500D01*
Y284000D01*
X263500Y285000D01*
X264500Y286000D01*
Y287000D01*
X263500D01*
X262500Y286000D01*
X261500Y287000D01*
X260500D01*
Y286000D01*
X261500Y285000D01*
X260500Y284000D01*
Y283000D01*
X264250Y275500D02*
X265250D01*
X266250Y276500D01*
X267250Y275500D01*
X268250D01*
Y276500D01*
X267250Y277500D01*
X268250Y278500D01*
Y279500D01*
X267250D01*
X266250Y278500D01*
X265250Y279500D01*
X264250D01*
Y278500D01*
X265250Y277500D01*
X264250Y276500D01*
Y275500D01*
X260500Y268000D02*
X261500D01*
X262500Y269000D01*
X263500Y268000D01*
X264500D01*
Y269000D01*
X263500Y270000D01*
X264500Y271000D01*
Y272000D01*
X263500D01*
X262500Y271000D01*
X261500Y272000D01*
X260500D01*
Y271000D01*
X261500Y270000D01*
X260500Y269000D01*
Y268000D01*
X264250Y260500D02*
X265250D01*
X266250Y261500D01*
X267250Y260500D01*
X268250D01*
Y261500D01*
X267250Y262500D01*
X268250Y263500D01*
Y264500D01*
X267250D01*
X266250Y263500D01*
X265250Y264500D01*
X264250D01*
Y263500D01*
X265250Y262500D01*
X264250Y261500D01*
Y260500D01*
X260500Y253000D02*
X261500D01*
X262500Y254000D01*
X263500Y253000D01*
X264500D01*
Y254000D01*
X263500Y255000D01*
X264500Y256000D01*
Y257000D01*
X263500D01*
X262500Y256000D01*
X261500Y257000D01*
X260500D01*
Y256000D01*
X261500Y255000D01*
X260500Y254000D01*
Y253000D01*
X264250Y245500D02*
X265250D01*
X266250Y246500D01*
X267250Y245500D01*
X268250D01*
Y246500D01*
X267250Y247500D01*
X268250Y248500D01*
Y249500D01*
X267250D01*
X266250Y248500D01*
X265250Y249500D01*
X264250D01*
Y248500D01*
X265250Y247500D01*
X264250Y246500D01*
Y245500D01*
Y230500D02*
X265250D01*
X266250Y231500D01*
X267250Y230500D01*
X268250D01*
Y231500D01*
X267250Y232500D01*
X268250Y233500D01*
Y234500D01*
X267250D01*
X266250Y233500D01*
X265250Y234500D01*
X264250D01*
Y233500D01*
X265250Y232500D01*
X264250Y231500D01*
Y230500D01*
Y185500D02*
X265250D01*
X266250Y186500D01*
X267250Y185500D01*
X268250D01*
Y186500D01*
X267250Y187500D01*
X268250Y188500D01*
Y189500D01*
X267250D01*
X266250Y188500D01*
X265250Y189500D01*
X264250D01*
Y188500D01*
X265250Y187500D01*
X264250Y186500D01*
Y185500D01*
Y155500D02*
X265250D01*
X266250Y156500D01*
X267250Y155500D01*
X268250D01*
Y156500D01*
X267250Y157500D01*
X268250Y158500D01*
Y159500D01*
X267250D01*
X266250Y158500D01*
X265250Y159500D01*
X264250D01*
Y158500D01*
X265250Y157500D01*
X264250Y156500D01*
Y155500D01*
X260500Y118000D02*
X261500D01*
X262500Y119000D01*
X263500Y118000D01*
X264500D01*
Y119000D01*
X263500Y120000D01*
X264500Y121000D01*
Y122000D01*
X263500D01*
X262500Y121000D01*
X261500Y122000D01*
X260500D01*
Y121000D01*
X261500Y120000D01*
X260500Y119000D01*
Y118000D01*
X264250Y110500D02*
X265250D01*
X266250Y111500D01*
X267250Y110500D01*
X268250D01*
Y111500D01*
X267250Y112500D01*
X268250Y113500D01*
Y114500D01*
X267250D01*
X266250Y113500D01*
X265250Y114500D01*
X264250D01*
Y113500D01*
X265250Y112500D01*
X264250Y111500D01*
Y110500D01*
X260500Y103000D02*
X261500D01*
X262500Y104000D01*
X263500Y103000D01*
X264500D01*
Y104000D01*
X263500Y105000D01*
X264500Y106000D01*
Y107000D01*
X263500D01*
X262500Y106000D01*
X261500Y107000D01*
X260500D01*
Y106000D01*
X261500Y105000D01*
X260500Y104000D01*
Y103000D01*
X256750Y305500D02*
X257750D01*
X258750Y306500D01*
X259750Y305500D01*
X260750D01*
Y306500D01*
X259750Y307500D01*
X260750Y308500D01*
Y309500D01*
X259750D01*
X258750Y308500D01*
X257750Y309500D01*
X256750D01*
Y308500D01*
X257750Y307500D01*
X256750Y306500D01*
Y305500D01*
X253000Y298000D02*
X254000D01*
X255000Y299000D01*
X256000Y298000D01*
X257000D01*
Y299000D01*
X256000Y300000D01*
X257000Y301000D01*
Y302000D01*
X256000D01*
X255000Y301000D01*
X254000Y302000D01*
X253000D01*
Y301000D01*
X254000Y300000D01*
X253000Y299000D01*
Y298000D01*
X256750Y290500D02*
X257750D01*
X258750Y291500D01*
X259750Y290500D01*
X260750D01*
Y291500D01*
X259750Y292500D01*
X260750Y293500D01*
Y294500D01*
X259750D01*
X258750Y293500D01*
X257750Y294500D01*
X256750D01*
Y293500D01*
X257750Y292500D01*
X256750Y291500D01*
Y290500D01*
X253000Y283000D02*
X254000D01*
X255000Y284000D01*
X256000Y283000D01*
X257000D01*
Y284000D01*
X256000Y285000D01*
X257000Y286000D01*
Y287000D01*
X256000D01*
X255000Y286000D01*
X254000Y287000D01*
X253000D01*
Y286000D01*
X254000Y285000D01*
X253000Y284000D01*
Y283000D01*
X256750Y275500D02*
X257750D01*
X258750Y276500D01*
X259750Y275500D01*
X260750D01*
Y276500D01*
X259750Y277500D01*
X260750Y278500D01*
Y279500D01*
X259750D01*
X258750Y278500D01*
X257750Y279500D01*
X256750D01*
Y278500D01*
X257750Y277500D01*
X256750Y276500D01*
Y275500D01*
X253000Y268000D02*
X254000D01*
X255000Y269000D01*
X256000Y268000D01*
X257000D01*
Y269000D01*
X256000Y270000D01*
X257000Y271000D01*
Y272000D01*
X256000D01*
X255000Y271000D01*
X254000Y272000D01*
X253000D01*
Y271000D01*
X254000Y270000D01*
X253000Y269000D01*
Y268000D01*
X256750Y260500D02*
X257750D01*
X258750Y261500D01*
X259750Y260500D01*
X260750D01*
Y261500D01*
X259750Y262500D01*
X260750Y263500D01*
Y264500D01*
X259750D01*
X258750Y263500D01*
X257750Y264500D01*
X256750D01*
Y263500D01*
X257750Y262500D01*
X256750Y261500D01*
Y260500D01*
X253000Y253000D02*
X254000D01*
X255000Y254000D01*
X256000Y253000D01*
X257000D01*
Y254000D01*
X256000Y255000D01*
X257000Y256000D01*
Y257000D01*
X256000D01*
X255000Y256000D01*
X254000Y257000D01*
X253000D01*
Y256000D01*
X254000Y255000D01*
X253000Y254000D01*
Y253000D01*
Y208000D02*
X254000D01*
X255000Y209000D01*
X256000Y208000D01*
X257000D01*
Y209000D01*
X256000Y210000D01*
X257000Y211000D01*
Y212000D01*
X256000D01*
X255000Y211000D01*
X254000Y212000D01*
X253000D01*
Y211000D01*
X254000Y210000D01*
X253000Y209000D01*
Y208000D01*
Y193000D02*
X254000D01*
X255000Y194000D01*
X256000Y193000D01*
X257000D01*
Y194000D01*
X256000Y195000D01*
X257000Y196000D01*
Y197000D01*
X256000D01*
X255000Y196000D01*
X254000Y197000D01*
X253000D01*
Y196000D01*
X254000Y195000D01*
X253000Y194000D01*
Y193000D01*
X256750Y185500D02*
X257750D01*
X258750Y186500D01*
X259750Y185500D01*
X260750D01*
Y186500D01*
X259750Y187500D01*
X260750Y188500D01*
Y189500D01*
X259750D01*
X258750Y188500D01*
X257750Y189500D01*
X256750D01*
Y188500D01*
X257750Y187500D01*
X256750Y186500D01*
Y185500D01*
X253000Y178000D02*
X254000D01*
X255000Y179000D01*
X256000Y178000D01*
X257000D01*
Y179000D01*
X256000Y180000D01*
X257000Y181000D01*
Y182000D01*
X256000D01*
X255000Y181000D01*
X254000Y182000D01*
X253000D01*
Y181000D01*
X254000Y180000D01*
X253000Y179000D01*
Y178000D01*
Y163000D02*
X254000D01*
X255000Y164000D01*
X256000Y163000D01*
X257000D01*
Y164000D01*
X256000Y165000D01*
X257000Y166000D01*
Y167000D01*
X256000D01*
X255000Y166000D01*
X254000Y167000D01*
X253000D01*
Y166000D01*
X254000Y165000D01*
X253000Y164000D01*
Y163000D01*
Y148000D02*
X254000D01*
X255000Y149000D01*
X256000Y148000D01*
X257000D01*
Y149000D01*
X256000Y150000D01*
X257000Y151000D01*
Y152000D01*
X256000D01*
X255000Y151000D01*
X254000Y152000D01*
X253000D01*
Y151000D01*
X254000Y150000D01*
X253000Y149000D01*
Y148000D01*
Y118000D02*
X254000D01*
X255000Y119000D01*
X256000Y118000D01*
X257000D01*
Y119000D01*
X256000Y120000D01*
X257000Y121000D01*
Y122000D01*
X256000D01*
X255000Y121000D01*
X254000Y122000D01*
X253000D01*
Y121000D01*
X254000Y120000D01*
X253000Y119000D01*
Y118000D01*
X256750Y110500D02*
X257750D01*
X258750Y111500D01*
X259750Y110500D01*
X260750D01*
Y111500D01*
X259750Y112500D01*
X260750Y113500D01*
Y114500D01*
X259750D01*
X258750Y113500D01*
X257750Y114500D01*
X256750D01*
Y113500D01*
X257750Y112500D01*
X256750Y111500D01*
Y110500D01*
X253000Y103000D02*
X254000D01*
X255000Y104000D01*
X256000Y103000D01*
X257000D01*
Y104000D01*
X256000Y105000D01*
X257000Y106000D01*
Y107000D01*
X256000D01*
X255000Y106000D01*
X254000Y107000D01*
X253000D01*
Y106000D01*
X254000Y105000D01*
X253000Y104000D01*
Y103000D01*
X249250Y305500D02*
X250250D01*
X251250Y306500D01*
X252250Y305500D01*
X253250D01*
Y306500D01*
X252250Y307500D01*
X253250Y308500D01*
Y309500D01*
X252250D01*
X251250Y308500D01*
X250250Y309500D01*
X249250D01*
Y308500D01*
X250250Y307500D01*
X249250Y306500D01*
Y305500D01*
X245500Y298000D02*
X246500D01*
X247500Y299000D01*
X248500Y298000D01*
X249500D01*
Y299000D01*
X248500Y300000D01*
X249500Y301000D01*
Y302000D01*
X248500D01*
X247500Y301000D01*
X246500Y302000D01*
X245500D01*
Y301000D01*
X246500Y300000D01*
X245500Y299000D01*
Y298000D01*
X249250Y290500D02*
X250250D01*
X251250Y291500D01*
X252250Y290500D01*
X253250D01*
Y291500D01*
X252250Y292500D01*
X253250Y293500D01*
Y294500D01*
X252250D01*
X251250Y293500D01*
X250250Y294500D01*
X249250D01*
Y293500D01*
X250250Y292500D01*
X249250Y291500D01*
Y290500D01*
X245500Y283000D02*
X246500D01*
X247500Y284000D01*
X248500Y283000D01*
X249500D01*
Y284000D01*
X248500Y285000D01*
X249500Y286000D01*
Y287000D01*
X248500D01*
X247500Y286000D01*
X246500Y287000D01*
X245500D01*
Y286000D01*
X246500Y285000D01*
X245500Y284000D01*
Y283000D01*
X249250Y275500D02*
X250250D01*
X251250Y276500D01*
X252250Y275500D01*
X253250D01*
Y276500D01*
X252250Y277500D01*
X253250Y278500D01*
Y279500D01*
X252250D01*
X251250Y278500D01*
X250250Y279500D01*
X249250D01*
Y278500D01*
X250250Y277500D01*
X249250Y276500D01*
Y275500D01*
X245500Y268000D02*
X246500D01*
X247500Y269000D01*
X248500Y268000D01*
X249500D01*
Y269000D01*
X248500Y270000D01*
X249500Y271000D01*
Y272000D01*
X248500D01*
X247500Y271000D01*
X246500Y272000D01*
X245500D01*
Y271000D01*
X246500Y270000D01*
X245500Y269000D01*
Y268000D01*
X249250Y260500D02*
X250250D01*
X251250Y261500D01*
X252250Y260500D01*
X253250D01*
Y261500D01*
X252250Y262500D01*
X253250Y263500D01*
Y264500D01*
X252250D01*
X251250Y263500D01*
X250250Y264500D01*
X249250D01*
Y263500D01*
X250250Y262500D01*
X249250Y261500D01*
Y260500D01*
X245500Y253000D02*
X246500D01*
X247500Y254000D01*
X248500Y253000D01*
X249500D01*
Y254000D01*
X248500Y255000D01*
X249500Y256000D01*
Y257000D01*
X248500D01*
X247500Y256000D01*
X246500Y257000D01*
X245500D01*
Y256000D01*
X246500Y255000D01*
X245500Y254000D01*
Y253000D01*
Y238000D02*
X246500D01*
X247500Y239000D01*
X248500Y238000D01*
X249500D01*
Y239000D01*
X248500Y240000D01*
X249500Y241000D01*
Y242000D01*
X248500D01*
X247500Y241000D01*
X246500Y242000D01*
X245500D01*
Y241000D01*
X246500Y240000D01*
X245500Y239000D01*
Y238000D01*
X249250Y230500D02*
X250250D01*
X251250Y231500D01*
X252250Y230500D01*
X253250D01*
Y231500D01*
X252250Y232500D01*
X253250Y233500D01*
Y234500D01*
X252250D01*
X251250Y233500D01*
X250250Y234500D01*
X249250D01*
Y233500D01*
X250250Y232500D01*
X249250Y231500D01*
Y230500D01*
X245500Y223000D02*
X246500D01*
X247500Y224000D01*
X248500Y223000D01*
X249500D01*
Y224000D01*
X248500Y225000D01*
X249500Y226000D01*
Y227000D01*
X248500D01*
X247500Y226000D01*
X246500Y227000D01*
X245500D01*
Y226000D01*
X246500Y225000D01*
X245500Y224000D01*
Y223000D01*
X249250Y215500D02*
X250250D01*
X251250Y216500D01*
X252250Y215500D01*
X253250D01*
Y216500D01*
X252250Y217500D01*
X253250Y218500D01*
Y219500D01*
X252250D01*
X251250Y218500D01*
X250250Y219500D01*
X249250D01*
Y218500D01*
X250250Y217500D01*
X249250Y216500D01*
Y215500D01*
Y200500D02*
X250250D01*
X251250Y201500D01*
X252250Y200500D01*
X253250D01*
Y201500D01*
X252250Y202500D01*
X253250Y203500D01*
Y204500D01*
X252250D01*
X251250Y203500D01*
X250250Y204500D01*
X249250D01*
Y203500D01*
X250250Y202500D01*
X249250Y201500D01*
Y200500D01*
X245500Y193000D02*
X246500D01*
X247500Y194000D01*
X248500Y193000D01*
X249500D01*
Y194000D01*
X248500Y195000D01*
X249500Y196000D01*
Y197000D01*
X248500D01*
X247500Y196000D01*
X246500Y197000D01*
X245500D01*
Y196000D01*
X246500Y195000D01*
X245500Y194000D01*
Y193000D01*
X249250Y185500D02*
X250250D01*
X251250Y186500D01*
X252250Y185500D01*
X253250D01*
Y186500D01*
X252250Y187500D01*
X253250Y188500D01*
Y189500D01*
X252250D01*
X251250Y188500D01*
X250250Y189500D01*
X249250D01*
Y188500D01*
X250250Y187500D01*
X249250Y186500D01*
Y185500D01*
X245500Y178000D02*
X246500D01*
X247500Y179000D01*
X248500Y178000D01*
X249500D01*
Y179000D01*
X248500Y180000D01*
X249500Y181000D01*
Y182000D01*
X248500D01*
X247500Y181000D01*
X246500Y182000D01*
X245500D01*
Y181000D01*
X246500Y180000D01*
X245500Y179000D01*
Y178000D01*
X249250Y170500D02*
X250250D01*
X251250Y171500D01*
X252250Y170500D01*
X253250D01*
Y171500D01*
X252250Y172500D01*
X253250Y173500D01*
Y174500D01*
X252250D01*
X251250Y173500D01*
X250250Y174500D01*
X249250D01*
Y173500D01*
X250250Y172500D01*
X249250Y171500D01*
Y170500D01*
X245500Y163000D02*
X246500D01*
X247500Y164000D01*
X248500Y163000D01*
X249500D01*
Y164000D01*
X248500Y165000D01*
X249500Y166000D01*
Y167000D01*
X248500D01*
X247500Y166000D01*
X246500Y167000D01*
X245500D01*
Y166000D01*
X246500Y165000D01*
X245500Y164000D01*
Y163000D01*
X249250Y155500D02*
X250250D01*
X251250Y156500D01*
X252250Y155500D01*
X253250D01*
Y156500D01*
X252250Y157500D01*
X253250Y158500D01*
Y159500D01*
X252250D01*
X251250Y158500D01*
X250250Y159500D01*
X249250D01*
Y158500D01*
X250250Y157500D01*
X249250Y156500D01*
Y155500D01*
X245500Y148000D02*
X246500D01*
X247500Y149000D01*
X248500Y148000D01*
X249500D01*
Y149000D01*
X248500Y150000D01*
X249500Y151000D01*
Y152000D01*
X248500D01*
X247500Y151000D01*
X246500Y152000D01*
X245500D01*
Y151000D01*
X246500Y150000D01*
X245500Y149000D01*
Y148000D01*
Y133000D02*
X246500D01*
X247500Y134000D01*
X248500Y133000D01*
X249500D01*
Y134000D01*
X248500Y135000D01*
X249500Y136000D01*
Y137000D01*
X248500D01*
X247500Y136000D01*
X246500Y137000D01*
X245500D01*
Y136000D01*
X246500Y135000D01*
X245500Y134000D01*
Y133000D01*
X249250Y110500D02*
X250250D01*
X251250Y111500D01*
X252250Y110500D01*
X253250D01*
Y111500D01*
X252250Y112500D01*
X253250Y113500D01*
Y114500D01*
X252250D01*
X251250Y113500D01*
X250250Y114500D01*
X249250D01*
Y113500D01*
X250250Y112500D01*
X249250Y111500D01*
Y110500D01*
X245500Y103000D02*
X246500D01*
X247500Y104000D01*
X248500Y103000D01*
X249500D01*
Y104000D01*
X248500Y105000D01*
X249500Y106000D01*
Y107000D01*
X248500D01*
X247500Y106000D01*
X246500Y107000D01*
X245500D01*
Y106000D01*
X246500Y105000D01*
X245500Y104000D01*
Y103000D01*
X241750Y305500D02*
X242750D01*
X243750Y306500D01*
X244750Y305500D01*
X245750D01*
Y306500D01*
X244750Y307500D01*
X245750Y308500D01*
Y309500D01*
X244750D01*
X243750Y308500D01*
X242750Y309500D01*
X241750D01*
Y308500D01*
X242750Y307500D01*
X241750Y306500D01*
Y305500D01*
X238000Y298000D02*
X239000D01*
X240000Y299000D01*
X241000Y298000D01*
X242000D01*
Y299000D01*
X241000Y300000D01*
X242000Y301000D01*
Y302000D01*
X241000D01*
X240000Y301000D01*
X239000Y302000D01*
X238000D01*
Y301000D01*
X239000Y300000D01*
X238000Y299000D01*
Y298000D01*
X241750Y290500D02*
X242750D01*
X243750Y291500D01*
X244750Y290500D01*
X245750D01*
Y291500D01*
X244750Y292500D01*
X245750Y293500D01*
Y294500D01*
X244750D01*
X243750Y293500D01*
X242750Y294500D01*
X241750D01*
Y293500D01*
X242750Y292500D01*
X241750Y291500D01*
Y290500D01*
X238000Y283000D02*
X239000D01*
X240000Y284000D01*
X241000Y283000D01*
X242000D01*
Y284000D01*
X241000Y285000D01*
X242000Y286000D01*
Y287000D01*
X241000D01*
X240000Y286000D01*
X239000Y287000D01*
X238000D01*
Y286000D01*
X239000Y285000D01*
X238000Y284000D01*
Y283000D01*
X241750Y275500D02*
X242750D01*
X243750Y276500D01*
X244750Y275500D01*
X245750D01*
Y276500D01*
X244750Y277500D01*
X245750Y278500D01*
Y279500D01*
X244750D01*
X243750Y278500D01*
X242750Y279500D01*
X241750D01*
Y278500D01*
X242750Y277500D01*
X241750Y276500D01*
Y275500D01*
X238000Y268000D02*
X239000D01*
X240000Y269000D01*
X241000Y268000D01*
X242000D01*
Y269000D01*
X241000Y270000D01*
X242000Y271000D01*
Y272000D01*
X241000D01*
X240000Y271000D01*
X239000Y272000D01*
X238000D01*
Y271000D01*
X239000Y270000D01*
X238000Y269000D01*
Y268000D01*
X241750Y260500D02*
X242750D01*
X243750Y261500D01*
X244750Y260500D01*
X245750D01*
Y261500D01*
X244750Y262500D01*
X245750Y263500D01*
Y264500D01*
X244750D01*
X243750Y263500D01*
X242750Y264500D01*
X241750D01*
Y263500D01*
X242750Y262500D01*
X241750Y261500D01*
Y260500D01*
X238000Y253000D02*
X239000D01*
X240000Y254000D01*
X241000Y253000D01*
X242000D01*
Y254000D01*
X241000Y255000D01*
X242000Y256000D01*
Y257000D01*
X241000D01*
X240000Y256000D01*
X239000Y257000D01*
X238000D01*
Y256000D01*
X239000Y255000D01*
X238000Y254000D01*
Y253000D01*
X241750Y245500D02*
X242750D01*
X243750Y246500D01*
X244750Y245500D01*
X245750D01*
Y246500D01*
X244750Y247500D01*
X245750Y248500D01*
Y249500D01*
X244750D01*
X243750Y248500D01*
X242750Y249500D01*
X241750D01*
Y248500D01*
X242750Y247500D01*
X241750Y246500D01*
Y245500D01*
Y230500D02*
X242750D01*
X243750Y231500D01*
X244750Y230500D01*
X245750D01*
Y231500D01*
X244750Y232500D01*
X245750Y233500D01*
Y234500D01*
X244750D01*
X243750Y233500D01*
X242750Y234500D01*
X241750D01*
Y233500D01*
X242750Y232500D01*
X241750Y231500D01*
Y230500D01*
X238000Y223000D02*
X239000D01*
X240000Y224000D01*
X241000Y223000D01*
X242000D01*
Y224000D01*
X241000Y225000D01*
X242000Y226000D01*
Y227000D01*
X241000D01*
X240000Y226000D01*
X239000Y227000D01*
X238000D01*
Y226000D01*
X239000Y225000D01*
X238000Y224000D01*
Y223000D01*
X241750Y200500D02*
X242750D01*
X243750Y201500D01*
X244750Y200500D01*
X245750D01*
Y201500D01*
X244750Y202500D01*
X245750Y203500D01*
Y204500D01*
X244750D01*
X243750Y203500D01*
X242750Y204500D01*
X241750D01*
Y203500D01*
X242750Y202500D01*
X241750Y201500D01*
Y200500D01*
X238000Y193000D02*
X239000D01*
X240000Y194000D01*
X241000Y193000D01*
X242000D01*
Y194000D01*
X241000Y195000D01*
X242000Y196000D01*
Y197000D01*
X241000D01*
X240000Y196000D01*
X239000Y197000D01*
X238000D01*
Y196000D01*
X239000Y195000D01*
X238000Y194000D01*
Y193000D01*
X241750Y185500D02*
X242750D01*
X243750Y186500D01*
X244750Y185500D01*
X245750D01*
Y186500D01*
X244750Y187500D01*
X245750Y188500D01*
Y189500D01*
X244750D01*
X243750Y188500D01*
X242750Y189500D01*
X241750D01*
Y188500D01*
X242750Y187500D01*
X241750Y186500D01*
Y185500D01*
X238000Y178000D02*
X239000D01*
X240000Y179000D01*
X241000Y178000D01*
X242000D01*
Y179000D01*
X241000Y180000D01*
X242000Y181000D01*
Y182000D01*
X241000D01*
X240000Y181000D01*
X239000Y182000D01*
X238000D01*
Y181000D01*
X239000Y180000D01*
X238000Y179000D01*
Y178000D01*
Y163000D02*
X239000D01*
X240000Y164000D01*
X241000Y163000D01*
X242000D01*
Y164000D01*
X241000Y165000D01*
X242000Y166000D01*
Y167000D01*
X241000D01*
X240000Y166000D01*
X239000Y167000D01*
X238000D01*
Y166000D01*
X239000Y165000D01*
X238000Y164000D01*
Y163000D01*
Y148000D02*
X239000D01*
X240000Y149000D01*
X241000Y148000D01*
X242000D01*
Y149000D01*
X241000Y150000D01*
X242000Y151000D01*
Y152000D01*
X241000D01*
X240000Y151000D01*
X239000Y152000D01*
X238000D01*
Y151000D01*
X239000Y150000D01*
X238000Y149000D01*
Y148000D01*
Y133000D02*
X239000D01*
X240000Y134000D01*
X241000Y133000D01*
X242000D01*
Y134000D01*
X241000Y135000D01*
X242000Y136000D01*
Y137000D01*
X241000D01*
X240000Y136000D01*
X239000Y137000D01*
X238000D01*
Y136000D01*
X239000Y135000D01*
X238000Y134000D01*
Y133000D01*
X241750Y110500D02*
X242750D01*
X243750Y111500D01*
X244750Y110500D01*
X245750D01*
Y111500D01*
X244750Y112500D01*
X245750Y113500D01*
Y114500D01*
X244750D01*
X243750Y113500D01*
X242750Y114500D01*
X241750D01*
Y113500D01*
X242750Y112500D01*
X241750Y111500D01*
Y110500D01*
X238000Y103000D02*
X239000D01*
X240000Y104000D01*
X241000Y103000D01*
X242000D01*
Y104000D01*
X241000Y105000D01*
X242000Y106000D01*
Y107000D01*
X241000D01*
X240000Y106000D01*
X239000Y107000D01*
X238000D01*
Y106000D01*
X239000Y105000D01*
X238000Y104000D01*
Y103000D01*
X230500Y298000D02*
X231500D01*
X232500Y299000D01*
X233500Y298000D01*
X234500D01*
Y299000D01*
X233500Y300000D01*
X234500Y301000D01*
Y302000D01*
X233500D01*
X232500Y301000D01*
X231500Y302000D01*
X230500D01*
Y301000D01*
X231500Y300000D01*
X230500Y299000D01*
Y298000D01*
X234250Y290500D02*
X235250D01*
X236250Y291500D01*
X237250Y290500D01*
X238250D01*
Y291500D01*
X237250Y292500D01*
X238250Y293500D01*
Y294500D01*
X237250D01*
X236250Y293500D01*
X235250Y294500D01*
X234250D01*
Y293500D01*
X235250Y292500D01*
X234250Y291500D01*
Y290500D01*
X230500Y283000D02*
X231500D01*
X232500Y284000D01*
X233500Y283000D01*
X234500D01*
Y284000D01*
X233500Y285000D01*
X234500Y286000D01*
Y287000D01*
X233500D01*
X232500Y286000D01*
X231500Y287000D01*
X230500D01*
Y286000D01*
X231500Y285000D01*
X230500Y284000D01*
Y283000D01*
X234250Y275500D02*
X235250D01*
X236250Y276500D01*
X237250Y275500D01*
X238250D01*
Y276500D01*
X237250Y277500D01*
X238250Y278500D01*
Y279500D01*
X237250D01*
X236250Y278500D01*
X235250Y279500D01*
X234250D01*
Y278500D01*
X235250Y277500D01*
X234250Y276500D01*
Y275500D01*
X230500Y268000D02*
X231500D01*
X232500Y269000D01*
X233500Y268000D01*
X234500D01*
Y269000D01*
X233500Y270000D01*
X234500Y271000D01*
Y272000D01*
X233500D01*
X232500Y271000D01*
X231500Y272000D01*
X230500D01*
Y271000D01*
X231500Y270000D01*
X230500Y269000D01*
Y268000D01*
X234250Y260500D02*
X235250D01*
X236250Y261500D01*
X237250Y260500D01*
X238250D01*
Y261500D01*
X237250Y262500D01*
X238250Y263500D01*
Y264500D01*
X237250D01*
X236250Y263500D01*
X235250Y264500D01*
X234250D01*
Y263500D01*
X235250Y262500D01*
X234250Y261500D01*
Y260500D01*
X230500Y253000D02*
X231500D01*
X232500Y254000D01*
X233500Y253000D01*
X234500D01*
Y254000D01*
X233500Y255000D01*
X234500Y256000D01*
Y257000D01*
X233500D01*
X232500Y256000D01*
X231500Y257000D01*
X230500D01*
Y256000D01*
X231500Y255000D01*
X230500Y254000D01*
Y253000D01*
X234250Y245500D02*
X235250D01*
X236250Y246500D01*
X237250Y245500D01*
X238250D01*
Y246500D01*
X237250Y247500D01*
X238250Y248500D01*
Y249500D01*
X237250D01*
X236250Y248500D01*
X235250Y249500D01*
X234250D01*
Y248500D01*
X235250Y247500D01*
X234250Y246500D01*
Y245500D01*
X230500Y238000D02*
X231500D01*
X232500Y239000D01*
X233500Y238000D01*
X234500D01*
Y239000D01*
X233500Y240000D01*
X234500Y241000D01*
Y242000D01*
X233500D01*
X232500Y241000D01*
X231500Y242000D01*
X230500D01*
Y241000D01*
X231500Y240000D01*
X230500Y239000D01*
Y238000D01*
X234250Y185500D02*
X235250D01*
X236250Y186500D01*
X237250Y185500D01*
X238250D01*
Y186500D01*
X237250Y187500D01*
X238250Y188500D01*
Y189500D01*
X237250D01*
X236250Y188500D01*
X235250Y189500D01*
X234250D01*
Y188500D01*
X235250Y187500D01*
X234250Y186500D01*
Y185500D01*
Y155500D02*
X235250D01*
X236250Y156500D01*
X237250Y155500D01*
X238250D01*
Y156500D01*
X237250Y157500D01*
X238250Y158500D01*
Y159500D01*
X237250D01*
X236250Y158500D01*
X235250Y159500D01*
X234250D01*
Y158500D01*
X235250Y157500D01*
X234250Y156500D01*
Y155500D01*
X230500Y148000D02*
X231500D01*
X232500Y149000D01*
X233500Y148000D01*
X234500D01*
Y149000D01*
X233500Y150000D01*
X234500Y151000D01*
Y152000D01*
X233500D01*
X232500Y151000D01*
X231500Y152000D01*
X230500D01*
Y151000D01*
X231500Y150000D01*
X230500Y149000D01*
Y148000D01*
X234250Y140500D02*
X235250D01*
X236250Y141500D01*
X237250Y140500D01*
X238250D01*
Y141500D01*
X237250Y142500D01*
X238250Y143500D01*
Y144500D01*
X237250D01*
X236250Y143500D01*
X235250Y144500D01*
X234250D01*
Y143500D01*
X235250Y142500D01*
X234250Y141500D01*
Y140500D01*
X230500Y133000D02*
X231500D01*
X232500Y134000D01*
X233500Y133000D01*
X234500D01*
Y134000D01*
X233500Y135000D01*
X234500Y136000D01*
Y137000D01*
X233500D01*
X232500Y136000D01*
X231500Y137000D01*
X230500D01*
Y136000D01*
X231500Y135000D01*
X230500Y134000D01*
Y133000D01*
Y103000D02*
X231500D01*
X232500Y104000D01*
X233500Y103000D01*
X234500D01*
Y104000D01*
X233500Y105000D01*
X234500Y106000D01*
Y107000D01*
X233500D01*
X232500Y106000D01*
X231500Y107000D01*
X230500D01*
Y106000D01*
X231500Y105000D01*
X230500Y104000D01*
Y103000D01*
X226750Y290500D02*
X227750D01*
X228750Y291500D01*
X229750Y290500D01*
X230750D01*
Y291500D01*
X229750Y292500D01*
X230750Y293500D01*
Y294500D01*
X229750D01*
X228750Y293500D01*
X227750Y294500D01*
X226750D01*
Y293500D01*
X227750Y292500D01*
X226750Y291500D01*
Y290500D01*
X223000Y268000D02*
X224000D01*
X225000Y269000D01*
X226000Y268000D01*
X227000D01*
Y269000D01*
X226000Y270000D01*
X227000Y271000D01*
Y272000D01*
X226000D01*
X225000Y271000D01*
X224000Y272000D01*
X223000D01*
Y271000D01*
X224000Y270000D01*
X223000Y269000D01*
Y268000D01*
X226750Y230500D02*
X227750D01*
X228750Y231500D01*
X229750Y230500D01*
X230750D01*
Y231500D01*
X229750Y232500D01*
X230750Y233500D01*
Y234500D01*
X229750D01*
X228750Y233500D01*
X227750Y234500D01*
X226750D01*
Y233500D01*
X227750Y232500D01*
X226750Y231500D01*
Y230500D01*
X223000Y193000D02*
X224000D01*
X225000Y194000D01*
X226000Y193000D01*
X227000D01*
Y194000D01*
X226000Y195000D01*
X227000Y196000D01*
Y197000D01*
X226000D01*
X225000Y196000D01*
X224000Y197000D01*
X223000D01*
Y196000D01*
X224000Y195000D01*
X223000Y194000D01*
Y193000D01*
X226750Y185500D02*
X227750D01*
X228750Y186500D01*
X229750Y185500D01*
X230750D01*
Y186500D01*
X229750Y187500D01*
X230750Y188500D01*
Y189500D01*
X229750D01*
X228750Y188500D01*
X227750Y189500D01*
X226750D01*
Y188500D01*
X227750Y187500D01*
X226750Y186500D01*
Y185500D01*
X223000Y178000D02*
X224000D01*
X225000Y179000D01*
X226000Y178000D01*
X227000D01*
Y179000D01*
X226000Y180000D01*
X227000Y181000D01*
Y182000D01*
X226000D01*
X225000Y181000D01*
X224000Y182000D01*
X223000D01*
Y181000D01*
X224000Y180000D01*
X223000Y179000D01*
Y178000D01*
X226750Y155500D02*
X227750D01*
X228750Y156500D01*
X229750Y155500D01*
X230750D01*
Y156500D01*
X229750Y157500D01*
X230750Y158500D01*
Y159500D01*
X229750D01*
X228750Y158500D01*
X227750Y159500D01*
X226750D01*
Y158500D01*
X227750Y157500D01*
X226750Y156500D01*
Y155500D01*
X223000Y148000D02*
X224000D01*
X225000Y149000D01*
X226000Y148000D01*
X227000D01*
Y149000D01*
X226000Y150000D01*
X227000Y151000D01*
Y152000D01*
X226000D01*
X225000Y151000D01*
X224000Y152000D01*
X223000D01*
Y151000D01*
X224000Y150000D01*
X223000Y149000D01*
Y148000D01*
X226750Y140500D02*
X227750D01*
X228750Y141500D01*
X229750Y140500D01*
X230750D01*
Y141500D01*
X229750Y142500D01*
X230750Y143500D01*
Y144500D01*
X229750D01*
X228750Y143500D01*
X227750Y144500D01*
X226750D01*
Y143500D01*
X227750Y142500D01*
X226750Y141500D01*
Y140500D01*
Y110500D02*
X227750D01*
X228750Y111500D01*
X229750Y110500D01*
X230750D01*
Y111500D01*
X229750Y112500D01*
X230750Y113500D01*
Y114500D01*
X229750D01*
X228750Y113500D01*
X227750Y114500D01*
X226750D01*
Y113500D01*
X227750Y112500D01*
X226750Y111500D01*
Y110500D01*
X223000Y103000D02*
X224000D01*
X225000Y104000D01*
X226000Y103000D01*
X227000D01*
Y104000D01*
X226000Y105000D01*
X227000Y106000D01*
Y107000D01*
X226000D01*
X225000Y106000D01*
X224000Y107000D01*
X223000D01*
Y106000D01*
X224000Y105000D01*
X223000Y104000D01*
Y103000D01*
X215500Y268000D02*
X216500D01*
X217500Y269000D01*
X218500Y268000D01*
X219500D01*
Y269000D01*
X218500Y270000D01*
X219500Y271000D01*
Y272000D01*
X218500D01*
X217500Y271000D01*
X216500Y272000D01*
X215500D01*
Y271000D01*
X216500Y270000D01*
X215500Y269000D01*
Y268000D01*
X219250Y260500D02*
X220250D01*
X221250Y261500D01*
X222250Y260500D01*
X223250D01*
Y261500D01*
X222250Y262500D01*
X223250Y263500D01*
Y264500D01*
X222250D01*
X221250Y263500D01*
X220250Y264500D01*
X219250D01*
Y263500D01*
X220250Y262500D01*
X219250Y261500D01*
Y260500D01*
X215500Y208000D02*
X216500D01*
X217500Y209000D01*
X218500Y208000D01*
X219500D01*
Y209000D01*
X218500Y210000D01*
X219500Y211000D01*
Y212000D01*
X218500D01*
X217500Y211000D01*
X216500Y212000D01*
X215500D01*
Y211000D01*
X216500Y210000D01*
X215500Y209000D01*
Y208000D01*
X219250Y200500D02*
X220250D01*
X221250Y201500D01*
X222250Y200500D01*
X223250D01*
Y201500D01*
X222250Y202500D01*
X223250Y203500D01*
Y204500D01*
X222250D01*
X221250Y203500D01*
X220250Y204500D01*
X219250D01*
Y203500D01*
X220250Y202500D01*
X219250Y201500D01*
Y200500D01*
X215500Y193000D02*
X216500D01*
X217500Y194000D01*
X218500Y193000D01*
X219500D01*
Y194000D01*
X218500Y195000D01*
X219500Y196000D01*
Y197000D01*
X218500D01*
X217500Y196000D01*
X216500Y197000D01*
X215500D01*
Y196000D01*
X216500Y195000D01*
X215500Y194000D01*
Y193000D01*
Y178000D02*
X216500D01*
X217500Y179000D01*
X218500Y178000D01*
X219500D01*
Y179000D01*
X218500Y180000D01*
X219500Y181000D01*
Y182000D01*
X218500D01*
X217500Y181000D01*
X216500Y182000D01*
X215500D01*
Y181000D01*
X216500Y180000D01*
X215500Y179000D01*
Y178000D01*
X219250Y170500D02*
X220250D01*
X221250Y171500D01*
X222250Y170500D01*
X223250D01*
Y171500D01*
X222250Y172500D01*
X223250Y173500D01*
Y174500D01*
X222250D01*
X221250Y173500D01*
X220250Y174500D01*
X219250D01*
Y173500D01*
X220250Y172500D01*
X219250Y171500D01*
Y170500D01*
Y155500D02*
X220250D01*
X221250Y156500D01*
X222250Y155500D01*
X223250D01*
Y156500D01*
X222250Y157500D01*
X223250Y158500D01*
Y159500D01*
X222250D01*
X221250Y158500D01*
X220250Y159500D01*
X219250D01*
Y158500D01*
X220250Y157500D01*
X219250Y156500D01*
Y155500D01*
X215500Y148000D02*
X216500D01*
X217500Y149000D01*
X218500Y148000D01*
X219500D01*
Y149000D01*
X218500Y150000D01*
X219500Y151000D01*
Y152000D01*
X218500D01*
X217500Y151000D01*
X216500Y152000D01*
X215500D01*
Y151000D01*
X216500Y150000D01*
X215500Y149000D01*
Y148000D01*
X219250Y140500D02*
X220250D01*
X221250Y141500D01*
X222250Y140500D01*
X223250D01*
Y141500D01*
X222250Y142500D01*
X223250Y143500D01*
Y144500D01*
X222250D01*
X221250Y143500D01*
X220250Y144500D01*
X219250D01*
Y143500D01*
X220250Y142500D01*
X219250Y141500D01*
Y140500D01*
X215500Y133000D02*
X216500D01*
X217500Y134000D01*
X218500Y133000D01*
X219500D01*
Y134000D01*
X218500Y135000D01*
X219500Y136000D01*
Y137000D01*
X218500D01*
X217500Y136000D01*
X216500Y137000D01*
X215500D01*
Y136000D01*
X216500Y135000D01*
X215500Y134000D01*
Y133000D01*
X219250Y125500D02*
X220250D01*
X221250Y126500D01*
X222250Y125500D01*
X223250D01*
Y126500D01*
X222250Y127500D01*
X223250Y128500D01*
Y129500D01*
X222250D01*
X221250Y128500D01*
X220250Y129500D01*
X219250D01*
Y128500D01*
X220250Y127500D01*
X219250Y126500D01*
Y125500D01*
X215500Y118000D02*
X216500D01*
X217500Y119000D01*
X218500Y118000D01*
X219500D01*
Y119000D01*
X218500Y120000D01*
X219500Y121000D01*
Y122000D01*
X218500D01*
X217500Y121000D01*
X216500Y122000D01*
X215500D01*
Y121000D01*
X216500Y120000D01*
X215500Y119000D01*
Y118000D01*
X219250Y110500D02*
X220250D01*
X221250Y111500D01*
X222250Y110500D01*
X223250D01*
Y111500D01*
X222250Y112500D01*
X223250Y113500D01*
Y114500D01*
X222250D01*
X221250Y113500D01*
X220250Y114500D01*
X219250D01*
Y113500D01*
X220250Y112500D01*
X219250Y111500D01*
Y110500D01*
X215500Y103000D02*
X216500D01*
X217500Y104000D01*
X218500Y103000D01*
X219500D01*
Y104000D01*
X218500Y105000D01*
X219500Y106000D01*
Y107000D01*
X218500D01*
X217500Y106000D01*
X216500Y107000D01*
X215500D01*
Y106000D01*
X216500Y105000D01*
X215500Y104000D01*
Y103000D01*
X208000Y298000D02*
X209000D01*
X210000Y299000D01*
X211000Y298000D01*
X212000D01*
Y299000D01*
X211000Y300000D01*
X212000Y301000D01*
Y302000D01*
X211000D01*
X210000Y301000D01*
X209000Y302000D01*
X208000D01*
Y301000D01*
X209000Y300000D01*
X208000Y299000D01*
Y298000D01*
X211750Y290500D02*
X212750D01*
X213750Y291500D01*
X214750Y290500D01*
X215750D01*
Y291500D01*
X214750Y292500D01*
X215750Y293500D01*
Y294500D01*
X214750D01*
X213750Y293500D01*
X212750Y294500D01*
X211750D01*
Y293500D01*
X212750Y292500D01*
X211750Y291500D01*
Y290500D01*
X208000Y283000D02*
X209000D01*
X210000Y284000D01*
X211000Y283000D01*
X212000D01*
Y284000D01*
X211000Y285000D01*
X212000Y286000D01*
Y287000D01*
X211000D01*
X210000Y286000D01*
X209000Y287000D01*
X208000D01*
Y286000D01*
X209000Y285000D01*
X208000Y284000D01*
Y283000D01*
X211750Y260500D02*
X212750D01*
X213750Y261500D01*
X214750Y260500D01*
X215750D01*
Y261500D01*
X214750Y262500D01*
X215750Y263500D01*
Y264500D01*
X214750D01*
X213750Y263500D01*
X212750Y264500D01*
X211750D01*
Y263500D01*
X212750Y262500D01*
X211750Y261500D01*
Y260500D01*
X208000Y238000D02*
X209000D01*
X210000Y239000D01*
X211000Y238000D01*
X212000D01*
Y239000D01*
X211000Y240000D01*
X212000Y241000D01*
Y242000D01*
X211000D01*
X210000Y241000D01*
X209000Y242000D01*
X208000D01*
Y241000D01*
X209000Y240000D01*
X208000Y239000D01*
Y238000D01*
Y223000D02*
X209000D01*
X210000Y224000D01*
X211000Y223000D01*
X212000D01*
Y224000D01*
X211000Y225000D01*
X212000Y226000D01*
Y227000D01*
X211000D01*
X210000Y226000D01*
X209000Y227000D01*
X208000D01*
Y226000D01*
X209000Y225000D01*
X208000Y224000D01*
Y223000D01*
X211750Y215500D02*
X212750D01*
X213750Y216500D01*
X214750Y215500D01*
X215750D01*
Y216500D01*
X214750Y217500D01*
X215750Y218500D01*
Y219500D01*
X214750D01*
X213750Y218500D01*
X212750Y219500D01*
X211750D01*
Y218500D01*
X212750Y217500D01*
X211750Y216500D01*
Y215500D01*
X208000Y208000D02*
X209000D01*
X210000Y209000D01*
X211000Y208000D01*
X212000D01*
Y209000D01*
X211000Y210000D01*
X212000Y211000D01*
Y212000D01*
X211000D01*
X210000Y211000D01*
X209000Y212000D01*
X208000D01*
Y211000D01*
X209000Y210000D01*
X208000Y209000D01*
Y208000D01*
X211750Y200500D02*
X212750D01*
X213750Y201500D01*
X214750Y200500D01*
X215750D01*
Y201500D01*
X214750Y202500D01*
X215750Y203500D01*
Y204500D01*
X214750D01*
X213750Y203500D01*
X212750Y204500D01*
X211750D01*
Y203500D01*
X212750Y202500D01*
X211750Y201500D01*
Y200500D01*
X208000Y193000D02*
X209000D01*
X210000Y194000D01*
X211000Y193000D01*
X212000D01*
Y194000D01*
X211000Y195000D01*
X212000Y196000D01*
Y197000D01*
X211000D01*
X210000Y196000D01*
X209000Y197000D01*
X208000D01*
Y196000D01*
X209000Y195000D01*
X208000Y194000D01*
Y193000D01*
Y178000D02*
X209000D01*
X210000Y179000D01*
X211000Y178000D01*
X212000D01*
Y179000D01*
X211000Y180000D01*
X212000Y181000D01*
Y182000D01*
X211000D01*
X210000Y181000D01*
X209000Y182000D01*
X208000D01*
Y181000D01*
X209000Y180000D01*
X208000Y179000D01*
Y178000D01*
Y163000D02*
X209000D01*
X210000Y164000D01*
X211000Y163000D01*
X212000D01*
Y164000D01*
X211000Y165000D01*
X212000Y166000D01*
Y167000D01*
X211000D01*
X210000Y166000D01*
X209000Y167000D01*
X208000D01*
Y166000D01*
X209000Y165000D01*
X208000Y164000D01*
Y163000D01*
X211750Y155500D02*
X212750D01*
X213750Y156500D01*
X214750Y155500D01*
X215750D01*
Y156500D01*
X214750Y157500D01*
X215750Y158500D01*
Y159500D01*
X214750D01*
X213750Y158500D01*
X212750Y159500D01*
X211750D01*
Y158500D01*
X212750Y157500D01*
X211750Y156500D01*
Y155500D01*
X208000Y148000D02*
X209000D01*
X210000Y149000D01*
X211000Y148000D01*
X212000D01*
Y149000D01*
X211000Y150000D01*
X212000Y151000D01*
Y152000D01*
X211000D01*
X210000Y151000D01*
X209000Y152000D01*
X208000D01*
Y151000D01*
X209000Y150000D01*
X208000Y149000D01*
Y148000D01*
X211750Y140500D02*
X212750D01*
X213750Y141500D01*
X214750Y140500D01*
X215750D01*
Y141500D01*
X214750Y142500D01*
X215750Y143500D01*
Y144500D01*
X214750D01*
X213750Y143500D01*
X212750Y144500D01*
X211750D01*
Y143500D01*
X212750Y142500D01*
X211750Y141500D01*
Y140500D01*
X208000Y133000D02*
X209000D01*
X210000Y134000D01*
X211000Y133000D01*
X212000D01*
Y134000D01*
X211000Y135000D01*
X212000Y136000D01*
Y137000D01*
X211000D01*
X210000Y136000D01*
X209000Y137000D01*
X208000D01*
Y136000D01*
X209000Y135000D01*
X208000Y134000D01*
Y133000D01*
X211750Y125500D02*
X212750D01*
X213750Y126500D01*
X214750Y125500D01*
X215750D01*
Y126500D01*
X214750Y127500D01*
X215750Y128500D01*
Y129500D01*
X214750D01*
X213750Y128500D01*
X212750Y129500D01*
X211750D01*
Y128500D01*
X212750Y127500D01*
X211750Y126500D01*
Y125500D01*
X208000Y118000D02*
X209000D01*
X210000Y119000D01*
X211000Y118000D01*
X212000D01*
Y119000D01*
X211000Y120000D01*
X212000Y121000D01*
Y122000D01*
X211000D01*
X210000Y121000D01*
X209000Y122000D01*
X208000D01*
Y121000D01*
X209000Y120000D01*
X208000Y119000D01*
Y118000D01*
X211750Y110500D02*
X212750D01*
X213750Y111500D01*
X214750Y110500D01*
X215750D01*
Y111500D01*
X214750Y112500D01*
X215750Y113500D01*
Y114500D01*
X214750D01*
X213750Y113500D01*
X212750Y114500D01*
X211750D01*
Y113500D01*
X212750Y112500D01*
X211750Y111500D01*
Y110500D01*
X208000Y103000D02*
X209000D01*
X210000Y104000D01*
X211000Y103000D01*
X212000D01*
Y104000D01*
X211000Y105000D01*
X212000Y106000D01*
Y107000D01*
X211000D01*
X210000Y106000D01*
X209000Y107000D01*
X208000D01*
Y106000D01*
X209000Y105000D01*
X208000Y104000D01*
Y103000D01*
X200500Y298000D02*
X201500D01*
X202500Y299000D01*
X203500Y298000D01*
X204500D01*
Y299000D01*
X203500Y300000D01*
X204500Y301000D01*
Y302000D01*
X203500D01*
X202500Y301000D01*
X201500Y302000D01*
X200500D01*
Y301000D01*
X201500Y300000D01*
X200500Y299000D01*
Y298000D01*
Y283000D02*
X201500D01*
X202500Y284000D01*
X203500Y283000D01*
X204500D01*
Y284000D01*
X203500Y285000D01*
X204500Y286000D01*
Y287000D01*
X203500D01*
X202500Y286000D01*
X201500Y287000D01*
X200500D01*
Y286000D01*
X201500Y285000D01*
X200500Y284000D01*
Y283000D01*
Y268000D02*
X201500D01*
X202500Y269000D01*
X203500Y268000D01*
X204500D01*
Y269000D01*
X203500Y270000D01*
X204500Y271000D01*
Y272000D01*
X203500D01*
X202500Y271000D01*
X201500Y272000D01*
X200500D01*
Y271000D01*
X201500Y270000D01*
X200500Y269000D01*
Y268000D01*
X204250Y245500D02*
X205250D01*
X206250Y246500D01*
X207250Y245500D01*
X208250D01*
Y246500D01*
X207250Y247500D01*
X208250Y248500D01*
Y249500D01*
X207250D01*
X206250Y248500D01*
X205250Y249500D01*
X204250D01*
Y248500D01*
X205250Y247500D01*
X204250Y246500D01*
Y245500D01*
X200500Y238000D02*
X201500D01*
X202500Y239000D01*
X203500Y238000D01*
X204500D01*
Y239000D01*
X203500Y240000D01*
X204500Y241000D01*
Y242000D01*
X203500D01*
X202500Y241000D01*
X201500Y242000D01*
X200500D01*
Y241000D01*
X201500Y240000D01*
X200500Y239000D01*
Y238000D01*
Y223000D02*
X201500D01*
X202500Y224000D01*
X203500Y223000D01*
X204500D01*
Y224000D01*
X203500Y225000D01*
X204500Y226000D01*
Y227000D01*
X203500D01*
X202500Y226000D01*
X201500Y227000D01*
X200500D01*
Y226000D01*
X201500Y225000D01*
X200500Y224000D01*
Y223000D01*
Y208000D02*
X201500D01*
X202500Y209000D01*
X203500Y208000D01*
X204500D01*
Y209000D01*
X203500Y210000D01*
X204500Y211000D01*
Y212000D01*
X203500D01*
X202500Y211000D01*
X201500Y212000D01*
X200500D01*
Y211000D01*
X201500Y210000D01*
X200500Y209000D01*
Y208000D01*
Y193000D02*
X201500D01*
X202500Y194000D01*
X203500Y193000D01*
X204500D01*
Y194000D01*
X203500Y195000D01*
X204500Y196000D01*
Y197000D01*
X203500D01*
X202500Y196000D01*
X201500Y197000D01*
X200500D01*
Y196000D01*
X201500Y195000D01*
X200500Y194000D01*
Y193000D01*
X204250Y185500D02*
X205250D01*
X206250Y186500D01*
X207250Y185500D01*
X208250D01*
Y186500D01*
X207250Y187500D01*
X208250Y188500D01*
Y189500D01*
X207250D01*
X206250Y188500D01*
X205250Y189500D01*
X204250D01*
Y188500D01*
X205250Y187500D01*
X204250Y186500D01*
Y185500D01*
X200500Y178000D02*
X201500D01*
X202500Y179000D01*
X203500Y178000D01*
X204500D01*
Y179000D01*
X203500Y180000D01*
X204500Y181000D01*
Y182000D01*
X203500D01*
X202500Y181000D01*
X201500Y182000D01*
X200500D01*
Y181000D01*
X201500Y180000D01*
X200500Y179000D01*
Y178000D01*
Y163000D02*
X201500D01*
X202500Y164000D01*
X203500Y163000D01*
X204500D01*
Y164000D01*
X203500Y165000D01*
X204500Y166000D01*
Y167000D01*
X203500D01*
X202500Y166000D01*
X201500Y167000D01*
X200500D01*
Y166000D01*
X201500Y165000D01*
X200500Y164000D01*
Y163000D01*
X204250Y155500D02*
X205250D01*
X206250Y156500D01*
X207250Y155500D01*
X208250D01*
Y156500D01*
X207250Y157500D01*
X208250Y158500D01*
Y159500D01*
X207250D01*
X206250Y158500D01*
X205250Y159500D01*
X204250D01*
Y158500D01*
X205250Y157500D01*
X204250Y156500D01*
Y155500D01*
X200500Y148000D02*
X201500D01*
X202500Y149000D01*
X203500Y148000D01*
X204500D01*
Y149000D01*
X203500Y150000D01*
X204500Y151000D01*
Y152000D01*
X203500D01*
X202500Y151000D01*
X201500Y152000D01*
X200500D01*
Y151000D01*
X201500Y150000D01*
X200500Y149000D01*
Y148000D01*
X204250Y140500D02*
X205250D01*
X206250Y141500D01*
X207250Y140500D01*
X208250D01*
Y141500D01*
X207250Y142500D01*
X208250Y143500D01*
Y144500D01*
X207250D01*
X206250Y143500D01*
X205250Y144500D01*
X204250D01*
Y143500D01*
X205250Y142500D01*
X204250Y141500D01*
Y140500D01*
X200500Y133000D02*
X201500D01*
X202500Y134000D01*
X203500Y133000D01*
X204500D01*
Y134000D01*
X203500Y135000D01*
X204500Y136000D01*
Y137000D01*
X203500D01*
X202500Y136000D01*
X201500Y137000D01*
X200500D01*
Y136000D01*
X201500Y135000D01*
X200500Y134000D01*
Y133000D01*
X204250Y125500D02*
X205250D01*
X206250Y126500D01*
X207250Y125500D01*
X208250D01*
Y126500D01*
X207250Y127500D01*
X208250Y128500D01*
Y129500D01*
X207250D01*
X206250Y128500D01*
X205250Y129500D01*
X204250D01*
Y128500D01*
X205250Y127500D01*
X204250Y126500D01*
Y125500D01*
X200500Y118000D02*
X201500D01*
X202500Y119000D01*
X203500Y118000D01*
X204500D01*
Y119000D01*
X203500Y120000D01*
X204500Y121000D01*
Y122000D01*
X203500D01*
X202500Y121000D01*
X201500Y122000D01*
X200500D01*
Y121000D01*
X201500Y120000D01*
X200500Y119000D01*
Y118000D01*
X204250Y110500D02*
X205250D01*
X206250Y111500D01*
X207250Y110500D01*
X208250D01*
Y111500D01*
X207250Y112500D01*
X208250Y113500D01*
Y114500D01*
X207250D01*
X206250Y113500D01*
X205250Y114500D01*
X204250D01*
Y113500D01*
X205250Y112500D01*
X204250Y111500D01*
Y110500D01*
X196750Y305500D02*
X197750D01*
X198750Y306500D01*
X199750Y305500D01*
X200750D01*
Y306500D01*
X199750Y307500D01*
X200750Y308500D01*
Y309500D01*
X199750D01*
X198750Y308500D01*
X197750Y309500D01*
X196750D01*
Y308500D01*
X197750Y307500D01*
X196750Y306500D01*
Y305500D01*
X193000Y298000D02*
X194000D01*
X195000Y299000D01*
X196000Y298000D01*
X197000D01*
Y299000D01*
X196000Y300000D01*
X197000Y301000D01*
Y302000D01*
X196000D01*
X195000Y301000D01*
X194000Y302000D01*
X193000D01*
Y301000D01*
X194000Y300000D01*
X193000Y299000D01*
Y298000D01*
X196750Y290500D02*
X197750D01*
X198750Y291500D01*
X199750Y290500D01*
X200750D01*
Y291500D01*
X199750Y292500D01*
X200750Y293500D01*
Y294500D01*
X199750D01*
X198750Y293500D01*
X197750Y294500D01*
X196750D01*
Y293500D01*
X197750Y292500D01*
X196750Y291500D01*
Y290500D01*
X193000Y283000D02*
X194000D01*
X195000Y284000D01*
X196000Y283000D01*
X197000D01*
Y284000D01*
X196000Y285000D01*
X197000Y286000D01*
Y287000D01*
X196000D01*
X195000Y286000D01*
X194000Y287000D01*
X193000D01*
Y286000D01*
X194000Y285000D01*
X193000Y284000D01*
Y283000D01*
X196750Y275500D02*
X197750D01*
X198750Y276500D01*
X199750Y275500D01*
X200750D01*
Y276500D01*
X199750Y277500D01*
X200750Y278500D01*
Y279500D01*
X199750D01*
X198750Y278500D01*
X197750Y279500D01*
X196750D01*
Y278500D01*
X197750Y277500D01*
X196750Y276500D01*
Y275500D01*
X193000Y268000D02*
X194000D01*
X195000Y269000D01*
X196000Y268000D01*
X197000D01*
Y269000D01*
X196000Y270000D01*
X197000Y271000D01*
Y272000D01*
X196000D01*
X195000Y271000D01*
X194000Y272000D01*
X193000D01*
Y271000D01*
X194000Y270000D01*
X193000Y269000D01*
Y268000D01*
X196750Y260500D02*
X197750D01*
X198750Y261500D01*
X199750Y260500D01*
X200750D01*
Y261500D01*
X199750Y262500D01*
X200750Y263500D01*
Y264500D01*
X199750D01*
X198750Y263500D01*
X197750Y264500D01*
X196750D01*
Y263500D01*
X197750Y262500D01*
X196750Y261500D01*
Y260500D01*
X193000Y253000D02*
X194000D01*
X195000Y254000D01*
X196000Y253000D01*
X197000D01*
Y254000D01*
X196000Y255000D01*
X197000Y256000D01*
Y257000D01*
X196000D01*
X195000Y256000D01*
X194000Y257000D01*
X193000D01*
Y256000D01*
X194000Y255000D01*
X193000Y254000D01*
Y253000D01*
X196750Y245500D02*
X197750D01*
X198750Y246500D01*
X199750Y245500D01*
X200750D01*
Y246500D01*
X199750Y247500D01*
X200750Y248500D01*
Y249500D01*
X199750D01*
X198750Y248500D01*
X197750Y249500D01*
X196750D01*
Y248500D01*
X197750Y247500D01*
X196750Y246500D01*
Y245500D01*
X193000Y238000D02*
X194000D01*
X195000Y239000D01*
X196000Y238000D01*
X197000D01*
Y239000D01*
X196000Y240000D01*
X197000Y241000D01*
Y242000D01*
X196000D01*
X195000Y241000D01*
X194000Y242000D01*
X193000D01*
Y241000D01*
X194000Y240000D01*
X193000Y239000D01*
Y238000D01*
X196750Y230500D02*
X197750D01*
X198750Y231500D01*
X199750Y230500D01*
X200750D01*
Y231500D01*
X199750Y232500D01*
X200750Y233500D01*
Y234500D01*
X199750D01*
X198750Y233500D01*
X197750Y234500D01*
X196750D01*
Y233500D01*
X197750Y232500D01*
X196750Y231500D01*
Y230500D01*
X193000Y223000D02*
X194000D01*
X195000Y224000D01*
X196000Y223000D01*
X197000D01*
Y224000D01*
X196000Y225000D01*
X197000Y226000D01*
Y227000D01*
X196000D01*
X195000Y226000D01*
X194000Y227000D01*
X193000D01*
Y226000D01*
X194000Y225000D01*
X193000Y224000D01*
Y223000D01*
Y208000D02*
X194000D01*
X195000Y209000D01*
X196000Y208000D01*
X197000D01*
Y209000D01*
X196000Y210000D01*
X197000Y211000D01*
Y212000D01*
X196000D01*
X195000Y211000D01*
X194000Y212000D01*
X193000D01*
Y211000D01*
X194000Y210000D01*
X193000Y209000D01*
Y208000D01*
Y193000D02*
X194000D01*
X195000Y194000D01*
X196000Y193000D01*
X197000D01*
Y194000D01*
X196000Y195000D01*
X197000Y196000D01*
Y197000D01*
X196000D01*
X195000Y196000D01*
X194000Y197000D01*
X193000D01*
Y196000D01*
X194000Y195000D01*
X193000Y194000D01*
Y193000D01*
X196750Y185500D02*
X197750D01*
X198750Y186500D01*
X199750Y185500D01*
X200750D01*
Y186500D01*
X199750Y187500D01*
X200750Y188500D01*
Y189500D01*
X199750D01*
X198750Y188500D01*
X197750Y189500D01*
X196750D01*
Y188500D01*
X197750Y187500D01*
X196750Y186500D01*
Y185500D01*
X193000Y178000D02*
X194000D01*
X195000Y179000D01*
X196000Y178000D01*
X197000D01*
Y179000D01*
X196000Y180000D01*
X197000Y181000D01*
Y182000D01*
X196000D01*
X195000Y181000D01*
X194000Y182000D01*
X193000D01*
Y181000D01*
X194000Y180000D01*
X193000Y179000D01*
Y178000D01*
Y163000D02*
X194000D01*
X195000Y164000D01*
X196000Y163000D01*
X197000D01*
Y164000D01*
X196000Y165000D01*
X197000Y166000D01*
Y167000D01*
X196000D01*
X195000Y166000D01*
X194000Y167000D01*
X193000D01*
Y166000D01*
X194000Y165000D01*
X193000Y164000D01*
Y163000D01*
X196750Y155500D02*
X197750D01*
X198750Y156500D01*
X199750Y155500D01*
X200750D01*
Y156500D01*
X199750Y157500D01*
X200750Y158500D01*
Y159500D01*
X199750D01*
X198750Y158500D01*
X197750Y159500D01*
X196750D01*
Y158500D01*
X197750Y157500D01*
X196750Y156500D01*
Y155500D01*
X193000Y148000D02*
X194000D01*
X195000Y149000D01*
X196000Y148000D01*
X197000D01*
Y149000D01*
X196000Y150000D01*
X197000Y151000D01*
Y152000D01*
X196000D01*
X195000Y151000D01*
X194000Y152000D01*
X193000D01*
Y151000D01*
X194000Y150000D01*
X193000Y149000D01*
Y148000D01*
X196750Y140500D02*
X197750D01*
X198750Y141500D01*
X199750Y140500D01*
X200750D01*
Y141500D01*
X199750Y142500D01*
X200750Y143500D01*
Y144500D01*
X199750D01*
X198750Y143500D01*
X197750Y144500D01*
X196750D01*
Y143500D01*
X197750Y142500D01*
X196750Y141500D01*
Y140500D01*
X193000Y133000D02*
X194000D01*
X195000Y134000D01*
X196000Y133000D01*
X197000D01*
Y134000D01*
X196000Y135000D01*
X197000Y136000D01*
Y137000D01*
X196000D01*
X195000Y136000D01*
X194000Y137000D01*
X193000D01*
Y136000D01*
X194000Y135000D01*
X193000Y134000D01*
Y133000D01*
X196750Y125500D02*
X197750D01*
X198750Y126500D01*
X199750Y125500D01*
X200750D01*
Y126500D01*
X199750Y127500D01*
X200750Y128500D01*
Y129500D01*
X199750D01*
X198750Y128500D01*
X197750Y129500D01*
X196750D01*
Y128500D01*
X197750Y127500D01*
X196750Y126500D01*
Y125500D01*
X193000Y118000D02*
X194000D01*
X195000Y119000D01*
X196000Y118000D01*
X197000D01*
Y119000D01*
X196000Y120000D01*
X197000Y121000D01*
Y122000D01*
X196000D01*
X195000Y121000D01*
X194000Y122000D01*
X193000D01*
Y121000D01*
X194000Y120000D01*
X193000Y119000D01*
Y118000D01*
X294000Y194000D02*
Y193000D01*
X296000D01*
Y194000D01*
X297000D01*
Y196000D01*
X296000D01*
Y197000D01*
X294000D01*
Y196000D01*
X293000D01*
Y194000D01*
X294000D01*
X319949Y272828D02*
Y271828D01*
X321949D01*
Y272828D01*
X322949D01*
Y274828D01*
X321949D01*
Y275828D01*
X319949D01*
Y274828D01*
X318949D01*
Y272828D01*
X319949D01*
X301500Y194500D02*
Y193500D01*
X303500D01*
Y194500D01*
X304500D01*
Y196500D01*
X303500D01*
Y197500D01*
X301500D01*
Y196500D01*
X300500D01*
Y194500D01*
X301500D01*
X319753Y262968D02*
Y261968D01*
X321753D01*
Y262968D01*
X322753D01*
Y264968D01*
X321753D01*
Y265968D01*
X319753D01*
Y264968D01*
X318753D01*
Y262968D01*
X319753D01*
X318500Y242500D02*
Y241500D01*
X320500D01*
Y242500D01*
X321500D01*
Y244500D01*
X320500D01*
Y245500D01*
X318500D01*
Y244500D01*
X317500D01*
Y242500D01*
X318500D01*
X318000Y221000D02*
Y220000D01*
X320000D01*
Y221000D01*
X321000D01*
Y223000D01*
X320000D01*
Y224000D01*
X318000D01*
Y223000D01*
X317000D01*
Y221000D01*
X318000D01*
X213000Y188500D02*
Y187500D01*
X215000D01*
Y188500D01*
X216000D01*
Y190500D01*
X215000D01*
Y191500D01*
X213000D01*
Y190500D01*
X212000D01*
Y188500D01*
X213000D01*
X314500Y189000D02*
Y188000D01*
X316500D01*
Y189000D01*
X317500D01*
Y191000D01*
X316500D01*
Y192000D01*
X314500D01*
Y191000D01*
X313500D01*
Y189000D01*
X314500D01*
X272000Y194500D02*
Y193500D01*
X274000D01*
Y194500D01*
X275000D01*
Y196500D01*
X274000D01*
Y197500D01*
X272000D01*
Y196500D01*
X271000D01*
Y194500D01*
X272000D01*
X294538Y296625D02*
Y295625D01*
X296538D01*
Y296625D01*
X297538D01*
Y298625D01*
X296538D01*
Y299625D01*
X294538D01*
Y298625D01*
X293538D01*
Y296625D01*
X294538D01*
X281349Y194701D02*
Y193701D01*
X283349D01*
Y194701D01*
X284349D01*
Y196701D01*
X283349D01*
Y197701D01*
X281349D01*
Y196701D01*
X280349D01*
Y194701D01*
X281349D01*
X284669Y296535D02*
Y295535D01*
X286669D01*
Y296535D01*
X287669D01*
Y298535D01*
X286669D01*
Y299535D01*
X284669D01*
Y298535D01*
X283669D01*
Y296535D01*
X284669D01*
X264000Y295000D02*
Y294000D01*
X266000D01*
Y295000D01*
X267000D01*
Y297000D01*
X266000D01*
Y298000D01*
X264000D01*
Y297000D01*
X263000D01*
Y295000D01*
X264000D01*
X215000Y231500D02*
Y230500D01*
X217000D01*
Y231500D01*
X218000D01*
Y233500D01*
X217000D01*
Y234500D01*
X215000D01*
Y233500D01*
X214000D01*
Y231500D01*
X215000D01*
X205500Y294500D02*
Y293500D01*
X207500D01*
Y294500D01*
X208500D01*
Y296500D01*
X207500D01*
Y297500D01*
X205500D01*
Y296500D01*
X204500D01*
Y294500D01*
X205500D01*
X275136Y229731D02*
Y228731D01*
X277136D01*
Y229731D01*
X278136D01*
Y231731D01*
X277136D01*
Y232731D01*
X275136D01*
Y231731D01*
X274136D01*
Y229731D01*
X275136D01*
X266000Y132500D02*
Y131500D01*
X268000D01*
Y132500D01*
X269000D01*
Y134500D01*
X268000D01*
Y135500D01*
X266000D01*
Y134500D01*
X265000D01*
Y132500D01*
X266000D01*
X254000Y158500D02*
Y157500D01*
X256000D01*
Y158500D01*
X257000D01*
Y160500D01*
X256000D01*
Y161500D01*
X254000D01*
Y160500D01*
X253000D01*
Y158500D01*
X254000D01*
X288000Y104500D02*
Y103500D01*
X290000D01*
Y104500D01*
X291000D01*
Y106500D01*
X290000D01*
Y107500D01*
X288000D01*
Y106500D01*
X287000D01*
Y104500D01*
X288000D01*
X308000Y104000D02*
Y103000D01*
X310000D01*
Y104000D01*
X311000D01*
Y106000D01*
X310000D01*
Y107000D01*
X308000D01*
Y106000D01*
X307000D01*
Y104000D01*
X308000D01*
X258000Y116500D02*
Y115500D01*
X260000D01*
Y116500D01*
X261000D01*
Y118500D01*
X260000D01*
Y119500D01*
X258000D01*
Y118500D01*
X257000D01*
Y116500D01*
X258000D01*
D51*
X211000Y276000D02*
G03*
X211000Y276000I-2000J0D01*
G01*
X221000D02*
G03*
X221000Y276000I-2000J0D01*
G01*
X231000D02*
G03*
X231000Y276000I-2000J0D01*
G01*
M02*
