G04*
G04 #@! TF.GenerationSoftware,Altium Limited,Altium Designer,25.3.3 (18)*
G04*
G04 Layer_Color=16711935*
%FSLAX25Y25*%
%MOIN*%
G70*
G04*
G04 #@! TF.SameCoordinates,2E22F27B-A00B-49EA-A22F-E70647FCC6C8*
G04*
G04*
G04 #@! TF.FilePolarity,Positive*
G04*
G01*
G75*
%ADD10C,0.00787*%
%ADD14C,0.00500*%
%ADD43C,0.00000*%
%ADD48C,0.00394*%
%ADD49C,0.00100*%
D10*
X329323Y211653D02*
G03*
X329323Y211653I-394J0D01*
G01*
D14*
X330268Y175748D02*
Y204252D01*
X193732Y175748D02*
X330268D01*
X193732D02*
Y204252D01*
X330268D01*
D43*
X337200Y234000D02*
G03*
X337200Y234000I-1000J0D01*
G01*
X266500Y306800D02*
G03*
X266500Y306800I-1000J0D01*
G01*
X206000D02*
G03*
X206000Y306800I-1000J0D01*
G01*
D48*
X311055Y213630D02*
X317945D01*
X311055Y217370D02*
X317945D01*
Y213630D02*
Y217370D01*
X311055Y213630D02*
Y217370D01*
X325228Y213653D02*
X328772D01*
X325228Y220346D02*
X328772D01*
X325228Y213653D02*
Y220346D01*
X328772Y213653D02*
Y220346D01*
X203228Y254153D02*
X206772D01*
X203228Y260846D02*
X206772D01*
X203228Y254153D02*
Y260846D01*
X206772Y254153D02*
Y260846D01*
X219945Y253130D02*
Y256870D01*
X213055Y253130D02*
Y256870D01*
Y253130D02*
X219945D01*
X213055Y256870D02*
X219945D01*
X225728Y254654D02*
X229272D01*
X225728Y261347D02*
X229272D01*
X225728Y254654D02*
Y261347D01*
X229272Y254654D02*
Y261347D01*
X199456Y214622D02*
Y218362D01*
X206346Y214622D02*
Y218362D01*
X199456D02*
X206346D01*
X199456Y214622D02*
X206346D01*
X218213Y162630D02*
Y166370D01*
X225102Y162630D02*
Y166370D01*
X218213D02*
X225102D01*
X218213Y162630D02*
X225102D01*
X224272Y132106D02*
Y138799D01*
X220728Y132106D02*
Y138799D01*
X224272D01*
X220728Y132106D02*
X224272D01*
X331728Y134894D02*
X335272D01*
X331728Y128201D02*
X335272D01*
Y134894D01*
X331728Y128201D02*
Y134894D01*
X262602Y218130D02*
Y221870D01*
X255713Y218130D02*
Y221870D01*
Y218130D02*
X262602D01*
X255713Y221870D02*
X262602D01*
X253555Y246130D02*
Y249870D01*
X260445Y246130D02*
Y249870D01*
X253555D02*
X260445D01*
X253555Y246130D02*
X260445D01*
X293602Y218130D02*
Y221870D01*
X286713Y218130D02*
Y221870D01*
Y218130D02*
X293602D01*
X286713Y221870D02*
X293602D01*
X284555Y245130D02*
Y248870D01*
X291445Y245130D02*
Y248870D01*
X284555D02*
X291445D01*
X284555Y245130D02*
X291445D01*
X242945Y217130D02*
Y220870D01*
X236055Y217130D02*
Y220870D01*
Y217130D02*
X242945D01*
X236055Y220870D02*
X242945D01*
X319398Y159130D02*
Y162870D01*
X326287Y159130D02*
Y162870D01*
X319398D02*
X326287D01*
X319398Y159130D02*
X326287D01*
X237728Y238299D02*
X241272D01*
X237728Y231606D02*
X241272D01*
Y238299D01*
X237728Y231606D02*
Y238299D01*
X202630Y228555D02*
X206370D01*
X202630Y235445D02*
X206370D01*
X202630Y228555D02*
Y235445D01*
X206370Y228555D02*
Y235445D01*
X244130Y154398D02*
X247870D01*
X244130Y161287D02*
X247870D01*
X244130Y154398D02*
Y161287D01*
X247870Y154398D02*
Y161287D01*
X244130Y140055D02*
X247870D01*
X244130Y146945D02*
X247870D01*
X244130Y140055D02*
Y146945D01*
X247870Y140055D02*
Y146945D01*
X220728Y118106D02*
X224272D01*
X220728Y124799D02*
X224272D01*
X220728Y118106D02*
Y124799D01*
X224272Y118106D02*
Y124799D01*
X315228Y128154D02*
X318772D01*
X315228Y134846D02*
X318772D01*
X315228Y128154D02*
Y134846D01*
X318772Y128154D02*
Y134846D01*
X295728Y128201D02*
X299272D01*
X295728Y134894D02*
X299272D01*
X295728Y128201D02*
Y134894D01*
X299272Y128201D02*
Y134894D01*
D49*
X328300Y289000D02*
X337700D01*
Y229000D02*
Y289000D01*
X328300Y229000D02*
Y289000D01*
Y229000D02*
X337700D01*
X300500Y305300D02*
Y314700D01*
X260500Y305300D02*
X300500D01*
X260500Y314700D02*
X300500D01*
X260500Y305300D02*
Y314700D01*
X240000Y305300D02*
Y314700D01*
X200000Y305300D02*
X240000D01*
X200000Y314700D02*
X240000D01*
X200000Y305300D02*
Y314700D01*
M02*
