G04*
G04 #@! TF.GenerationSoftware,Altium Limited,Altium Designer,25.3.3 (18)*
G04*
G04 Layer_Color=128*
%FSLAX25Y25*%
%MOIN*%
G70*
G04*
G04 #@! TF.SameCoordinates,2E22F27B-A00B-49EA-A22F-E70647FCC6C8*
G04*
G04*
G04 #@! TF.FilePolarity,Positive*
G04*
G01*
G75*
%ADD14C,0.00500*%
D14*
X331000Y274000D02*
X335000D01*
X333000Y272000D02*
Y276000D01*
X331000Y264000D02*
X335000D01*
X333000Y262000D02*
Y266000D01*
X331000Y254000D02*
X335000D01*
X333000Y252000D02*
Y256000D01*
X331000Y244000D02*
X335000D01*
X333000Y242000D02*
Y246000D01*
X331100Y234000D02*
X334900D01*
X333000Y232100D02*
Y235900D01*
X331000Y284000D02*
X335000D01*
X333000Y282000D02*
Y286000D01*
X325366Y205500D02*
X328634D01*
X327000Y203866D02*
Y207134D01*
X315366Y205500D02*
X318634D01*
X317000Y203866D02*
Y207134D01*
X305366Y205500D02*
X308634D01*
X307000Y203866D02*
Y207134D01*
X295366Y205500D02*
X298634D01*
X297000Y203866D02*
Y207134D01*
X285366Y205500D02*
X288634D01*
X287000Y203866D02*
Y207134D01*
X275366Y205500D02*
X278634D01*
X277000Y203866D02*
Y207134D01*
X265366Y205500D02*
X268634D01*
X267000Y203866D02*
Y207134D01*
X255366Y205500D02*
X258634D01*
X257000Y203866D02*
Y207134D01*
X245366Y205500D02*
X248634D01*
X247000Y203866D02*
Y207134D01*
X235366Y205500D02*
X238634D01*
X237000Y203866D02*
Y207134D01*
X225366Y205500D02*
X228634D01*
X227000Y203866D02*
Y207134D01*
X215366Y205500D02*
X218634D01*
X217000Y203866D02*
Y207134D01*
X205366Y205500D02*
X208634D01*
X207000Y203866D02*
Y207134D01*
X195366Y205500D02*
X198634D01*
X197000Y203866D02*
Y207134D01*
X195366Y174500D02*
X198634D01*
X197000Y172866D02*
Y176134D01*
X205366Y174500D02*
X208634D01*
X207000Y172866D02*
Y176134D01*
X215366Y174500D02*
X218634D01*
X217000Y172866D02*
Y176134D01*
X225366Y174500D02*
X228634D01*
X227000Y172866D02*
Y176134D01*
X235366Y174500D02*
X238634D01*
X237000Y172866D02*
Y176134D01*
X245366Y174500D02*
X248634D01*
X247000Y172866D02*
Y176134D01*
X255366Y174500D02*
X258634D01*
X257000Y172866D02*
Y176134D01*
X265366Y174500D02*
X268634D01*
X267000Y172866D02*
Y176134D01*
X275366Y174500D02*
X278634D01*
X277000Y172866D02*
Y176134D01*
X285366Y174500D02*
X288634D01*
X287000Y172866D02*
Y176134D01*
X295366Y174500D02*
X298634D01*
X297000Y172866D02*
Y176134D01*
X305366Y174500D02*
X308634D01*
X307000Y172866D02*
Y176134D01*
X315366Y174500D02*
X318634D01*
X317000Y172866D02*
Y176134D01*
X325366Y174500D02*
X328634D01*
X327000Y172866D02*
Y176134D01*
X207228Y276000D02*
X210772D01*
X209000Y274228D02*
Y277772D01*
X217228Y276000D02*
X220772D01*
X219000Y274228D02*
Y277772D01*
X227228Y276000D02*
X230772D01*
X229000Y274228D02*
Y277772D01*
X293500Y310000D02*
X297500D01*
X295500Y308000D02*
Y312000D01*
X283500Y310000D02*
X287500D01*
X285500Y308000D02*
Y312000D01*
X273500Y310000D02*
X277500D01*
X275500Y308000D02*
Y312000D01*
X263600Y310000D02*
X267400D01*
X265500Y308100D02*
Y311900D01*
X233000Y310000D02*
X237000D01*
X235000Y308000D02*
Y312000D01*
X223000Y310000D02*
X227000D01*
X225000Y308000D02*
Y312000D01*
X213000Y310000D02*
X217000D01*
X215000Y308000D02*
Y312000D01*
X203100Y310000D02*
X206900D01*
X205000Y308100D02*
Y311900D01*
X267646Y110653D02*
X272370D01*
X270008Y108291D02*
Y113016D01*
X233630Y110653D02*
X238354D01*
X235992Y108291D02*
Y113016D01*
X267646Y125614D02*
X272370D01*
X270008Y123252D02*
Y127976D01*
X233630Y125614D02*
X238354D01*
X235992Y123252D02*
Y127976D01*
X333250Y292500D02*
X334250D01*
X333750Y292000D02*
Y293000D01*
X329500Y270000D02*
X330500D01*
X330000Y269500D02*
Y270500D01*
X329500Y240000D02*
X330500D01*
X330000Y239500D02*
Y240500D01*
X333250Y217500D02*
X334250D01*
X333750Y217000D02*
Y218000D01*
X333250Y202500D02*
X334250D01*
X333750Y202000D02*
Y203000D01*
X329500Y195000D02*
X330500D01*
X330000Y194500D02*
Y195500D01*
X333250Y187500D02*
X334250D01*
X333750Y187000D02*
Y188000D01*
X329500Y180000D02*
X330500D01*
X330000Y179500D02*
Y180500D01*
X333250Y172500D02*
X334250D01*
X333750Y172000D02*
Y173000D01*
X329500Y165000D02*
X330500D01*
X330000Y164500D02*
Y165500D01*
X333250Y157500D02*
X334250D01*
X333750Y157000D02*
Y158000D01*
X329500Y150000D02*
X330500D01*
X330000Y149500D02*
Y150500D01*
X333250Y142500D02*
X334250D01*
X333750Y142000D02*
Y143000D01*
X329500Y120000D02*
X330500D01*
X330000Y119500D02*
Y120500D01*
X329500Y105000D02*
X330500D01*
X330000Y104500D02*
Y105500D01*
X322000Y300000D02*
X323000D01*
X322500Y299500D02*
Y300500D01*
X325750Y292500D02*
X326750D01*
X326250Y292000D02*
Y293000D01*
X322000Y285000D02*
X323000D01*
X322500Y284500D02*
Y285500D01*
X325750Y277500D02*
X326750D01*
X326250Y277000D02*
Y278000D01*
X322000Y255000D02*
X323000D01*
X322500Y254500D02*
Y255500D01*
X325750Y247500D02*
X326750D01*
X326250Y247000D02*
Y248000D01*
X322000Y240000D02*
X323000D01*
X322500Y239500D02*
Y240500D01*
X325750Y232500D02*
X326750D01*
X326250Y232000D02*
Y233000D01*
X322000Y225000D02*
X323000D01*
X322500Y224500D02*
Y225500D01*
X322000Y210000D02*
X323000D01*
X322500Y209500D02*
Y210500D01*
X322000Y195000D02*
X323000D01*
X322500Y194500D02*
Y195500D01*
X325750Y187500D02*
X326750D01*
X326250Y187000D02*
Y188000D01*
X322000Y165000D02*
X323000D01*
X322500Y164500D02*
Y165500D01*
X322000Y150000D02*
X323000D01*
X322500Y149500D02*
Y150500D01*
X325750Y142500D02*
X326750D01*
X326250Y142000D02*
Y143000D01*
X325750Y127500D02*
X326750D01*
X326250Y127000D02*
Y128000D01*
X322000Y120000D02*
X323000D01*
X322500Y119500D02*
Y120500D01*
X325750Y112500D02*
X326750D01*
X326250Y112000D02*
Y113000D01*
X322000Y105000D02*
X323000D01*
X322500Y104500D02*
Y105500D01*
X318250Y307500D02*
X319250D01*
X318750Y307000D02*
Y308000D01*
X314500Y300000D02*
X315500D01*
X315000Y299500D02*
Y300500D01*
X318250Y292500D02*
X319250D01*
X318750Y292000D02*
Y293000D01*
X314500Y285000D02*
X315500D01*
X315000Y284500D02*
Y285500D01*
X318250Y277500D02*
X319250D01*
X318750Y277000D02*
Y278000D01*
X314500Y270000D02*
X315500D01*
X315000Y269500D02*
Y270500D01*
X314500Y255000D02*
X315500D01*
X315000Y254500D02*
Y255500D01*
X318250Y247500D02*
X319250D01*
X318750Y247000D02*
Y248000D01*
X314500Y240000D02*
X315500D01*
X315000Y239500D02*
Y240500D01*
X318250Y232500D02*
X319250D01*
X318750Y232000D02*
Y233000D01*
X314500Y225000D02*
X315500D01*
X315000Y224500D02*
Y225500D01*
X314500Y210000D02*
X315500D01*
X315000Y209500D02*
Y210500D01*
X314500Y195000D02*
X315500D01*
X315000Y194500D02*
Y195500D01*
X318250Y187500D02*
X319250D01*
X318750Y187000D02*
Y188000D01*
X314500Y180000D02*
X315500D01*
X315000Y179500D02*
Y180500D01*
X314500Y165000D02*
X315500D01*
X315000Y164500D02*
Y165500D01*
X318250Y157500D02*
X319250D01*
X318750Y157000D02*
Y158000D01*
X314500Y150000D02*
X315500D01*
X315000Y149500D02*
Y150500D01*
X318250Y142500D02*
X319250D01*
X318750Y142000D02*
Y143000D01*
X314500Y105000D02*
X315500D01*
X315000Y104500D02*
Y105500D01*
X310750Y307500D02*
X311750D01*
X311250Y307000D02*
Y308000D01*
X307000Y300000D02*
X308000D01*
X307500Y299500D02*
Y300500D01*
X310750Y292500D02*
X311750D01*
X311250Y292000D02*
Y293000D01*
X307000Y285000D02*
X308000D01*
X307500Y284500D02*
Y285500D01*
X310750Y277500D02*
X311750D01*
X311250Y277000D02*
Y278000D01*
X307000Y270000D02*
X308000D01*
X307500Y269500D02*
Y270500D01*
X310750Y247500D02*
X311750D01*
X311250Y247000D02*
Y248000D01*
X307000Y240000D02*
X308000D01*
X307500Y239500D02*
Y240500D01*
X310750Y232500D02*
X311750D01*
X311250Y232000D02*
Y233000D01*
X307000Y225000D02*
X308000D01*
X307500Y224500D02*
Y225500D01*
X310750Y202500D02*
X311750D01*
X311250Y202000D02*
Y203000D01*
X307000Y195000D02*
X308000D01*
X307500Y194500D02*
Y195500D01*
X310750Y187500D02*
X311750D01*
X311250Y187000D02*
Y188000D01*
X307000Y180000D02*
X308000D01*
X307500Y179500D02*
Y180500D01*
X310750Y172500D02*
X311750D01*
X311250Y172000D02*
Y173000D01*
X307000Y165000D02*
X308000D01*
X307500Y164500D02*
Y165500D01*
X310750Y157500D02*
X311750D01*
X311250Y157000D02*
Y158000D01*
X307000Y150000D02*
X308000D01*
X307500Y149500D02*
Y150500D01*
X310750Y142500D02*
X311750D01*
X311250Y142000D02*
Y143000D01*
X307000Y135000D02*
X308000D01*
X307500Y134500D02*
Y135500D01*
X310750Y127500D02*
X311750D01*
X311250Y127000D02*
Y128000D01*
X307000Y120000D02*
X308000D01*
X307500Y119500D02*
Y120500D01*
X310750Y112500D02*
X311750D01*
X311250Y112000D02*
Y113000D01*
X303250Y307500D02*
X304250D01*
X303750Y307000D02*
Y308000D01*
X299500Y300000D02*
X300500D01*
X300000Y299500D02*
Y300500D01*
X303250Y292500D02*
X304250D01*
X303750Y292000D02*
Y293000D01*
X299500Y285000D02*
X300500D01*
X300000Y284500D02*
Y285500D01*
X303250Y277500D02*
X304250D01*
X303750Y277000D02*
Y278000D01*
X299500Y270000D02*
X300500D01*
X300000Y269500D02*
Y270500D01*
X303250Y262500D02*
X304250D01*
X303750Y262000D02*
Y263000D01*
X299500Y255000D02*
X300500D01*
X300000Y254500D02*
Y255500D01*
X303250Y187500D02*
X304250D01*
X303750Y187000D02*
Y188000D01*
X299500Y165000D02*
X300500D01*
X300000Y164500D02*
Y165500D01*
X303250Y157500D02*
X304250D01*
X303750Y157000D02*
Y158000D01*
X303250Y142500D02*
X304250D01*
X303750Y142000D02*
Y143000D01*
X303250Y127500D02*
X304250D01*
X303750Y127000D02*
Y128000D01*
X299500Y105000D02*
X300500D01*
X300000Y104500D02*
Y105500D01*
X292000Y285000D02*
X293000D01*
X292500Y284500D02*
Y285500D01*
X292000Y270000D02*
X293000D01*
X292500Y269500D02*
Y270500D01*
X292000Y255000D02*
X293000D01*
X292500Y254500D02*
Y255500D01*
X292000Y210000D02*
X293000D01*
X292500Y209500D02*
Y210500D01*
X292000Y180000D02*
X293000D01*
X292500Y179500D02*
Y180500D01*
X292000Y165000D02*
X293000D01*
X292500Y164500D02*
Y165500D01*
X292000Y150000D02*
X293000D01*
X292500Y149500D02*
Y150500D01*
X295750Y142500D02*
X296750D01*
X296250Y142000D02*
Y143000D01*
X292000Y135000D02*
X293000D01*
X292500Y134500D02*
Y135500D01*
X292000Y120000D02*
X293000D01*
X292500Y119500D02*
Y120500D01*
X288250Y292500D02*
X289250D01*
X288750Y292000D02*
Y293000D01*
X288250Y277500D02*
X289250D01*
X288750Y277000D02*
Y278000D01*
X288250Y262500D02*
X289250D01*
X288750Y262000D02*
Y263000D01*
X284500Y210000D02*
X285500D01*
X285000Y209500D02*
Y210500D01*
X288250Y187500D02*
X289250D01*
X288750Y187000D02*
Y188000D01*
X284500Y180000D02*
X285500D01*
X285000Y179500D02*
Y180500D01*
X284500Y165000D02*
X285500D01*
X285000Y164500D02*
Y165500D01*
X288250Y157500D02*
X289250D01*
X288750Y157000D02*
Y158000D01*
X284500Y150000D02*
X285500D01*
X285000Y149500D02*
Y150500D01*
X288250Y142500D02*
X289250D01*
X288750Y142000D02*
Y143000D01*
X284500Y135000D02*
X285500D01*
X285000Y134500D02*
Y135500D01*
X288250Y127500D02*
X289250D01*
X288750Y127000D02*
Y128000D01*
X284500Y120000D02*
X285500D01*
X285000Y119500D02*
Y120500D01*
X288250Y112500D02*
X289250D01*
X288750Y112000D02*
Y113000D01*
X284500Y105000D02*
X285500D01*
X285000Y104500D02*
Y105500D01*
X280750Y307500D02*
X281750D01*
X281250Y307000D02*
Y308000D01*
X277000Y300000D02*
X278000D01*
X277500Y299500D02*
Y300500D01*
X280750Y292500D02*
X281750D01*
X281250Y292000D02*
Y293000D01*
X277000Y285000D02*
X278000D01*
X277500Y284500D02*
Y285500D01*
X280750Y277500D02*
X281750D01*
X281250Y277000D02*
Y278000D01*
X277000Y270000D02*
X278000D01*
X277500Y269500D02*
Y270500D01*
X280750Y262500D02*
X281750D01*
X281250Y262000D02*
Y263000D01*
X277000Y255000D02*
X278000D01*
X277500Y254500D02*
Y255500D01*
X280750Y247500D02*
X281750D01*
X281250Y247000D02*
Y248000D01*
X277000Y240000D02*
X278000D01*
X277500Y239500D02*
Y240500D01*
X277000Y225000D02*
X278000D01*
X277500Y224500D02*
Y225500D01*
X277000Y210000D02*
X278000D01*
X277500Y209500D02*
Y210500D01*
X277000Y195000D02*
X278000D01*
X277500Y194500D02*
Y195500D01*
X280750Y187500D02*
X281750D01*
X281250Y187000D02*
Y188000D01*
X277000Y180000D02*
X278000D01*
X277500Y179500D02*
Y180500D01*
X280750Y172500D02*
X281750D01*
X281250Y172000D02*
Y173000D01*
X277000Y165000D02*
X278000D01*
X277500Y164500D02*
Y165500D01*
X280750Y157500D02*
X281750D01*
X281250Y157000D02*
Y158000D01*
X277000Y150000D02*
X278000D01*
X277500Y149500D02*
Y150500D01*
X280750Y142500D02*
X281750D01*
X281250Y142000D02*
Y143000D01*
X277000Y135000D02*
X278000D01*
X277500Y134500D02*
Y135500D01*
X280750Y127500D02*
X281750D01*
X281250Y127000D02*
Y128000D01*
X277000Y120000D02*
X278000D01*
X277500Y119500D02*
Y120500D01*
X280750Y112500D02*
X281750D01*
X281250Y112000D02*
Y113000D01*
X277000Y105000D02*
X278000D01*
X277500Y104500D02*
Y105500D01*
X269500Y300000D02*
X270500D01*
X270000Y299500D02*
Y300500D01*
X273250Y292500D02*
X274250D01*
X273750Y292000D02*
Y293000D01*
X269500Y285000D02*
X270500D01*
X270000Y284500D02*
Y285500D01*
X273250Y277500D02*
X274250D01*
X273750Y277000D02*
Y278000D01*
X269500Y270000D02*
X270500D01*
X270000Y269500D02*
Y270500D01*
X273250Y262500D02*
X274250D01*
X273750Y262000D02*
Y263000D01*
X269500Y255000D02*
X270500D01*
X270000Y254500D02*
Y255500D01*
X273250Y247500D02*
X274250D01*
X273750Y247000D02*
Y248000D01*
X269500Y240000D02*
X270500D01*
X270000Y239500D02*
Y240500D01*
X269500Y225000D02*
X270500D01*
X270000Y224500D02*
Y225500D01*
X273250Y217500D02*
X274250D01*
X273750Y217000D02*
Y218000D01*
X269500Y210000D02*
X270500D01*
X270000Y209500D02*
Y210500D01*
X273250Y202500D02*
X274250D01*
X273750Y202000D02*
Y203000D01*
X273250Y187500D02*
X274250D01*
X273750Y187000D02*
Y188000D01*
X269500Y180000D02*
X270500D01*
X270000Y179500D02*
Y180500D01*
X269500Y165000D02*
X270500D01*
X270000Y164500D02*
Y165500D01*
X273250Y157500D02*
X274250D01*
X273750Y157000D02*
Y158000D01*
X269500Y150000D02*
X270500D01*
X270000Y149500D02*
Y150500D01*
X273250Y142500D02*
X274250D01*
X273750Y142000D02*
Y143000D01*
X273250Y127500D02*
X274250D01*
X273750Y127000D02*
Y128000D01*
X269500Y120000D02*
X270500D01*
X270000Y119500D02*
Y120500D01*
X273250Y112500D02*
X274250D01*
X273750Y112000D02*
Y113000D01*
X269500Y105000D02*
X270500D01*
X270000Y104500D02*
Y105500D01*
X262000Y300000D02*
X263000D01*
X262500Y299500D02*
Y300500D01*
X262000Y285000D02*
X263000D01*
X262500Y284500D02*
Y285500D01*
X265750Y277500D02*
X266750D01*
X266250Y277000D02*
Y278000D01*
X262000Y270000D02*
X263000D01*
X262500Y269500D02*
Y270500D01*
X265750Y262500D02*
X266750D01*
X266250Y262000D02*
Y263000D01*
X262000Y255000D02*
X263000D01*
X262500Y254500D02*
Y255500D01*
X265750Y247500D02*
X266750D01*
X266250Y247000D02*
Y248000D01*
X265750Y232500D02*
X266750D01*
X266250Y232000D02*
Y233000D01*
X265750Y187500D02*
X266750D01*
X266250Y187000D02*
Y188000D01*
X265750Y157500D02*
X266750D01*
X266250Y157000D02*
Y158000D01*
X262000Y120000D02*
X263000D01*
X262500Y119500D02*
Y120500D01*
X265750Y112500D02*
X266750D01*
X266250Y112000D02*
Y113000D01*
X262000Y105000D02*
X263000D01*
X262500Y104500D02*
Y105500D01*
X258250Y307500D02*
X259250D01*
X258750Y307000D02*
Y308000D01*
X254500Y300000D02*
X255500D01*
X255000Y299500D02*
Y300500D01*
X258250Y292500D02*
X259250D01*
X258750Y292000D02*
Y293000D01*
X254500Y285000D02*
X255500D01*
X255000Y284500D02*
Y285500D01*
X258250Y277500D02*
X259250D01*
X258750Y277000D02*
Y278000D01*
X254500Y270000D02*
X255500D01*
X255000Y269500D02*
Y270500D01*
X258250Y262500D02*
X259250D01*
X258750Y262000D02*
Y263000D01*
X254500Y255000D02*
X255500D01*
X255000Y254500D02*
Y255500D01*
X254500Y210000D02*
X255500D01*
X255000Y209500D02*
Y210500D01*
X254500Y195000D02*
X255500D01*
X255000Y194500D02*
Y195500D01*
X258250Y187500D02*
X259250D01*
X258750Y187000D02*
Y188000D01*
X254500Y180000D02*
X255500D01*
X255000Y179500D02*
Y180500D01*
X254500Y165000D02*
X255500D01*
X255000Y164500D02*
Y165500D01*
X254500Y150000D02*
X255500D01*
X255000Y149500D02*
Y150500D01*
X254500Y120000D02*
X255500D01*
X255000Y119500D02*
Y120500D01*
X258250Y112500D02*
X259250D01*
X258750Y112000D02*
Y113000D01*
X254500Y105000D02*
X255500D01*
X255000Y104500D02*
Y105500D01*
X250750Y307500D02*
X251750D01*
X251250Y307000D02*
Y308000D01*
X247000Y300000D02*
X248000D01*
X247500Y299500D02*
Y300500D01*
X250750Y292500D02*
X251750D01*
X251250Y292000D02*
Y293000D01*
X247000Y285000D02*
X248000D01*
X247500Y284500D02*
Y285500D01*
X250750Y277500D02*
X251750D01*
X251250Y277000D02*
Y278000D01*
X247000Y270000D02*
X248000D01*
X247500Y269500D02*
Y270500D01*
X250750Y262500D02*
X251750D01*
X251250Y262000D02*
Y263000D01*
X247000Y255000D02*
X248000D01*
X247500Y254500D02*
Y255500D01*
X247000Y240000D02*
X248000D01*
X247500Y239500D02*
Y240500D01*
X250750Y232500D02*
X251750D01*
X251250Y232000D02*
Y233000D01*
X247000Y225000D02*
X248000D01*
X247500Y224500D02*
Y225500D01*
X250750Y217500D02*
X251750D01*
X251250Y217000D02*
Y218000D01*
X250750Y202500D02*
X251750D01*
X251250Y202000D02*
Y203000D01*
X247000Y195000D02*
X248000D01*
X247500Y194500D02*
Y195500D01*
X250750Y187500D02*
X251750D01*
X251250Y187000D02*
Y188000D01*
X247000Y180000D02*
X248000D01*
X247500Y179500D02*
Y180500D01*
X250750Y172500D02*
X251750D01*
X251250Y172000D02*
Y173000D01*
X247000Y165000D02*
X248000D01*
X247500Y164500D02*
Y165500D01*
X250750Y157500D02*
X251750D01*
X251250Y157000D02*
Y158000D01*
X247000Y150000D02*
X248000D01*
X247500Y149500D02*
Y150500D01*
X247000Y135000D02*
X248000D01*
X247500Y134500D02*
Y135500D01*
X250750Y112500D02*
X251750D01*
X251250Y112000D02*
Y113000D01*
X247000Y105000D02*
X248000D01*
X247500Y104500D02*
Y105500D01*
X243250Y307500D02*
X244250D01*
X243750Y307000D02*
Y308000D01*
X239500Y300000D02*
X240500D01*
X240000Y299500D02*
Y300500D01*
X243250Y292500D02*
X244250D01*
X243750Y292000D02*
Y293000D01*
X239500Y285000D02*
X240500D01*
X240000Y284500D02*
Y285500D01*
X243250Y277500D02*
X244250D01*
X243750Y277000D02*
Y278000D01*
X239500Y270000D02*
X240500D01*
X240000Y269500D02*
Y270500D01*
X243250Y262500D02*
X244250D01*
X243750Y262000D02*
Y263000D01*
X239500Y255000D02*
X240500D01*
X240000Y254500D02*
Y255500D01*
X243250Y247500D02*
X244250D01*
X243750Y247000D02*
Y248000D01*
X243250Y232500D02*
X244250D01*
X243750Y232000D02*
Y233000D01*
X239500Y225000D02*
X240500D01*
X240000Y224500D02*
Y225500D01*
X243250Y202500D02*
X244250D01*
X243750Y202000D02*
Y203000D01*
X239500Y195000D02*
X240500D01*
X240000Y194500D02*
Y195500D01*
X243250Y187500D02*
X244250D01*
X243750Y187000D02*
Y188000D01*
X239500Y180000D02*
X240500D01*
X240000Y179500D02*
Y180500D01*
X239500Y165000D02*
X240500D01*
X240000Y164500D02*
Y165500D01*
X239500Y150000D02*
X240500D01*
X240000Y149500D02*
Y150500D01*
X239500Y135000D02*
X240500D01*
X240000Y134500D02*
Y135500D01*
X243250Y112500D02*
X244250D01*
X243750Y112000D02*
Y113000D01*
X239500Y105000D02*
X240500D01*
X240000Y104500D02*
Y105500D01*
X232000Y300000D02*
X233000D01*
X232500Y299500D02*
Y300500D01*
X235750Y292500D02*
X236750D01*
X236250Y292000D02*
Y293000D01*
X232000Y285000D02*
X233000D01*
X232500Y284500D02*
Y285500D01*
X235750Y277500D02*
X236750D01*
X236250Y277000D02*
Y278000D01*
X232000Y270000D02*
X233000D01*
X232500Y269500D02*
Y270500D01*
X235750Y262500D02*
X236750D01*
X236250Y262000D02*
Y263000D01*
X232000Y255000D02*
X233000D01*
X232500Y254500D02*
Y255500D01*
X235750Y247500D02*
X236750D01*
X236250Y247000D02*
Y248000D01*
X232000Y240000D02*
X233000D01*
X232500Y239500D02*
Y240500D01*
X235750Y187500D02*
X236750D01*
X236250Y187000D02*
Y188000D01*
X235750Y157500D02*
X236750D01*
X236250Y157000D02*
Y158000D01*
X232000Y150000D02*
X233000D01*
X232500Y149500D02*
Y150500D01*
X235750Y142500D02*
X236750D01*
X236250Y142000D02*
Y143000D01*
X232000Y135000D02*
X233000D01*
X232500Y134500D02*
Y135500D01*
X232000Y105000D02*
X233000D01*
X232500Y104500D02*
Y105500D01*
X228250Y292500D02*
X229250D01*
X228750Y292000D02*
Y293000D01*
X224500Y270000D02*
X225500D01*
X225000Y269500D02*
Y270500D01*
X228250Y232500D02*
X229250D01*
X228750Y232000D02*
Y233000D01*
X224500Y195000D02*
X225500D01*
X225000Y194500D02*
Y195500D01*
X228250Y187500D02*
X229250D01*
X228750Y187000D02*
Y188000D01*
X224500Y180000D02*
X225500D01*
X225000Y179500D02*
Y180500D01*
X228250Y157500D02*
X229250D01*
X228750Y157000D02*
Y158000D01*
X224500Y150000D02*
X225500D01*
X225000Y149500D02*
Y150500D01*
X228250Y142500D02*
X229250D01*
X228750Y142000D02*
Y143000D01*
X228250Y112500D02*
X229250D01*
X228750Y112000D02*
Y113000D01*
X224500Y105000D02*
X225500D01*
X225000Y104500D02*
Y105500D01*
X217000Y270000D02*
X218000D01*
X217500Y269500D02*
Y270500D01*
X220750Y262500D02*
X221750D01*
X221250Y262000D02*
Y263000D01*
X217000Y210000D02*
X218000D01*
X217500Y209500D02*
Y210500D01*
X220750Y202500D02*
X221750D01*
X221250Y202000D02*
Y203000D01*
X217000Y195000D02*
X218000D01*
X217500Y194500D02*
Y195500D01*
X217000Y180000D02*
X218000D01*
X217500Y179500D02*
Y180500D01*
X220750Y172500D02*
X221750D01*
X221250Y172000D02*
Y173000D01*
X220750Y157500D02*
X221750D01*
X221250Y157000D02*
Y158000D01*
X217000Y150000D02*
X218000D01*
X217500Y149500D02*
Y150500D01*
X220750Y142500D02*
X221750D01*
X221250Y142000D02*
Y143000D01*
X217000Y135000D02*
X218000D01*
X217500Y134500D02*
Y135500D01*
X220750Y127500D02*
X221750D01*
X221250Y127000D02*
Y128000D01*
X217000Y120000D02*
X218000D01*
X217500Y119500D02*
Y120500D01*
X220750Y112500D02*
X221750D01*
X221250Y112000D02*
Y113000D01*
X217000Y105000D02*
X218000D01*
X217500Y104500D02*
Y105500D01*
X209500Y300000D02*
X210500D01*
X210000Y299500D02*
Y300500D01*
X213250Y292500D02*
X214250D01*
X213750Y292000D02*
Y293000D01*
X209500Y285000D02*
X210500D01*
X210000Y284500D02*
Y285500D01*
X213250Y262500D02*
X214250D01*
X213750Y262000D02*
Y263000D01*
X209500Y240000D02*
X210500D01*
X210000Y239500D02*
Y240500D01*
X209500Y225000D02*
X210500D01*
X210000Y224500D02*
Y225500D01*
X213250Y217500D02*
X214250D01*
X213750Y217000D02*
Y218000D01*
X209500Y210000D02*
X210500D01*
X210000Y209500D02*
Y210500D01*
X213250Y202500D02*
X214250D01*
X213750Y202000D02*
Y203000D01*
X209500Y195000D02*
X210500D01*
X210000Y194500D02*
Y195500D01*
X209500Y180000D02*
X210500D01*
X210000Y179500D02*
Y180500D01*
X209500Y165000D02*
X210500D01*
X210000Y164500D02*
Y165500D01*
X213250Y157500D02*
X214250D01*
X213750Y157000D02*
Y158000D01*
X209500Y150000D02*
X210500D01*
X210000Y149500D02*
Y150500D01*
X213250Y142500D02*
X214250D01*
X213750Y142000D02*
Y143000D01*
X209500Y135000D02*
X210500D01*
X210000Y134500D02*
Y135500D01*
X213250Y127500D02*
X214250D01*
X213750Y127000D02*
Y128000D01*
X209500Y120000D02*
X210500D01*
X210000Y119500D02*
Y120500D01*
X213250Y112500D02*
X214250D01*
X213750Y112000D02*
Y113000D01*
X209500Y105000D02*
X210500D01*
X210000Y104500D02*
Y105500D01*
X202000Y300000D02*
X203000D01*
X202500Y299500D02*
Y300500D01*
X202000Y285000D02*
X203000D01*
X202500Y284500D02*
Y285500D01*
X202000Y270000D02*
X203000D01*
X202500Y269500D02*
Y270500D01*
X205750Y247500D02*
X206750D01*
X206250Y247000D02*
Y248000D01*
X202000Y240000D02*
X203000D01*
X202500Y239500D02*
Y240500D01*
X202000Y225000D02*
X203000D01*
X202500Y224500D02*
Y225500D01*
X202000Y210000D02*
X203000D01*
X202500Y209500D02*
Y210500D01*
X202000Y195000D02*
X203000D01*
X202500Y194500D02*
Y195500D01*
X205750Y187500D02*
X206750D01*
X206250Y187000D02*
Y188000D01*
X202000Y180000D02*
X203000D01*
X202500Y179500D02*
Y180500D01*
X202000Y165000D02*
X203000D01*
X202500Y164500D02*
Y165500D01*
X205750Y157500D02*
X206750D01*
X206250Y157000D02*
Y158000D01*
X202000Y150000D02*
X203000D01*
X202500Y149500D02*
Y150500D01*
X205750Y142500D02*
X206750D01*
X206250Y142000D02*
Y143000D01*
X202000Y135000D02*
X203000D01*
X202500Y134500D02*
Y135500D01*
X205750Y127500D02*
X206750D01*
X206250Y127000D02*
Y128000D01*
X202000Y120000D02*
X203000D01*
X202500Y119500D02*
Y120500D01*
X205750Y112500D02*
X206750D01*
X206250Y112000D02*
Y113000D01*
X198250Y307500D02*
X199250D01*
X198750Y307000D02*
Y308000D01*
X194500Y300000D02*
X195500D01*
X195000Y299500D02*
Y300500D01*
X198250Y292500D02*
X199250D01*
X198750Y292000D02*
Y293000D01*
X194500Y285000D02*
X195500D01*
X195000Y284500D02*
Y285500D01*
X198250Y277500D02*
X199250D01*
X198750Y277000D02*
Y278000D01*
X194500Y270000D02*
X195500D01*
X195000Y269500D02*
Y270500D01*
X198250Y262500D02*
X199250D01*
X198750Y262000D02*
Y263000D01*
X194500Y255000D02*
X195500D01*
X195000Y254500D02*
Y255500D01*
X198250Y247500D02*
X199250D01*
X198750Y247000D02*
Y248000D01*
X194500Y240000D02*
X195500D01*
X195000Y239500D02*
Y240500D01*
X198250Y232500D02*
X199250D01*
X198750Y232000D02*
Y233000D01*
X194500Y225000D02*
X195500D01*
X195000Y224500D02*
Y225500D01*
X194500Y210000D02*
X195500D01*
X195000Y209500D02*
Y210500D01*
X194500Y195000D02*
X195500D01*
X195000Y194500D02*
Y195500D01*
X198250Y187500D02*
X199250D01*
X198750Y187000D02*
Y188000D01*
X194500Y180000D02*
X195500D01*
X195000Y179500D02*
Y180500D01*
X194500Y165000D02*
X195500D01*
X195000Y164500D02*
Y165500D01*
X198250Y157500D02*
X199250D01*
X198750Y157000D02*
Y158000D01*
X194500Y150000D02*
X195500D01*
X195000Y149500D02*
Y150500D01*
X198250Y142500D02*
X199250D01*
X198750Y142000D02*
Y143000D01*
X194500Y135000D02*
X195500D01*
X195000Y134500D02*
Y135500D01*
X198250Y127500D02*
X199250D01*
X198750Y127000D02*
Y128000D01*
X194500Y120000D02*
X195500D01*
X195000Y119500D02*
Y120500D01*
X293600Y195000D02*
X296400D01*
X295000Y193600D02*
Y196400D01*
X319549Y273828D02*
X322349D01*
X320949Y272428D02*
Y275228D01*
X301100Y195500D02*
X303900D01*
X302500Y194100D02*
Y196900D01*
X319353Y263968D02*
X322153D01*
X320753Y262568D02*
Y265368D01*
X318100Y243500D02*
X320900D01*
X319500Y242100D02*
Y244900D01*
X317600Y222000D02*
X320400D01*
X319000Y220600D02*
Y223400D01*
X212600Y189500D02*
X215400D01*
X214000Y188100D02*
Y190900D01*
X314100Y190000D02*
X316900D01*
X315500Y188600D02*
Y191400D01*
X271600Y195500D02*
X274400D01*
X273000Y194100D02*
Y196900D01*
X294139Y297625D02*
X296938D01*
X295538Y296225D02*
Y299025D01*
X280949Y195701D02*
X283749D01*
X282349Y194301D02*
Y197101D01*
X284269Y297535D02*
X287069D01*
X285669Y296135D02*
Y298935D01*
X263600Y296000D02*
X266400D01*
X265000Y294600D02*
Y297400D01*
X214600Y232500D02*
X217400D01*
X216000Y231100D02*
Y233900D01*
X205100Y295500D02*
X207900D01*
X206500Y294100D02*
Y296900D01*
X274736Y230731D02*
X277536D01*
X276136Y229331D02*
Y232131D01*
X265600Y133500D02*
X268400D01*
X267000Y132100D02*
Y134900D01*
X253600Y159500D02*
X256400D01*
X255000Y158100D02*
Y160900D01*
X287600Y105500D02*
X290400D01*
X289000Y104100D02*
Y106900D01*
X307600Y105000D02*
X310400D01*
X309000Y103600D02*
Y106400D01*
X257600Y117500D02*
X260400D01*
X259000Y116100D02*
Y118900D01*
M02*
