G04*
G04 #@! TF.GenerationSoftware,Altium Limited,Altium Designer,25.3.3 (18)*
G04*
G04 Layer_Color=255*
%FSLAX25Y25*%
%MOIN*%
G70*
G04*
G04 #@! TF.SameCoordinates,2E22F27B-A00B-49EA-A22F-E70647FCC6C8*
G04*
G04*
G04 #@! TF.FilePolarity,Positive*
G04*
G01*
G75*
%ADD17R,0.03543X0.03937*%
%ADD18R,0.03937X0.03150*%
%ADD19R,0.02292X0.08540*%
G04:AMPARAMS|DCode=20|XSize=85.4mil|YSize=22.92mil|CornerRadius=11.46mil|HoleSize=0mil|Usage=FLASHONLY|Rotation=270.000|XOffset=0mil|YOffset=0mil|HoleType=Round|Shape=RoundedRectangle|*
%AMROUNDEDRECTD20*
21,1,0.08540,0.00000,0,0,270.0*
21,1,0.06248,0.02292,0,0,270.0*
1,1,0.02292,0.00000,-0.03124*
1,1,0.02292,0.00000,0.03124*
1,1,0.02292,0.00000,0.03124*
1,1,0.02292,0.00000,-0.03124*
%
%ADD20ROUNDEDRECTD20*%
G04:AMPARAMS|DCode=21|XSize=47.45mil|YSize=20.95mil|CornerRadius=10.48mil|HoleSize=0mil|Usage=FLASHONLY|Rotation=270.000|XOffset=0mil|YOffset=0mil|HoleType=Round|Shape=RoundedRectangle|*
%AMROUNDEDRECTD21*
21,1,0.04745,0.00000,0,0,270.0*
21,1,0.02650,0.02095,0,0,270.0*
1,1,0.02095,0.00000,-0.01325*
1,1,0.02095,0.00000,0.01325*
1,1,0.02095,0.00000,0.01325*
1,1,0.02095,0.00000,-0.01325*
%
%ADD21ROUNDEDRECTD21*%
%ADD22R,0.02095X0.04745*%
%ADD23R,0.03150X0.03150*%
%ADD24R,0.03937X0.03543*%
%ADD25R,0.02756X0.04724*%
%ADD26R,0.02992X0.04724*%
%ADD27R,0.03150X0.04724*%
G04:AMPARAMS|DCode=28|XSize=57.31mil|YSize=22.43mil|CornerRadius=11.22mil|HoleSize=0mil|Usage=FLASHONLY|Rotation=90.000|XOffset=0mil|YOffset=0mil|HoleType=Round|Shape=RoundedRectangle|*
%AMROUNDEDRECTD28*
21,1,0.05731,0.00000,0,0,90.0*
21,1,0.03488,0.02243,0,0,90.0*
1,1,0.02243,0.00000,0.01744*
1,1,0.02243,0.00000,-0.01744*
1,1,0.02243,0.00000,-0.01744*
1,1,0.02243,0.00000,0.01744*
%
%ADD28ROUNDEDRECTD28*%
%ADD29R,0.02243X0.05731*%
%ADD33C,0.06000*%
%ADD34R,0.06000X0.06000*%
%ADD37C,0.05512*%
%ADD38R,0.05512X0.05512*%
%ADD39R,0.06000X0.06000*%
G04:AMPARAMS|DCode=40|XSize=43.31mil|YSize=66.93mil|CornerRadius=21.65mil|HoleSize=0mil|Usage=FLASHONLY|Rotation=0.000|XOffset=0mil|YOffset=0mil|HoleType=Round|Shape=RoundedRectangle|*
%AMROUNDEDRECTD40*
21,1,0.04331,0.02362,0,0,0.0*
21,1,0.00000,0.06693,0,0,0.0*
1,1,0.04331,0.00000,-0.01181*
1,1,0.04331,0.00000,-0.01181*
1,1,0.04331,0.00000,0.01181*
1,1,0.04331,0.00000,0.01181*
%
%ADD40ROUNDEDRECTD40*%
%ADD44R,0.04894X0.04894*%
%ADD45C,0.04894*%
D17*
X317158Y215500D02*
D03*
X311842D02*
D03*
X219158Y255000D02*
D03*
X213843D02*
D03*
X200243Y216492D02*
D03*
X205558D02*
D03*
X219000Y164500D02*
D03*
X224315D02*
D03*
X261815Y220000D02*
D03*
X256500D02*
D03*
X254343Y248000D02*
D03*
X259658D02*
D03*
X292815Y220000D02*
D03*
X287500D02*
D03*
X285343Y247000D02*
D03*
X290657D02*
D03*
X242158Y219000D02*
D03*
X236842D02*
D03*
X320185Y161000D02*
D03*
X325500D02*
D03*
D18*
X327000Y214047D02*
D03*
Y219953D02*
D03*
X205000Y254547D02*
D03*
Y260453D02*
D03*
X227500Y255047D02*
D03*
Y260953D02*
D03*
X222500Y138406D02*
D03*
Y132500D02*
D03*
X333500Y134500D02*
D03*
Y128595D02*
D03*
X239500Y237906D02*
D03*
Y232000D02*
D03*
X222500Y118500D02*
D03*
Y124406D02*
D03*
X317000Y128547D02*
D03*
Y134453D02*
D03*
X297500Y128595D02*
D03*
Y134500D02*
D03*
D19*
X228500Y243305D02*
D03*
D20*
X223500D02*
D03*
X218500D02*
D03*
X213500D02*
D03*
Y224694D02*
D03*
X218500D02*
D03*
X223500D02*
D03*
X228500D02*
D03*
D21*
X293240Y228364D02*
D03*
X285760D02*
D03*
Y236636D02*
D03*
X289500D02*
D03*
X262240Y228364D02*
D03*
X254760D02*
D03*
Y236636D02*
D03*
X258500D02*
D03*
D22*
X293240D02*
D03*
X262240D02*
D03*
D23*
X333500Y111047D02*
D03*
Y116953D02*
D03*
X317000Y111047D02*
D03*
Y116953D02*
D03*
X297500Y111047D02*
D03*
Y116953D02*
D03*
D24*
X204500Y229343D02*
D03*
Y234658D02*
D03*
X246000Y155185D02*
D03*
Y160500D02*
D03*
Y140842D02*
D03*
Y146158D02*
D03*
D25*
X254969Y125929D02*
D03*
X251031D02*
D03*
D26*
X258984D02*
D03*
X247016D02*
D03*
D27*
X263827D02*
D03*
X242173D02*
D03*
D28*
X259260Y150930D02*
D03*
X266740D02*
D03*
Y142070D02*
D03*
X263000D02*
D03*
D29*
X259260D02*
D03*
D33*
X333000Y274000D02*
D03*
Y264000D02*
D03*
Y254000D02*
D03*
Y244000D02*
D03*
Y284000D02*
D03*
X295500Y310000D02*
D03*
X285500D02*
D03*
X275500D02*
D03*
X235000D02*
D03*
X225000D02*
D03*
X215000D02*
D03*
D34*
X333000Y234000D02*
D03*
D37*
X209000Y276000D02*
D03*
X219000D02*
D03*
D38*
X229000D02*
D03*
D39*
X265500Y310000D02*
D03*
X205000D02*
D03*
D40*
X270008Y110653D02*
D03*
X235992D02*
D03*
X270008Y125614D02*
D03*
X235992D02*
D03*
D44*
X327000Y205500D02*
D03*
D45*
X317000D02*
D03*
X307000D02*
D03*
X297000D02*
D03*
X287000D02*
D03*
X277000D02*
D03*
X267000D02*
D03*
X257000D02*
D03*
X247000D02*
D03*
X237000D02*
D03*
X227000D02*
D03*
X217000D02*
D03*
X207000D02*
D03*
X197000D02*
D03*
Y174500D02*
D03*
X207000D02*
D03*
X217000D02*
D03*
X227000D02*
D03*
X237000D02*
D03*
X247000D02*
D03*
X257000D02*
D03*
X267000D02*
D03*
X277000D02*
D03*
X287000D02*
D03*
X297000D02*
D03*
X307000D02*
D03*
X317000D02*
D03*
X327000D02*
D03*
M02*
