G04*
G04 #@! TF.GenerationSoftware,Altium Limited,Altium Designer,25.3.3 (18)*
G04*
G04 Layer_Color=32768*
%FSLAX25Y25*%
%MOIN*%
G70*
G04*
G04 #@! TF.SameCoordinates,2E22F27B-A00B-49EA-A22F-E70647FCC6C8*
G04*
G04*
G04 #@! TF.FilePolarity,Positive*
G04*
G01*
G75*
%ADD13C,0.00600*%
%ADD48C,0.00394*%
%ADD50C,0.00197*%
G36*
X241000Y315700D02*
X199000D01*
Y304300D01*
X241000D01*
Y315700D01*
D02*
G37*
G36*
X327300Y290000D02*
Y228000D01*
X338700D01*
Y290000D01*
X327300D01*
D02*
G37*
G36*
X301500Y315700D02*
X259500D01*
Y304300D01*
X301500D01*
Y315700D01*
D02*
G37*
D13*
X327300Y290000D02*
X338700D01*
Y228000D02*
Y290000D01*
X327300Y228000D02*
Y290000D01*
Y228000D02*
X338700D01*
X301500Y304300D02*
Y315700D01*
X259500Y304300D02*
X301500D01*
X259500Y315700D02*
X301500D01*
X259500Y304300D02*
Y315700D01*
X241000Y304300D02*
Y315700D01*
X199000Y304300D02*
X241000D01*
X199000Y315700D02*
X241000D01*
X199000Y304300D02*
Y315700D01*
D48*
X314500Y213630D02*
Y217370D01*
X312630Y215500D02*
X316370D01*
X327000Y215228D02*
Y218772D01*
X325228Y217000D02*
X328772D01*
X205000Y255728D02*
Y259272D01*
X203228Y257500D02*
X206772D01*
X214630Y255000D02*
X218370D01*
X216500Y253130D02*
Y256870D01*
X227500Y256228D02*
Y259772D01*
X225728Y258000D02*
X229272D01*
X201031Y216492D02*
X204771D01*
X202901Y214622D02*
Y218362D01*
X219787Y164500D02*
X223528D01*
X221657Y162630D02*
Y166370D01*
X220728Y135453D02*
X224272D01*
X222500Y133681D02*
Y137224D01*
X333500Y129776D02*
Y133319D01*
X331728Y131547D02*
X335272D01*
X257287Y220000D02*
X261028D01*
X259157Y218130D02*
Y221870D01*
X255130Y248000D02*
X258870D01*
X257000Y246130D02*
Y249870D01*
X288287Y220000D02*
X292028D01*
X290158Y218130D02*
Y221870D01*
X286130Y247000D02*
X289870D01*
X288000Y245130D02*
Y248870D01*
X237630Y219000D02*
X241370D01*
X239500Y217130D02*
Y220870D01*
X320972Y161000D02*
X324713D01*
X322843Y159130D02*
Y162870D01*
X239500Y233181D02*
Y236724D01*
X237728Y234953D02*
X241272D01*
X204500Y230130D02*
Y233870D01*
X202630Y232000D02*
X206370D01*
X246000Y155972D02*
Y159713D01*
X244130Y157843D02*
X247870D01*
X246000Y141630D02*
Y145370D01*
X244130Y143500D02*
X247870D01*
X222500Y119681D02*
Y123224D01*
X220728Y121453D02*
X224272D01*
X317000Y129728D02*
Y133272D01*
X315228Y131500D02*
X318772D01*
X297500Y129776D02*
Y133319D01*
X295728Y131547D02*
X299272D01*
D50*
X309185Y212547D02*
X319815D01*
X309185Y218453D02*
X319815D01*
Y212547D02*
Y218453D01*
X309185Y212547D02*
Y218453D01*
X323063Y210504D02*
X330937D01*
X323063Y223496D02*
X330937D01*
X323063Y210504D02*
Y223496D01*
X330937Y210504D02*
Y223496D01*
X201063Y251004D02*
X208937D01*
X201063Y263996D02*
X208937D01*
X201063Y251004D02*
Y263996D01*
X208937Y251004D02*
Y263996D01*
X221815Y252047D02*
Y257953D01*
X211185Y252047D02*
Y257953D01*
Y252047D02*
X221815D01*
X211185Y257953D02*
X221815D01*
X223563Y251504D02*
X231437D01*
X223563Y264496D02*
X231437D01*
X223563Y251504D02*
Y264496D01*
X231437Y251504D02*
Y264496D01*
X197586Y213539D02*
Y219445D01*
X208216Y213539D02*
Y219445D01*
X197586D02*
X208216D01*
X197586Y213539D02*
X208216D01*
X216342Y161547D02*
Y167453D01*
X226972Y161547D02*
Y167453D01*
X216342D02*
X226972D01*
X216342Y161547D02*
X226972D01*
X192748Y208937D02*
X331252D01*
X192748Y171063D02*
Y208937D01*
Y171063D02*
X331252D01*
Y208937D01*
X226437Y128957D02*
Y141949D01*
X218563Y128957D02*
Y141949D01*
X226437D01*
X218563Y128957D02*
X226437D01*
X329563Y138043D02*
X337437D01*
X329563Y125051D02*
X337437D01*
Y138043D01*
X329563Y125051D02*
Y138043D01*
X264472Y217047D02*
Y222953D01*
X253842Y217047D02*
Y222953D01*
Y217047D02*
X264472D01*
X253842Y222953D02*
X264472D01*
X251685Y245047D02*
Y250953D01*
X262315Y245047D02*
Y250953D01*
X251685D02*
X262315D01*
X251685Y245047D02*
X262315D01*
X295472Y217047D02*
Y222953D01*
X284842Y217047D02*
Y222953D01*
Y217047D02*
X295472D01*
X284842Y222953D02*
X295472D01*
X282685Y244047D02*
Y249953D01*
X293315Y244047D02*
Y249953D01*
X282685D02*
X293315D01*
X282685Y244047D02*
X293315D01*
X244815Y216047D02*
Y221953D01*
X234185Y216047D02*
Y221953D01*
Y216047D02*
X244815D01*
X234185Y221953D02*
X244815D01*
X317528Y158047D02*
Y163953D01*
X328157Y158047D02*
Y163953D01*
X317528D02*
X328157D01*
X317528Y158047D02*
X328157D01*
X235563Y241449D02*
X243437D01*
X235563Y228457D02*
X243437D01*
Y241449D01*
X235563Y228457D02*
Y241449D01*
X201547Y226685D02*
X207453D01*
X201547Y237315D02*
X207453D01*
X201547Y226685D02*
Y237315D01*
X207453Y226685D02*
Y237315D01*
X243047Y152528D02*
X248953D01*
X243047Y163157D02*
X248953D01*
X243047Y152528D02*
Y163157D01*
X248953Y152528D02*
Y163157D01*
X243047Y138185D02*
X248953D01*
X243047Y148815D02*
X248953D01*
X243047Y138185D02*
Y148815D01*
X248953Y138185D02*
Y148815D01*
X218563Y114957D02*
X226437D01*
X218563Y127949D02*
X226437D01*
X218563Y114957D02*
Y127949D01*
X226437Y114957D02*
Y127949D01*
X313063Y125004D02*
X320937D01*
X313063Y137996D02*
X320937D01*
X313063Y125004D02*
Y137996D01*
X320937Y125004D02*
Y137996D01*
X293563Y125051D02*
X301437D01*
X293563Y138043D02*
X301437D01*
X293563Y125051D02*
Y138043D01*
X301437Y125051D02*
Y138043D01*
M02*
